<?xml version="1.0" encoding="utf-8"?>
<!-- Generator: Adobe Illustrator 21.1.0, SVG Export Plug-In . SVG Version: 6.00 Build 0)  -->
<svg version="1.1" id="Layer_1" xmlns="http://www.w3.org/2000/svg" xmlns:xlink="http://www.w3.org/1999/xlink" x="0px" y="0px"
	 viewBox="0 0 500 500" style="enable-background:new 0 0 500 500;" xml:space="preserve">
<style type="text/css">
	.st0{fill:#231F20;}
</style>
<path class="st0" d="M335.6,90.9c1.6,10.5,5.6,17.6,9.3,23.8c-9.2,3.6-16,11.2-17.6,19.5c-1.2,6.6,1.1,12.4,6.5,16.6
	c2.8,2.2,6.2,3.3,9.7,3.3c5.2,0,10-2.5,12.8-6.6c3.1-4.5,3.5-10.5,1.1-16.7c-1.9-5-4.1-9.2-6.8-13.8c8.8-1.8,17.9,0.5,26.5,6.7
	c8.6,6.2,22.8,23.7,27.1,33.4c4.2,9.6,4.6,19.3,1.1,27.3c-3.9-3.6-7.6-6.6-12.1-9.6c-3.5-2.3-7.2-3.5-10.7-3.5
	c-5.2,0-10,2.7-12.8,7.1c-2.9,4.6-3.2,10.4-0.9,15.4c3,6.2,8.6,9.8,15.4,9.8c8.3,0,16.9-5.1,22.1-13.1c5.3,4.9,11.4,10.3,21.3,14.1
	c3.9,1.5,8.1,2.2,12.2,2.2c9.7,0,19-4,25.4-11.1c5.9-6.5,8.7-14.9,7.9-23.6c-0.8-8.9-6.5-16.2-14.5-18.7c-1.8-0.5-3.5-0.8-5.3-0.8
	c-6.5,0-12.2,3.5-14.9,9.1c-1.1,2.3-1.6,4.8-1.5,7.4c-9.8-16.3-13.9-35.6-11.5-54.8c2.3,0.1,4.4-0.2,6.2-1c5.4-2.3,7.6-8,8.5-11.1
	l0.7-2.6l-2.7,0.2c-3.3,0.2-9.4,1.2-12.8,6c-1.2,1.7-2,3.8-2.4,6.2c-18.9-1.5-36.9-9.6-50.9-22.8c5.8,1.4,11.6-0.4,15.5-4.6
	c3.2-3.5,4.8-8.4,4.4-13.4c-0.7-8.3-6.7-15.4-15.2-18.1c-3-0.9-6.1-1.4-9.2-1.4c-9,0-17.8,4.1-24,11.4
	C337,70.7,334.1,80.9,335.6,90.9z M384.3,199.9c-5.4,0-9.6-2.7-12-7.6c-1.8-3.8-1.6-8.2,0.6-11.7c2.1-3.4,5.6-5.3,9.6-5.3
	c2.8,0,5.7,1,8.6,2.9c5,3.3,8.8,6.6,12.3,9.8C399,195.2,391.5,199.9,384.3,199.9z M354,132.2c1.9,5,1.7,9.6-0.7,13.1
	c-2.1,3.1-5.7,5-9.7,5c-2.7,0-5.2-0.9-7.4-2.5c-4.2-3.2-6-7.8-5.1-12.8c1.3-7.3,7.5-13.8,15.8-16.8
	C349.3,122.1,351.8,126.6,354,132.2z M346.5,65.6c5.5-6.4,13.2-10,21.1-10c2.7,0,5.4,0.4,8,1.2c7.1,2.2,12,8,12.6,14.8
	c0.3,3.9-0.9,7.7-3.4,10.4c-2.3,2.5-5.4,3.9-8.8,3.9c-4.9,0-10-2.9-14.3-8.3l-0.3-0.4l-2.6,2.1l-0.5,0.4l3.2,3.8
	c14.9,18.4,36.7,30.1,59.9,32.4c-2.5,23.4,4.5,47.2,19,65.1l2.8,3.4l0,0l0.3,0.5l3-2.4l-0.4-0.4c-5.2-6.4-6.8-13.1-4.2-18.4
	c2-4.3,6.4-6.9,11.4-6.9c1.4,0,2.8,0.2,4.2,0.6c6.5,2,11.1,8,11.8,15.4c0.7,7.6-1.7,14.9-6.9,20.6c-5.7,6.3-13.9,9.9-22.5,9.9
	c-3.7,0-7.4-0.7-10.9-2c-9.4-3.5-15.2-8.8-20.7-13.9c4.5-9.3,4.4-20.5-0.5-31.6c-4.6-10.4-19.1-28.4-28.4-35c-7.4-5.3-15.2-8-23-8
	c-2.6,0-5.3,0.3-7.8,1c-3.8-6.5-7.8-13.2-9.3-23.2C338.1,81.4,340.7,72.4,346.5,65.6z"/>
<path class="st0" d="M488.2,305.7c-2.1-2.3-6.5-6.3-12-6.3c-0.2,0-0.4,0-0.6,0c-2.1,0.1-4.2,0.8-6.3,2c-10.6-15.8-15.5-34.8-13.9-54
	c0.6,1.2,1.3,2.4,2.1,3.4c3,3.7,7.5,5.9,12.3,5.9c4.4,0,8.7-1.7,12-4.9c6.1-5.7,7.9-14.8,4.7-23.2c-4.6-12-16.3-19.8-29.8-19.8
	c-9.6,0-18.9,4-25.4,11.1c-7.2,7.8-10.2,15.4-12.8,22.1c-4.7-2.7-10-4.2-15.2-4.2c-6.2,0-11.6,2-15.3,5.8c-3.1,3.2-4.7,7.4-4.7,12.2
	c0.1,8.6,7.1,15.6,15.6,15.6c5.9,0,11.2-3.4,14.8-9.5c2.7-4.7,4.6-9,6.6-13.9c6.7,5.6,10.7,14.4,11.3,24.9c0.5,10.6-4.3,32.6-9.3,42
	c-4.9,9.3-12.3,15.6-20.7,17.8c0.3-5.3,0.5-10-0.1-15.4c-1.1-11.3-8.7-16.3-15.8-16.3c-6.1,0-11.6,3.4-14.3,9
	c-2.7,5.6-2.5,11.4,0.7,16.4c4.2,6.7,13,11,22.4,11c0.9,0,1.8,0,2.9-0.2c-0.5,7.2-1,15.4,2.3,25.5c4.6,14.1,17.9,24,32.5,24
	c8.1,0,15.4-3,21.2-8.5c6.5-6.2,8.6-15.2,5.6-23c-2.7-6.7-8.8-11-15.6-11c-3.7,0-7.2,1.3-10.2,3.8c6.6-17.9,19.2-33.1,35.7-43.2
	c1.3,1.9,2.9,3.3,4.7,4.2c1.8,1,3.9,1.4,6.1,1.4c3.1,0,6-0.9,7.9-1.7l2.5-1.1L488.2,305.7z M410.5,260c-2.9,4.9-6.9,7.6-11.5,7.6
	c-6.4,0-11.6-5.3-11.7-11.9c-0.1-3.8,1.2-7,3.5-9.5c2.9-3,7.4-4.6,12.5-4.6c4.7,0,9.6,1.4,13.8,4C415.4,250.1,413.5,254.8,410.5,260
	z M397.7,333.5c-9.2,1.1-18.4-2.7-22.3-9.1c-1.7-2.7-3.2-7.2-0.5-12.7c2.1-4.2,6.2-6.8,10.9-6.8c5,0,11.1,3.4,12,12.8
	C398.2,323.7,398,328.8,397.7,333.5z M426.2,358l-0.9,4.2l-0.1,0.7l3.6,0.8l0.1-0.5c2.1-9.4,7.5-15.1,14.4-15.1
	c5.2,0,9.9,3.4,12,8.6c2.5,6.3,0.7,13.7-4.7,18.8c-5.1,4.9-11.5,7.5-18.6,7.5c-12.9,0-24.8-8.8-28.8-21.3c-3.1-9.5-2.6-17.3-2-24.9
	c10.1-2.2,18.7-9.3,24.4-20.1c5.3-10,10.3-32.7,9.8-44c-0.6-12.1-5.4-22.2-13.6-28.5c2.7-7,5.5-14.3,12.4-21.7
	c5.8-6.3,14.1-9.9,22.6-9.9c12,0,22.1,6.6,26.2,17.4c2.7,6.9,1.2,14.4-3.7,19c-2.6,2.5-6,3.9-9.4,3.9c-3.7,0-7.1-1.6-9.3-4.4
	c-3.1-3.8-3.9-9.7-2.4-16.4l0.1-0.5l-3.2-0.7l-0.5,0l-0.2,0.4l-0.9,4.2c-5.1,23.1-0.7,47.5,12,67.1
	C445.5,315.2,431.2,335.4,426.2,358z"/>
<path class="st0" d="M389.9,375.2c-1.5-0.1-2.9-0.2-4.3-0.2c-7.8,0-13.9,1.7-21,3.9c-1.9-12.7-11.6-23-21.9-23
	c-3.8,0-7.5,1.4-10.8,4.1c-5.2,4.3-7.2,11.4-4.9,17.6c2.3,6.4,8.1,10.2,15.6,10.2c1.1,0,2.3-0.1,3.4-0.3c5.4-0.8,9.9-2,15-3.5
	c-0.2,8.8-4.6,17.4-12.5,24.3c-8,7-28.2,16.9-38.7,18.9c-10.3,1.9-19.9,0.1-26.9-5.1c4.4-3,8.1-5.9,12-9.6
	c5.7-5.5,7.6-12.5,5.1-18.7c-2.4-5.9-8.2-9.8-14.6-9.8c-1.2,0-2.4,0.1-3.5,0.4c-6.6,1.5-11.2,5.8-12.9,12.3
	c-2.1,8.2,0.9,18,7.7,25.1c-5.9,4.1-12.6,8.8-18.5,17.6c-6.7,10-7.7,22.5-2.7,33.5c4.6,10.1,13.4,16.7,24.1,18.2
	c1,0.1,2.1,0.2,3.1,0.2c7.8,0,14.7-3.8,18.3-10.2c3.1-5.4,3.2-12,0.2-17.2c-2.3-4-6-6.6-10.6-7.5c8.5-2.8,17.3-4.2,26.2-4.2
	c10.1,0,20.1,1.8,29.7,5.3c-0.6,2.2-0.7,4.3-0.4,6.3c1.1,5.7,6.1,9.2,8.9,10.8l2.4,1.3l0.4-2.7c0.5-3.3,0.9-9.4-3-13.8
	c-1.4-1.6-3.2-2.8-5.5-3.7c5.7-18.1,17.6-33.8,33.6-44.5c-1.5,3.1-2,6.3-1.5,9.6c1.1,7.1,7,12.7,14.6,13.8c0.9,0.1,1.9,0.2,2.8,0.2
	c7.3,0,14.2-4.2,18.2-11c5.5-9.3,5.7-20.3,0.5-30.2C412.4,383,402,376.1,389.9,375.2z M345.6,383.7c-7.2,1-12.9-1.9-14.9-7.5
	c-1.7-4.7-0.2-10.1,3.8-13.4c2.6-2.1,5.4-3.2,8.3-3.2c8.7,0,16.8,9.1,18.2,20.3C356.4,381.5,351.5,382.9,345.6,383.7z M272.9,397.6
	c1.3-5,4.9-8.4,10-9.5c0.9-0.2,1.8-0.3,2.7-0.3c4.8,0,9.3,3,11.1,7.4c1.9,4.8,0.4,10.1-4.2,14.5c-4.3,4.1-8.5,7.1-12.4,9.8
	C273.8,413.3,271,404.7,272.9,397.6z M414.2,421.8c-3.3,5.6-9,9.1-14.9,9.1c-0.8,0-1.5-0.1-2.3-0.2c-5.9-0.9-10.5-5.1-11.4-10.6
	c-1-6.4,3.3-12.6,11.4-16.6l0.5-0.2l-1.7-3.5l-4.4,2.2c-21.2,10.4-37.6,29-45,51.1c-9.5-3.3-19.4-4.9-29.4-4.9
	c-13.3,0-26.5,3-38.4,8.8l-4.5,2.2l1.4,2.9l0.3,0.5l0.5-0.2c3.7-1.8,7.2-2.7,10.5-2.7c4.9,0,9,2.2,11.2,6c2.3,4,2.2,9.1-0.2,13.3
	c-3,5.2-8.6,8.2-15,8.2c-0.9,0-1.8-0.1-2.6-0.2c-9.4-1.3-17.1-7.1-21.1-16c-4.4-9.7-3.5-20.8,2.4-29.8c5.6-8.4,12-12.8,18.2-17.1
	c6,4.9,13.7,7.4,22.2,7.4c2.8,0,5.7-0.3,8.7-0.8c11.2-2.1,32-12.2,40.5-19.8c9.1-8,14-18.1,13.8-28.4c6.2-2,12.7-4,20.6-4
	c1.3,0,2.7,0.1,4,0.2c10.7,0.8,20,7,25,16.4C419.1,404,419,413.7,414.2,421.8z"/>
<path class="st0" d="M224,421.9c6.8-7.2,9.7-17,7.5-25.1c-1.7-6.4-6.3-10.7-13-12.2c-1.1-0.2-2.3-0.4-3.4-0.4
	c-6.4,0-12.3,4-14.7,9.9c-2.5,6.2-0.5,13.2,5.3,18.7c3.9,3.7,7.7,6.5,12.1,9.5c-7,5.3-16.5,7.2-26.8,5.4
	c-10.5-1.9-30.8-11.6-38.8-18.5c-7.9-6.9-12.4-15.5-12.7-24.2c5.1,1.5,9.7,2.7,15,3.4c9.1,1.2,16.3-2.7,18.9-10.1
	c2.2-6.3,0.2-13.4-5.1-17.6c-3.2-2.6-6.9-4-10.7-4c-10.4,0-20,10.3-21.8,23.2c-6.9-2.1-12.9-3.7-20.6-3.7c-1.6,0-3.2,0.1-4.8,0.2
	c-12,1-22.4,8-27.9,18.7c-5.1,9.9-4.8,20.9,0.8,30.2c4,6.7,11,10.8,18.3,10.8c1,0,1.9-0.1,2.9-0.2c7.6-1.2,13.4-6.7,14.5-13.9
	c0.5-3.3-0.1-6.5-1.6-9.6c15.9,10.5,27.9,26.2,34,44.5c-2.1,0.9-3.8,2.1-5.1,3.6c-3.8,4.4-3.4,10.5-2.9,13.7l0.5,2.7l2.4-1.3
	c2.9-1.6,7.9-5.1,8.9-10.9c0.4-2.1,0.2-4.3-0.5-6.6c9.5-3.6,19.5-5.5,29.7-5.5c8.8,0,17.6,1.4,26.1,4.1c-4.6,1-8.3,3.6-10.5,7.6
	c-3,5.2-2.8,11.8,0.4,17.2c3.7,6.3,10.5,10,18.2,10c1.1,0,2.2-0.1,3.3-0.2c10.7-1.5,19.4-8.2,23.9-18.4c4.9-11,3.7-23.5-3-33.4
	C236.7,430.6,230,425.9,224,421.9z M157.7,360.6c2.9,0,5.7,1,8.2,3.1c4,3.2,5.6,8.6,3.9,13.4c-1.7,4.8-6.2,7.7-12.1,7.7
	c-0.9,0-1.8-0.1-2.7-0.2c-5.9-0.8-10.8-2.2-15.4-3.6C140.9,369.7,148.9,360.6,157.7,360.6z M208.4,410c-4.7-4.4-6.3-9.7-4.3-14.5
	c1.8-4.5,6.2-7.5,11.1-7.5c0.9,0,1.7,0.1,2.6,0.3c5.2,1.1,8.7,4.4,10.1,9.4c1.9,7.1-0.8,15.7-7,22
	C216.9,417.1,212.7,414.1,208.4,410z M242.2,471.3c-4,8.9-11.6,14.8-21,16.1c-0.9,0.1-1.9,0.2-2.8,0.2c-6.4,0-11.9-3-14.9-8.1
	c-2.5-4.3-2.6-9.4-0.3-13.4c2.2-3.9,6.3-6.1,11.3-6.1c3.2,0,6.7,0.9,10.4,2.6l0.5,0.2l1.5-3.1l0-0.7h-0.4l-3.8-1.8
	c-11.9-5.7-25.1-8.7-38.2-8.7c-10.2,0-20.3,1.8-29.8,5.3c-7.9-22.2-24.3-40.6-45.2-50.6l-4.5-2.1l-1.4,3l-0.2,0.5l0.5,0.2
	c8.2,3.9,12.5,10.1,11.6,16.5c-0.8,5.5-5.3,9.8-11.3,10.7c-6.7,1-13.6-2.5-17.3-8.8c-4.9-8.1-5.1-17.8-0.7-26.5
	c4.9-9.5,14.1-15.7,24.8-16.6c1.5-0.1,3-0.2,4.4-0.2c7.8,0,14.1,1.9,20.2,3.8c-0.1,10.3,4.9,20.4,14.1,28.3
	c8.6,7.4,29.5,17.4,40.7,19.4c2.8,0.5,5.6,0.8,8.3,0.8c8.7,0,16.5-2.6,22.5-7.6c6.3,4.2,12.7,8.6,18.3,16.9
	C245.5,450.4,246.5,461.5,242.2,471.3z"/>
<path class="st0" d="M100.8,364.1c3.2-10.1,2.6-18.3,2.1-25.5c1,0.1,1.8,0.1,2.6,0.1c9.5,0,18.4-4.4,22.6-11.2
	c3.1-5.1,3.3-10.9,0.6-16.5c-2.7-5.5-8.2-8.9-14.2-8.9c-7.2,0-14.8,5.1-15.8,16.4c-0.5,5.4-0.3,10.1,0.1,15.4
	c-8.5-2.2-15.9-8.4-20.9-17.7c-5.1-9.4-10.1-31.3-9.7-41.9c0.4-10.5,4.3-19.4,11-25c2,5,3.9,9.3,6.7,13.9c3.6,6.1,8.9,9.4,14.7,9.4
	c8.5,0,15.5-7.1,15.6-15.8c0-4.8-1.6-9-4.7-12.1c-3.6-3.7-9-5.7-15.1-5.7c-5.2,0-10.7,1.5-15.4,4.4c-2.6-6.7-5.7-14.3-13-22
	c-6.6-7-15.6-10.9-25.2-10.9c-13.6,0-25.3,7.9-29.9,20.1c-3.2,8.4-1.2,17.5,4.9,23.1c3.3,3.1,7.6,4.8,11.9,4.8
	c4.9,0,9.4-2.2,12.4-5.9c0.8-1,1.5-2.2,2.1-3.4c1.7,19-3.1,38.2-13.7,54.3c-2-1.1-4-1.7-6-1.8c-5.8-0.3-10.4,3.9-12.5,6.3l-1.8,2
	l2.5,1c1.9,0.8,4.8,1.7,7.9,1.7c2.3,0,4.4-0.5,6.2-1.5c1.9-1,3.5-2.5,4.8-4.5c16.4,9.7,29,24.8,35.8,42.8c-3-2.4-6.5-3.8-10.2-3.8
	c-6.9,0-13,4.4-15.6,11.2c-3,7.8-0.8,16.8,5.8,22.9c5.8,5.5,13.1,8.4,21,8.4h0C82.9,388.4,96.3,378.4,100.8,364.1z M102.4,319
	c0.8-9.5,7-12.9,12-12.9c4.6,0,8.7,2.6,10.8,6.8c2.8,5.5,1.3,10-0.4,12.8c-3.9,6.4-12.9,10.2-22.2,9.2
	C102.1,330.1,101.9,324.9,102.4,319z M96.2,243c5.1,0,9.5,1.6,12.4,4.5c2.4,2.4,3.6,5.7,3.6,9.4c-0.1,6.6-5.3,12-11.7,12
	c-4.5,0-8.5-2.7-11.4-7.5c-3-5.1-5-9.8-6.8-14.3C86.5,244.5,91.5,243,96.2,243z M68.2,384.6c-7,0-13.3-2.5-18.4-7.3
	c-5.4-5.1-7.3-12.4-4.8-18.8c2.1-5.3,6.8-8.7,12-8.7c6.9,0,12.2,5.6,14.4,14.9l0.1,0.5l3.6-0.8V364l-1-4.4
	c-5.3-23-19.8-43.2-39.7-55.4c12.5-20,16.7-44.3,11.5-66.9l-1-4.3l-0.1-0.5l-3.7,0.9l0.1,0.5c1.6,6.8,0.7,12.6-2.3,16.5
	c-2.3,2.8-5.7,4.5-9.4,4.5c-3.4,0-6.7-1.3-9.3-3.8c-5-4.6-6.5-12.1-3.9-19c4-10.7,14.3-17.6,26.3-17.6c8.6,0,16.5,3.4,22.4,9.7
	c6.9,7.3,9.8,14.5,12.6,21.6c-8.1,6.3-12.9,16.5-13.4,28.6c-0.5,11.4,4.7,33.9,10.1,43.9c5.8,10.7,14.5,17.7,24.6,19.9
	c0.6,7.5,1.2,15.3-1.8,24.9C93.1,375.7,81.2,384.6,68.2,384.6z"/>
<path class="st0" d="M58.8,208.5L58.8,208.5c4.3,0,8.5-0.8,12.5-2.3c9.9-3.8,15.9-9.3,21.2-14.2c5.3,7.9,13.9,12.9,22.1,12.9
	c6.9,0,12.6-3.6,15.5-9.9c2.3-5,2-10.7-1-15.3c-2.8-4.4-7.6-7.1-12.8-7.1c-3.6,0-7.3,1.2-10.8,3.6c-4.5,3-8.1,6.1-12,9.7
	c-3.6-8-3.3-17.7,0.8-27.3c4.2-9.8,18.2-27.4,26.8-33.7c8.6-6.3,17.6-8.7,26.5-6.9c-2.6,4.6-4.8,8.8-6.7,13.9
	c-2.3,6.2-1.9,12.1,1.2,16.6c2.9,4.1,7.6,6.6,12.8,6.6c3.6,0,7-1.2,9.8-3.4c5.3-4.2,7.6-10.1,6.3-16.6c-1.6-8.3-8.5-15.8-17.7-19.3
	c3.6-6.2,7.6-13.3,9.1-23.9c1.4-10-1.5-20-8.1-27.6c-6.2-7.2-14.9-11.3-23.9-11.3c-3.2,0-6.3,0.5-9.4,1.5
	c-8.5,2.7-14.4,9.9-15.1,18.2c-0.4,5,1.2,9.8,4.5,13.3c3.9,4.2,9.8,6,15.5,4.6c-13.8,13.1-31.7,21.3-51,23.1
	c-0.4-2.3-1.2-4.2-2.4-5.8c-3.4-4.7-9.4-5.7-12.7-5.9l-2.7-0.1l0.7,2.6c0.9,3.2,3.2,8.9,8.6,11.2c1.9,0.8,4.1,1.2,6.6,1
	c2.6,18.8-1.3,38.1-11.2,54.6c0-2.6-0.5-5.1-1.6-7.3c-2.7-5.6-8.4-9-14.8-9c-1.8,0-3.7,0.3-5.5,0.8c-8,2.5-13.6,9.9-14.4,18.8
	c-0.7,8.6,2.1,16.9,8,23.4C39.9,204.5,49.1,208.5,58.8,208.5z M107.6,179.4c2.9-2,5.9-2.9,8.7-2.9c3.9,0,7.4,1.9,9.6,5.3
	c2.2,3.5,2.5,7.8,0.7,11.6c-2.3,5-6.6,7.7-12,7.7c-7.2,0-14.7-4.6-19.3-11.8C98.8,186.1,102.7,182.7,107.6,179.4z M167.3,135.6
	c1,5.1-0.8,9.6-4.9,12.9c-2.2,1.7-4.8,2.6-7.5,2.6c-3.9,0-7.5-1.8-9.6-4.9c-2.4-3.4-2.7-8.1-0.8-13.1c2.1-5.6,4.6-10.1,6.9-14.2
	C159.7,121.8,165.9,128.3,167.3,135.6z M29.3,174.5c0.6-7.4,5.2-13.4,11.7-15.5c1.4-0.4,2.9-0.7,4.3-0.7c5,0,9.3,2.6,11.4,6.8
	c2.5,5.2,1,11.9-4.1,18.3l-0.4,0.4l3,2.4l3.1-3.9C73,164.1,79.8,140.2,76.9,117c23.4-2.7,45.1-14.5,59.5-32.7l3.1-3.9l-2.6-2
	l-0.5-0.3l-0.3,0.4c-4.3,5.4-9.4,8.4-14.3,8.4c-3.3,0-6.4-1.4-8.7-3.8c-2.5-2.7-3.8-6.5-3.5-10.4c0.5-6.8,5.4-12.6,12.4-14.9
	c2.7-0.9,5.5-1.3,8.3-1.3c7.9,0,15.5,3.6,21,10c5.9,6.8,8.5,15.7,7.2,24.6c-1.4,9.9-5.3,16.7-9.1,23.2c-2.5-0.6-5-0.9-7.5-0.9
	c-7.9,0-15.7,2.8-23.2,8.2c-9.2,6.7-23.6,24.8-28.1,35.3c-4.8,11.2-4.8,22.4-0.2,31.6c-5.5,5.2-11.2,10.4-20.6,14.1
	c-3.6,1.4-7.3,2.1-11.1,2.1c-8.6,0-16.8-3.6-22.5-9.8C31.2,189.3,28.7,182.1,29.3,174.5z"/>
<path class="st0" d="M176.5,84.8c9.2,5.4,17.2,6.7,24.3,7.7c-2.7,8.4-1.7,17.6,2.7,24c4.2,6.3,11.1,9,18.4,7.3
	c6.9-1.7,12-7.7,12.2-14.8c0.2-5.8-3-13-12.8-16.2c-5.2-1.7-9.8-2.6-15-3.4c4-7.8,11.8-13.6,21.9-16.4c4.8-1.3,12.8-2.1,21.5-2.1
	c8.7,0,16.7,0.8,21.5,2.1c10.1,2.8,17.9,8.6,21.9,16.4c-5.3,0.8-9.9,1.7-15,3.4c-9.8,3.2-13.1,10.4-12.8,16.2
	c0.3,7,5.3,13.1,12.2,14.8c1.5,0.4,3,0.5,4.4,0.5h0c5.6,0,10.6-2.8,14-7.8c4.3-6.5,5.3-15.6,2.7-24c7.1-1.1,15.2-2.4,24.3-7.7
	c10.4-6.1,16.8-16.9,17.1-28.9c0.3-11.1-4.7-20.9-13.7-26.9c-3.8-2.5-8.2-3.9-12.5-3.9c-4,0-7.9,1.2-11.2,3.4
	c-6.4,4.3-9.2,11.9-7.1,18.8c1,3.2,2.9,5.9,5.6,7.9c-18.8-2.6-36.4-11.6-49.8-25.5c1.5-1.7,2.6-3.5,3.1-5.5
	c1.5-5.6-1.4-10.9-3.3-13.6l-1.6-2.2l-1.6,2.2c-1.9,2.7-4.9,8-3.4,13.7c0.6,2,1.7,4,3.3,5.7c-13.1,13.8-30.6,22.7-49.7,25.2
	c2.7-2.1,4.6-4.8,5.6-8c2.1-6.9-0.7-14.5-7.1-18.8c-3.3-2.2-7.1-3.4-11.2-3.4c-4.3,0-8.7,1.4-12.5,3.9c-9,6-14,15.8-13.7,26.9
	C159.8,67.9,166.2,78.7,176.5,84.8z M220.2,96.5c6.6,2.1,10.4,6.8,10.2,12.4c-0.2,5.3-4,9.9-9.3,11.2c-5.8,1.4-11-0.7-14.3-5.7
	c-3.8-5.6-4.5-13.9-2-21.3C209.5,93.9,214.5,94.7,220.2,96.5z M292.7,114.5c-3.3,4.9-8.6,7-14.3,5.7c-5.3-1.3-9.1-5.9-9.3-11.2
	c-0.2-5.6,3.6-10.3,10.2-12.4c5.6-1.8,10.7-2.7,15.4-3.4C297.3,100.5,296.5,108.9,292.7,114.5z M175.2,32.3
	c3.1-2.1,6.8-3.2,10.4-3.2c3.3,0,6.3,0.9,9,2.8c5,3.4,7.2,9.2,5.6,14.5c-1.9,6.2-8.5,9.9-17.6,9.9H182V60h4.9
	c23.6,0,46.5-9.5,62.9-26.2C266.5,50.4,289.3,60,312.4,60h5v-3.8h-0.6c-9.1,0-15.7-3.7-17.6-9.9c-1.6-5.3,0.6-11.1,5.6-14.5
	c2.7-1.8,5.7-2.8,9-2.8c3.6,0,7.2,1.1,10.4,3.2c7.9,5.2,12.3,13.8,12,23.6c-0.3,10.7-6,20.3-15.2,25.7c-8.7,5.1-16.4,6.3-23.8,7.4
	c-4.4-9.4-13.2-16.3-24.9-19.5c-5.2-1.4-13.4-2.2-22.5-2.2c-9.1,0-17.3,0.8-22.5,2.2c-11.7,3.2-20.5,10.1-24.9,19.5
	c-7.5-1.1-15.2-2.3-23.8-7.4c-9.2-5.4-14.9-15-15.2-25.7C163,46.1,167.3,37.5,175.2,32.3z"/>
</svg>
