<?xml version="1.0" encoding="utf-8"?>
<!-- Generator: Adobe Illustrator 21.1.0, SVG Export Plug-In . SVG Version: 6.00 Build 0)  -->
<svg version="1.1" id="Layer_1" xmlns="http://www.w3.org/2000/svg" xmlns:xlink="http://www.w3.org/1999/xlink" x="0px" y="0px"
	 viewBox="0 0 432 216" style="enable-background:new 0 0 432 216;" xml:space="preserve">
<style type="text/css">
	.st0{fill:url(#SVGID_1_);}
	.st1{fill:url(#SVGID_2_);}
	.st2{fill:url(#SVGID_3_);}
	.st3{fill:url(#SVGID_4_);}
	.st4{fill:url(#SVGID_5_);}
	.st5{fill:url(#SVGID_6_);}
	.st6{fill:url(#SVGID_7_);}
	.st7{fill:url(#SVGID_8_);}
	.st8{fill:url(#SVGID_9_);}
	.st9{fill:url(#SVGID_10_);}
	.st10{fill:url(#SVGID_11_);}
	.st11{fill:url(#SVGID_12_);}
	.st12{fill:url(#SVGID_13_);}
</style>
<g>
	<radialGradient id="SVGID_1_" cx="215.9414" cy="117.7829" r="165.7565" gradientUnits="userSpaceOnUse">
		<stop  offset="0" style="stop-color:#231F20"/>
		<stop  offset="1" style="stop-color:#0D0D0D"/>
	</radialGradient>
	<path class="st0" d="M428.6,65.8c-0.1,0.1-3.8,2.5-10.2,5.7c-0.9,0-1.7,0.1-2.5,0.5c-0.7,0.4-1.3,0.9-1.8,1.6
		c-3.2,1.5-6.7,3-10.7,4.6c-0.6,0-1.2,0.1-1.8,0.3c-0.5,0.2-1,0.5-1.4,0.9c-4,1.4-8.3,2.8-12.9,4.1c-0.2,0-0.4,0-0.6,0.1
		c-0.2,0-0.3,0.1-0.5,0.2c-0.1,0-0.2,0-0.3,0.1c-0.8-3.2-2.1-6.1-4.1-8.5c-2.8-3.3-6.7-5-11.5-5V48.5c0.4,0.3,0.9,0.5,1.4,0.7
		c2.9,0.9,5.9-0.7,6.6-3.6c0.5-1.7,0.1-3.4-0.9-4.7c3.3,0.9,6.5,1.7,9.8,2.5c-1.5,0.6-2.7,2-3.2,3.7c-0.7,2.8,1.1,5.7,4,6.4
		c3,0.6,5.8-1.3,6.3-4.2c0.3-1.8-0.3-3.5-1.4-4.7c3.4,0.6,6.8,1.2,10.1,1.6c-1.5,0.8-2.6,2.2-2.9,4c-0.4,2.9,1.6,5.6,4.6,5.9
		c3,0.3,5.6-1.9,5.8-4.8c0.1-1.8-0.7-3.5-2-4.6c3.5,0.3,6.9,0.5,10.4,0.6c-1.4,0.9-2.4,2.5-2.5,4.4c-0.1,2.9,2.2,5.4,5.3,5.4
		c3,0,5.4-2.5,5.3-5.4c-0.1-1.9-1.1-3.4-2.5-4.4c1.1,0,2.2,0,3.4-0.1c0.3,0,0.6-0.3,0.6-0.7c0-0.3-0.3-0.6-0.7-0.6
		c-26.2,1.1-53.8-5.1-82.2-18.4c-0.3-0.2-0.5-0.4-0.8-0.5c-0.3-0.1-0.6-0.3-1-0.3c-3.5-1.6-6.9-3.4-10.4-5.2c0-0.1,0-0.1-0.1-0.2
		c-0.2-0.2-0.5-0.2-0.7-0.1c-0.2,0-0.4,0.1-0.5,0.3c0,0,0,0,0,0.1c-0.9,0.9-3.9,3.6-8.8,7.7c-0.8,0.2-1.5,0.5-2.2,1.1
		c-0.6,0.5-1.1,1.1-1.4,1.8c-0.8,0.6-1.5,1.2-2.4,1.9c-0.1,0-0.2-0.1-0.3-0.1c-0.4,0-0.6,0.3-0.6,0.6v0.1c-2,1.5-4.2,3.2-6.5,4.9
		c-0.6,0.2-1.2,0.4-1.7,0.8c-0.5,0.4-0.9,0.8-1.2,1.3c-3.4,2.4-7,4.9-11,7.5c-0.4,0.1-0.8,0.3-1.2,0.6c-0.4,0.2-0.7,0.5-1,0.8
		c-3.9,2.5-8,5-12.4,7.6c-0.2,0.1-0.4,0.1-0.5,0.2c-0.2,0.1-0.3,0.2-0.4,0.3c-1.4,0.8-2.7,1.6-4.1,2.3c-5.2-4.3-10.2-9.1-15-14.4
		c-0.2-0.6-0.5-1.1-0.9-1.6c-0.5-0.5-1-0.9-1.6-1.2c-2.5-2.8-4.9-5.8-7.2-8.9c-0.1-0.8-0.4-1.6-0.9-2.3c-0.5-0.7-1.2-1.3-2-1.6
		c-2.2-3.1-4.4-6.3-6.6-9.6c-0.2-0.3-0.6-0.4-0.9-0.2c-0.3,0.2-0.3,0.5-0.2,0.8c-0.9,0.9-3.9,3.8-8.6,7.8c-0.8,0.2-1.5,0.5-2.1,1.1
		c-0.6,0.5-1,1.1-1.3,1.7c-2.9,2.3-6.2,4.8-9.9,7.5c-0.5,0.2-1,0.4-1.4,0.7c-0.4,0.3-0.7,0.6-1,1c-21,14.6-53.9,31.8-92.9,32.6
		c-28.7,0.6-56.7-7.7-83.4-24.7c-0.3-0.3-0.6-0.6-0.9-0.8c-0.4-0.3-0.8-0.4-1.2-0.6c-3.5-2.3-7-4.8-10.5-7.4
		c-0.3-0.6-0.7-1.1-1.3-1.5c-0.6-0.5-1.2-0.8-1.9-0.9c-3-2.4-6-4.8-9-7.4c-0.3-0.8-0.7-1.5-1.4-2.1c-0.7-0.6-1.5-1-2.4-1.2
		c-2.3-2.1-4.7-4.3-7-6.5c-0.3-0.2-0.7-0.2-0.9,0c-0.2,0.3-0.2,0.7,0,0.9c2,1.9,4,3.8,5.9,5.6c-1.1,0.2-2.3,0.7-3.1,1.6
		c-2,2.1-1.9,5.5,0.3,7.5c2.2,2,5.6,1.8,7.5-0.4c0.9-1,1.3-2.2,1.3-3.4c2.2,1.8,4.3,3.6,6.5,5.4c-1.2,0.2-2.4,0.8-3.3,1.9
		c-1.9,2.2-1.5,5.6,0.8,7.5c2.4,1.9,5.7,1.4,7.5-0.9c0.8-1.1,1.2-2.5,1-3.8c2.4,1.8,4.8,3.5,7.2,5.1c-1.3,0.2-2.6,1-3.5,2.2
		c-1.7,2.4-1.1,5.7,1.4,7.4c2.5,1.7,5.8,0.9,7.4-1.5c0.8-1.3,1-2.8,0.6-4.2c2.7,1.7,5.4,3.2,8.1,4.7c-1.5,0.3-2.8,1.2-3.6,2.6
		c-1.5,2.5-0.6,5.8,2.1,7.2c2.7,1.4,5.9,0.4,7.2-2.2c0.8-1.5,0.7-3.2,0.1-4.6c3,1.5,5.9,2.9,8.9,4.2c-1.6,0.4-3,1.4-3.7,3
		c-1.2,2.6,0,5.8,2.8,7c2.8,1.2,5.9-0.2,7-2.9c0.6-1.7,0.4-3.5-0.5-4.9c3.3,1.2,6.5,2.4,9.8,3.4c-1.7,0.5-3.1,1.7-3.7,3.5
		c-1,2.8,0.6,5.8,3.5,6.7c2.9,0.9,5.9-0.8,6.6-3.7c0.5-1.9-0.1-3.7-1.3-5c3.5,0.9,7.1,1.8,10.6,2.4c-1.7,0.6-3.2,2-3.6,4
		c-0.6,2.9,1.3,5.7,4.3,6.2c3,0.5,5.8-1.5,6.1-4.4c0.3-2-0.6-3.9-2.1-5c3.7,0.6,7.5,1,11.2,1.2c-1.7,0.7-3,2.4-3.3,4.5
		c-0.3,2.9,1.9,5.5,5,5.7c3,0.2,5.5-2.2,5.6-5.1c0-2.1-1.1-3.9-2.8-4.8c1.7,0.1,3.5,0.1,5.2,0.1c0.9,0,1.9,0,2.8,0
		c1.2,0,2.3-0.1,3.5-0.2c-1.7,0.9-2.8,2.8-2.8,4.8c0.1,2.9,2.6,5.2,5.6,5c3-0.2,5.2-2.8,4.9-5.7c-0.2-2.1-1.6-3.7-3.3-4.4
		c3.8-0.3,7.6-0.7,11.3-1.3c-1.5,1.1-2.3,3-2.1,5c0.4,2.9,3.1,4.9,6.1,4.4c3-0.5,4.9-3.4,4.3-6.2c-0.4-2-1.9-3.5-3.7-4
		c3.7-0.7,7.3-1.5,10.9-2.4c-1.3,1.3-1.9,3.2-1.4,5.1c0.7,2.8,3.7,4.5,6.6,3.7c2.9-0.8,4.5-3.9,3.6-6.6c-0.6-1.8-2.1-3.1-3.8-3.6
		c3.5-1,6.9-2.1,10.1-3.3c-1,1.4-1.3,3.2-0.7,5c1,2.7,4.1,4.2,6.9,3c2.8-1.1,4.1-4.3,2.9-6.9c-0.7-1.7-2.2-2.8-3.8-3.1
		c3.2-1.3,6.3-2.6,9.3-4c-0.7,1.4-0.8,3.1-0.1,4.7c1.2,2.7,4.4,3.8,7.1,2.4c2.7-1.4,3.7-4.6,2.3-7.2c-0.8-1.5-2.2-2.4-3.7-2.7
		c3-1.5,5.8-3,8.5-4.6c-0.5,1.4-0.4,3,0.4,4.4c1.5,2.5,4.7,3.4,7.3,1.8c2.6-1.6,3.3-4.9,1.7-7.3c-0.9-1.3-2.2-2.1-3.6-2.3
		c0.3-0.2,0.6-0.4,0.9-0.5c2.4-1.5,4.6-2.9,6.7-4.4c-0.2,1.3,0,2.8,0.9,4c1.6,2.4,5,3,7.4,1.2c2.4-1.8,2.9-5.1,1.1-7.4
		c-0.9-1.1-2.1-1.8-3.4-2c2.5-1.8,4.8-3.6,6.8-5.2c0,1.2,0.3,2.5,1.2,3.6c1.8,2.3,5.2,2.6,7.5,0.6c2.3-2,2.5-5.4,0.5-7.5
		c-0.9-0.9-2-1.5-3.2-1.7c3.7-3.2,6.2-5.6,7.2-6.6c1.7,2.6,3.4,5.1,5.1,7.5c-1.1-0.1-2.3,0.2-3.4,0.9c-2.4,1.6-3.1,4.9-1.3,7.3
		c1.7,2.4,5.1,2.9,7.4,1.1c1-0.8,1.7-1.9,2-3.1c1.7,2.2,3.5,4.4,5.2,6.5c-1.3-0.1-2.6,0.3-3.6,1.2c-2.3,1.8-2.6,5.2-0.7,7.4
		c1.9,2.3,5.3,2.4,7.5,0.5c1.1-1,1.7-2.3,1.8-3.6c1.8,1.9,3.6,3.7,5.4,5.5c-1.7-0.3-3.5,0.2-4.8,1.5c-2.1,2-2.1,5.4,0.1,7.5
		c2.2,2.1,5.6,1.9,7.5-0.3c1.2-1.4,1.6-3.3,1.2-4.9c1.4,1.3,2.8,2.5,4.2,3.7c-9.8,5.4-20.8,10.8-32.8,15.8
		c-52.5,21.8-136.6,40.3-239.4,5c-0.3-0.1-0.7,0.1-0.8,0.4c-0.1,0.3,0.1,0.7,0.4,0.8c2.1,0.7,4.1,1.4,6.2,2.1
		c-1.6,0.5-3.1,1.7-3.6,3.4C4.4,92,5.9,95.1,8.8,96c2.9,0.9,5.9-0.6,6.7-3.4c0.5-1.8,0.1-3.6-1-5c3.5,1.1,6.9,2.1,10.4,3.1
		c-1.7,0.5-3.1,1.8-3.6,3.6c-0.8,2.8,0.8,5.8,3.7,6.6c2.9,0.8,5.8-0.9,6.6-3.7c0.5-1.9-0.1-3.7-1.3-5c3.6,0.9,7.2,1.8,10.7,2.7
		c-1.7,0.5-3.1,1.9-3.6,3.8c-0.7,2.8,1.1,5.7,4,6.4c2.9,0.7,5.8-1.2,6.4-4c0.4-1.9-0.3-3.8-1.6-5c3.7,0.8,7.4,1.5,11,2.2
		c-1.8,0.6-3.2,2.1-3.5,4c-0.6,2.9,1.4,5.7,4.3,6.2c3,0.5,5.7-1.4,6.2-4.3c0.3-2-0.5-3.8-2-5c3.8,0.6,7.5,1.2,11.3,1.7
		c-1.8,0.7-3.1,2.2-3.4,4.2c-0.4,2.9,1.6,5.6,4.6,6c3,0.4,5.7-1.7,6-4.6c0.2-2-0.7-3.9-2.3-5c3.8,0.5,7.6,0.9,11.5,1.2
		c-1.7,0.7-3,2.4-3.2,4.4c-0.3,2.9,1.9,5.5,4.9,5.7c3,0.2,5.6-2,5.7-4.9c0.1-2-0.9-3.9-2.5-4.9c3.9,0.3,7.7,0.5,11.6,0.6
		c-1.7,0.8-3,2.5-3.1,4.6c-0.1,2.9,2.2,5.4,5.2,5.5c3,0.1,5.5-2.3,5.5-5.2c0-2-1.1-3.8-2.8-4.7c2.4,0.1,4.8,0.1,7.2,0.1
		c1.5,0,2.9,0,4.4-0.1c-1.7,0.9-2.9,2.7-2.9,4.7c0,2.9,2.4,5.3,5.5,5.2c3-0.1,5.3-2.5,5.2-5.4c-0.1-2-1.3-3.7-3-4.6
		c3.7-0.1,7.4-0.3,11.1-0.5c0.1,0,0.3,0,0.4,0c-1.6,1-2.6,2.8-2.5,4.8c0.2,2.9,2.7,5.1,5.7,4.9s5.2-2.8,4.9-5.7
		c-0.2-2-1.5-3.6-3.2-4.4c3.8-0.3,7.6-0.7,11.4-1.1c-1.5,1.1-2.5,2.9-2.3,4.9c0.3,2.9,3,5,6,4.6c3-0.4,5.1-3.1,4.6-6
		c-0.3-2-1.6-3.5-3.4-4.2c3.8-0.5,7.5-1,11.2-1.7c-1.4,1.2-2.2,3-1.9,5c0.5,2.9,3.2,4.8,6.2,4.3c3-0.5,4.9-3.3,4.3-6.2
		c-0.4-1.9-1.8-3.4-3.5-4c3.7-0.7,7.3-1.4,11-2.2c-1.3,1.2-2,3.1-1.6,5c0.6,2.9,3.5,4.7,6.4,4c2.9-0.7,4.7-3.6,4-6.4
		c-0.5-1.9-1.9-3.2-3.6-3.8c3.6-0.8,7.1-1.7,10.6-2.7c-1.2,1.3-1.7,3.1-1.2,5c0.8,2.8,3.7,4.5,6.6,3.7c2.9-0.8,4.5-3.8,3.7-6.6
		c-0.6-1.8-2-3.1-3.6-3.6c3.4-1,6.8-2.1,10.2-3.2c-1,1.3-1.4,3.2-0.9,4.9c0.9,2.8,3.9,4.3,6.8,3.3c2.8-1,4.3-4,3.3-6.8
		c-0.6-1.7-2-2.9-3.6-3.3c3.3-1.1,6.6-2.3,9.8-3.6c-0.9,1.4-1.2,3.2-0.5,4.8c1,2.7,4.1,4.1,6.9,3c2.8-1.1,4.1-4.2,3-6.9
		c-0.7-1.6-2.1-2.7-3.7-3.1c0.9-0.4,1.9-0.7,2.8-1.1c2.2-0.9,4.4-1.9,6.6-2.8c-0.8,1.4-0.9,3.1-0.2,4.7c1.2,2.7,4.3,3.9,7.1,2.6
		c2.7-1.3,3.9-4.4,2.6-7.1c-0.7-1.5-2.1-2.5-3.7-2.9c1.9-0.9,3.7-1.7,5.5-2.6v31.5c-4.9,0.3-8.9,2.1-11.7,5.7
		c-7.8,9.7-4.6,28.3-4.2,30.7c-0.4,0.2-0.7,0.6-0.8,1.3c-0.1-0.2-0.3-0.4-0.3-0.7c-0.1-0.3-0.3-0.5-0.6-0.5c0,0-0.1,0-0.1,0
		c-0.2,0-0.3,0.1-0.4,0.3c-0.1,0.1-0.1,0.3-0.1,0.5c0.1,0.8,0.6,1.5,1.1,1.8c0.3,0.2,0.6,0.3,0.9,0.3c0.1,0,0.2,0,0.3,0
		c0.1,0,0.2-0.1,0.3-0.1c0.2,0.2,0.5,0.3,0.8,0.4c-0.1,0.9-0.2,1.7-0.4,2c-0.4,0.6-1.1,1.2-1.9,1.9c-1.9,1.6-4.2,3.5-4.3,7
		c0,0.3,0,0.7,0,1.2c0,0.5,0,1.1,0,1.7c0,1.3,0,2.9-0.1,4.8c-0.1,4.6-0.1,10.4-0.1,16.2c0,0.6,0,1.1,0,1.7c0,0.9,0,1.8,0,2.7
		c0,6.3,0.1,12,0.4,14.9c0.7,9.3,16.5,9.3,21.6,9.3c9.3,0,20.7-1.6,21.9-9.1c0-0.1,0.1-0.1,0.1-0.2c0.6-8.2,0.3-38,0.1-43.2
		c-0.1-3.4-2.4-5.3-4.2-6.8c-0.8-0.7-1.6-1.4-2-2c-0.2-0.3-0.3-1.3-0.3-2.2c0.3-0.1,0.5-0.2,0.7-0.3c0.1,0.1,0.3,0.2,0.4,0.2
		c0.1,0,0.2,0,0.3,0c0.3,0,0.6-0.1,0.9-0.3c0.5-0.4,1-1,1.1-1.8c0-0.2,0-0.3-0.1-0.5c-0.1-0.1-0.2-0.2-0.4-0.3
		c-0.3-0.1-0.7,0.2-0.8,0.5c-0.1,0.3-0.2,0.5-0.3,0.7c0.1-0.3,0-0.6,0-0.8c0,0,0-0.1-0.1-0.1c0-0.1,0-0.2-0.1-0.3
		c-0.1-0.2-0.3-0.3-0.4-0.4c0.6-3.4,3.4-21.8-4.3-31c-2.8-3.3-6.7-5-11.5-5V70.1c0.7-0.4,1.5-0.7,2.2-1.1c-0.6,1.4-0.7,3.1,0.1,4.6
		c1.3,2.6,4.5,3.7,7.2,2.3c2.7-1.4,3.7-4.6,2.3-7.2c-0.8-1.4-2.1-2.4-3.6-2.7c2.1-1.1,4.1-2.2,6.1-3.3c0.8,0.6,1.5,1.2,2.3,1.8
		c0.1,0.4,0.3,0.8,0.5,1.2c0,0,0,0,0,0.1c-1.2,0.3-2.3,0.9-3.1,1.9c-1.9,2.3-1.5,5.6,0.9,7.4c2.4,1.8,5.8,1.2,7.4-1.2
		c1-1.4,1.2-3.1,0.7-4.6c2.7,1.9,5.5,3.6,8.3,5.2c-1.6,0.1-3.2,1-4.2,2.6c-1.6,2.5-0.7,5.8,1.9,7.3c2.6,1.5,5.9,0.4,7.2-2.2
		c0.8-1.7,0.7-3.5-0.1-5c3.1,1.6,6.2,3,9.3,4.3c-1.7,0.3-3.2,1.4-4,3.2c-1.2,2.7,0.1,5.8,2.9,6.9c2.8,1.1,5.9-0.4,6.8-3.2
		c0.6-1.9,0.2-3.8-0.9-5.1c1.4,0.5,2.9,1,4.3,1.4v26.7c-4.9,0-8.8,1.8-11.6,5.2c-7.6,9.2-4.8,27.5-4.2,30.9
		c-0.1,0.1-0.3,0.2-0.4,0.4c-0.1,0.1-0.1,0.2-0.1,0.3c0,0,0,0.1,0,0.1c-0.1,0.3-0.1,0.6,0,0.9c0.1,0.7,0.8,1.3,1.9,1.7
		c0,1-0.1,1.9-0.3,2.2c-0.4,0.7-1.2,1.3-2,2c-1.8,1.5-4.1,3.4-4.2,6.8c-0.1,5.2-0.5,35,0.1,43.2c0,0.1,0,0.1,0.1,0.2
		c1.2,7.5,12.5,9.1,21.9,9.1c5.2,0,20.9,0,21.6-9.3c0.6-8.2,0.3-38,0.1-43.2c-0.1-3.5-2.4-5.4-4.3-7c-0.2-0.2-0.4-0.3-0.6-0.5
		c-0.6-0.5-1-0.9-1.3-1.4c-0.2-0.3-0.3-1.2-0.4-2.1c1.1-0.5,1.7-1.2,1.7-2c-0.1-0.6-0.4-1-0.8-1.2c0.5-2.4,3.6-21-4.2-30.7
		c-2.8-3.5-6.8-5.4-11.7-5.7V85c1.5,0.4,3,0.9,4.6,1.2c-1.7,0.5-3.1,1.9-3.7,3.8c-0.8,2.8,0.9,5.8,3.9,6.4c3,0.7,5.8-1.3,6.3-4.1
		c0.3-1.9-0.4-3.8-1.7-5c3.5,0.7,7,1.2,10.4,1.6c-1.6,0.8-2.7,2.3-3,4.2c-0.4,2.9,1.7,5.6,4.7,5.8c3,0.2,5.5-2.1,5.6-5
		c0.1-1.9-0.9-3.6-2.3-4.6c2.6,0.2,5.3,0.3,7.8,0.3c0.6,0,1.1,0,1.7,0c0,0.3-0.1,0.5-0.1,0.8c-0.8,1-1.4,2.2-1.4,3.7
		c0,1.2,0.5,2.4,1.2,3.2c0.2,4.6,0.8,8.2,1,9.2c-0.4,0.2-0.7,0.6-0.8,1.3c-0.1-0.2-0.3-0.4-0.3-0.7c-0.1-0.3-0.4-0.6-0.8-0.5
		c-0.3,0.1-0.6,0.4-0.5,0.8c0.1,0.8,0.6,1.5,1.1,1.8c0.3,0.2,0.6,0.3,0.9,0.3c0.1,0,0.2,0,0.3,0c0.1,0,0.2-0.1,0.3-0.1
		c0.2,0.2,0.5,0.3,0.8,0.4c-0.1,0.9-0.2,1.7-0.4,2c-0.4,0.6-1.1,1.2-1.9,1.9c-1.9,1.6-4.2,3.5-4.3,7c0,0.8,0,2.2-0.1,4
		c-0.1,4.8-0.2,12.4-0.2,19.9c0,8,0.1,15.8,0.4,19.3c0.7,9.3,16.5,9.3,21.6,9.3c9.3,0,20.7-1.6,21.9-9.1c0-0.1,0.1-0.1,0.1-0.2
		c0.6-8.2,0.3-38,0.1-43.2c-0.1-3.4-2.4-5.3-4.2-6.8c-0.8-0.7-1.6-1.4-2-2c-0.2-0.3-0.3-1.3-0.3-2.2c0.3-0.1,0.5-0.2,0.7-0.3
		c0.1,0.1,0.3,0.2,0.4,0.2c0.1,0,0.2,0,0.3,0c0.4,0,0.9-0.2,1.3-0.6c0.4-0.4,0.7-0.9,0.8-1.5c0-0.2,0-0.3-0.1-0.5
		c-0.1-0.1-0.2-0.2-0.4-0.3c-0.4-0.1-0.7,0.2-0.8,0.5c0,0.3-0.2,0.5-0.3,0.7c0.1-0.3,0-0.6,0-0.8c0,0,0-0.1-0.1-0.1
		c0-0.1,0-0.2-0.1-0.2c-0.1-0.2-0.3-0.3-0.4-0.4c0.3-1.6,1.1-6.7,1-12.5c0.8,0.2,1.6,0.2,2.4-0.1c2.9-0.8,4.4-3.8,3.5-6.6
		c-0.5-1.5-1.5-2.6-2.8-3.2c3-0.9,5.8-1.8,8.5-2.7c-0.5,1.2-0.6,2.7-0.2,4.1c1,2.8,4,4.2,6.8,3.1c2.8-1.1,4-4.2,2.9-6.9
		c-0.6-1.3-1.6-2.2-2.7-2.8c2.8-1.1,5.4-2.2,7.7-3.3c-0.3,1.2-0.2,2.5,0.3,3.7c1.2,2.6,4.4,3.8,7.1,2.4c2.7-1.4,3.6-4.6,2.2-7.2
		c-0.6-1.1-1.5-1.9-2.6-2.3c5.6-2.9,8.9-5,9-5.1c0.3-0.2,0.4-0.6,0.2-0.9C429.3,65.7,428.9,65.6,428.6,65.8z M240.2,152.7
		c0.1-3.1,2.3-4.9,4-6.4c0.2-0.2,0.4-0.3,0.6-0.5c0.6-0.5,1.1-1,1.5-1.5c0.3-0.4,0.4-1.3,0.5-2.2c2.4,0.8,6.5,1.2,12.3,1.2
		c0.9,0,1.7,0,2.3,0c6.9-0.1,11.6-0.6,14.4-1.4c0,0.9,0.2,1.9,0.5,2.4c0.5,0.8,1.3,1.5,2.2,2.2c1.8,1.5,3.8,3.2,3.9,6.2
		c0.1,5.1,0.5,34.3-0.1,42.9c0,0,0,0.1,0,0.1c-0.8,7.1-11.9,8.6-21,8.6c-5,0-20.1,0-20.8-8.5C239.7,187.8,240.1,157.7,240.2,152.7z
		 M277.7,139.3c0,0.1,0,0.2,0,0.4c0-0.1,0-0.2-0.1-0.3C277.6,139.5,277.6,139.4,277.7,139.3C277.7,139.4,277.7,139.4,277.7,139.3
		C277.7,139.4,277.7,139.3,277.7,139.3z M276.2,140.9c-0.1,0-0.1,0.1-0.2,0.1c-0.1,0-0.1,0-0.2,0.1c-2,0.7-6.1,1.3-14.3,1.5
		c-0.1,0-0.3,0-0.4,0c-0.6,0-1.2,0-1.9,0c-2.2,0-4.2-0.1-5.9-0.2c-2.8-0.2-5-0.6-6.3-1c-0.1,0-0.2-0.1-0.2-0.1
		c-0.1,0-0.1-0.1-0.2-0.1c-0.1,0-0.1-0.1-0.2-0.1c-0.1,0-0.2-0.1-0.2-0.1c0,0-0.1,0-0.1-0.1c0,0,0,0,0.1-0.1c0-0.1,0.1-0.1,0.1-0.2
		c0,0,0,0,0,0c0,0,0,0,0.1-0.1c0,0,0-0.1,0-0.1c0,0,0,0,0-0.1c0-0.1,0-0.2,0.1-0.3c0.1,0.1,0.2,0.1,0.3,0.2c0.2,0.1,0.3,0.1,0.5,0.2
		c0.2,0.1,0.4,0.1,0.6,0.2c0.2,0.1,0.5,0.1,0.7,0.2c0.3,0.1,0.6,0.1,1,0.2c3.1,0.6,7.3,0.7,11.1,0.7c0.3,0,0.5,0,0.8,0
		c3.9,0,9.6-0.2,13.2-1.1c0.2-0.1,0.5-0.1,0.7-0.2c0.2-0.1,0.5-0.1,0.7-0.2c0.1,0,0.1-0.1,0.2-0.1c0.1,0,0.1-0.1,0.2-0.1
		c0,0,0.1,0,0.1,0c0,0.1,0,0.1,0,0.2c0,0.1,0,0.2,0.1,0.2c0,0,0,0,0,0c0,0,0.1,0.1,0.1,0.1c0,0,0,0-0.1,0c-0.1,0-0.1,0.1-0.2,0.1
		C276.3,140.8,276.3,140.9,276.2,140.9z M246.4,135.9c0-0.8-0.1-1.6,0.1-2.1c2.2,1.7,13.6,1.8,15,1.8c1.4,0,12.6-0.1,15-1.8
		c0.1,0.4,0.1,0.8,0.1,1.3c-1.2,0.7-5.9,1.2-14.1,1.5c-0.7,0-1,0-1.1,0.1c-0.5,0.1-1,0.5-1.1,1c0,0.2,0.1,0.7,1,0.9
		c0.1,0,0.4,0,0.8,0c2,0,11.7-0.5,14.5-1.3c0,0.2,0.1,0.5,0.1,0.7c0,0.1,0,0.2,0,0.2c-0.6,0.3-2.5,0.8-5.2,1.1
		c-3.6,0.4-7.6,0.7-9.8,0.7l-0.3,0c-2.2,0-6.5-0.3-10.1-0.7c-2.5-0.3-4.4-0.8-5-1c0,0,0,0,0-0.1
		C246.4,137.5,246.4,136.7,246.4,135.9z M246.9,133.1c0,0,0.1-0.1,0.2-0.2c0.1-0.1,0.3-0.1,0.5-0.2c0.2-0.1,0.5-0.1,0.9-0.2
		c2.2-0.5,6.7-1,13-1c2.8,0,5.2,0.1,7.2,0.2c-2-0.1-4.2-0.1-5.9-0.1c-2.2,0-4.4,0.1-6.3,0.2c-0.2,0-0.4,0.2-0.4,0.5
		c0,0.1,0.1,0.2,0.1,0.2c0.1,0.1,0.2,0.2,0.3,0.2c0,0,0,0,0,0c1.7-0.1,3.8-0.2,5.8-0.2c0.1,0,0.3,0,0.4,0c0.1,0,0.3,0,0.4,0
		c3,0,5.3,0.1,7,0.2c0.9,0.1,1.6,0.1,2.1,0.2c0.3,0,0.5,0.1,0.7,0.1c-0.1,0-0.3,0.1-0.5,0.1c-0.5,0.1-1.1,0.2-1.9,0.2
		c-1.7,0.1-4.1,0.3-7.7,0.3c-2.6,0-5.2-0.1-7.3-0.3c-0.2,0-0.4,0.2-0.4,0.4c0,0.1,0,0.2,0.1,0.3c0.1,0.1,0.2,0.1,0.3,0.2
		c2.1,0.2,4.7,0.3,7.4,0.3c2.5,0,4.4-0.1,5.9-0.1c-2,0.2-4.4,0.2-7.2,0.2c-7.6,0-12.5-0.7-14-1.3
		C247.2,133.3,247.1,133.2,246.9,133.1C247,133.2,246.9,133.1,246.9,133.1z M276,133.1c0,0-0.1,0.1-0.1,0.1
		c-0.1,0.1-0.3,0.1-0.5,0.2c-0.5,0.2-1.3,0.4-2.4,0.5c0.8-0.2,1.1-0.4,1.2-0.5c0.1-0.1,0.1-0.2,0.1-0.2c0,0,0,0,0,0
		c0-0.1,0-0.1,0-0.2c0-0.1,0-0.1-0.1-0.2c0,0,0,0,0-0.1c0-0.1-0.1-0.1-0.2-0.2c-0.2-0.1-0.4-0.2-0.7-0.2c0.5,0.1,0.9,0.2,1.3,0.2
		c0.3,0.1,0.6,0.2,0.9,0.2c0.2,0.1,0.4,0.1,0.5,0.2C276,133,276,133,276,133.1z M277,136c0,0-0.1,0.1-0.2,0.3c0,0,0,0,0,0
		c0,0-0.1,0.1-0.2,0.1c-1.6,0.6-11.1,1.3-14.4,1.3c-0.5,0-0.6,0-0.6,0c-0.1,0-0.2,0-0.3-0.1c0.1,0,0.1-0.1,0.2-0.1
		c0.1,0,0.4,0,0.9,0l0.1,0c5.4-0.2,11.8-0.6,14-1.4c0.1,0,0.2-0.1,0.2-0.1c0,0,0.1,0,0.1,0C276.9,136,276.9,136,277,136L277,136
		C277,136,277,136,277,136z M276.8,132.7c-0.1-0.1-0.2-0.1-0.2-0.1c-1.9-1.8-13.7-1.9-15.1-1.9c-1.4,0-13,0.1-15.1,1.9h0
		c-0.1,0-0.2,0-0.3,0.1c-0.2,0.2-0.3,0.5-0.4,0.8c-0.6-6.6-0.8-18.1,4.6-24.7c2.7-3.4,6.5-5.1,11.4-5.2c4.8-0.1,8.5,1.4,11.2,4.6
		c5.6,6.7,5.3,18.9,4.6,25.6C277.2,133.3,277.1,132.9,276.8,132.7z M385.5,124.6c-1.5,0-2.9,0.3-4.3,0.9c-2.7,1.2-4.6,3.3-5.4,5.9
		c-1,3.1-0.4,6.7,1.6,10.3c0.4,0.7,0.9,1.4,1.4,2.2c0.1,0.1,0.2,0.2,0.4,0.2c0.1,0,0.2,0,0.3-0.1c0.2-0.1,0.2-0.4,0.1-0.6
		c-0.5-0.7-0.9-1.4-1.4-2.1c-1.9-3.3-2.5-6.6-1.6-9.5c0,0.2,0.1,0.4,0.3,0.4c0,0,0.1,0,0.1,0c0.2,0,0.4-0.1,0.4-0.3
		c0.7-2.2,2.3-3.9,4.5-4.9c1.1-0.5,2.3-0.8,3.6-0.8c1.8,0,3.6,0.6,5.1,1.7c0.1,7.2,0.2,17.8,0.1,25.9c-1.1-0.8-2-1.6-2.8-2.2
		c-0.2-0.1-0.5-0.1-0.6,0.1c-0.1,0.1-0.1,0.2-0.1,0.3c0,0.1,0.1,0.2,0.2,0.3c1,0.8,2.1,1.7,3.3,2.6c-0.1,3.6-0.1,6.6-0.3,8.5
		c0,0,0,0.1,0,0.1c-0.8,7.1-11.9,8.6-21,8.6c-5,0-20.1,0-20.8-8.5c0-0.5-0.1-1.1-0.1-1.8c0-0.7-0.1-1.4-0.1-2.2c0-0.4,0-0.8,0-1.3
		c-0.1-3.9-0.1-8.9-0.1-14.1c0-8.4,0.1-17,0.2-21.5c0-1,0-1.8,0-2.4c0.1-3.1,2.3-4.9,4-6.4c0.2-0.2,0.4-0.3,0.6-0.5
		c0.6-0.5,1.1-1,1.5-1.5c0,0,0,0,0,0c0.3-0.4,0.4-1.3,0.5-2.2c2.4,0.8,6.5,1.2,12.3,1.2c0.9,0,1.7,0,2.3,0
		c6.9-0.1,11.6-0.6,14.4-1.4c0,0.9,0.2,1.9,0.5,2.4c0.5,0.8,1.3,1.5,2.2,2.2c1.8,1.5,3.8,3.2,3.9,6.2c0,1,0.1,2.8,0.1,5.3
		C389,125.1,387.3,124.6,385.5,124.6z M385.4,101.7c-0.1-0.4-0.2-0.7-0.5-1c-0.1-0.1-0.2-0.1-0.2-0.1c-1.9-1.8-13.7-1.9-15.1-1.9
		c-1.4,0-13,0.1-15.1,1.9h0c-0.1,0-0.2,0-0.3,0.1c-0.2,0.2-0.3,0.5-0.4,0.7c-0.1-0.9-0.2-1.8-0.2-2.9c0.8,0.5,1.8,0.8,2.9,0.7
		c3-0.2,5.2-2.7,4.9-5.7c-0.2-1.8-1.2-3.3-2.6-4.2c3.3-0.2,6.6-0.6,9.8-1c-1.1,1.1-1.7,2.8-1.5,4.5c0.4,2.9,3.1,4.9,6,4.4
		c3-0.5,4.8-3.3,4.2-6.2c-0.4-1.7-1.4-3-2.8-3.7c3.2-0.6,6.3-1.2,9.2-2c-0.8,1.2-1.2,2.8-0.8,4.4c0.4,1.5,1.4,2.7,2.7,3.4
		C385.9,96.4,385.7,99.3,385.4,101.7z M385.9,107.3c0,0.1,0,0.2,0,0.4c0-0.1,0-0.2-0.1-0.3C385.8,107.4,385.8,107.4,385.9,107.3
		C385.8,107.4,385.9,107.4,385.9,107.3C385.9,107.3,385.9,107.3,385.9,107.3z M384.1,109c-0.1,0-0.1,0-0.2,0.1
		c-2,0.7-6.1,1.3-14.3,1.5c-0.1,0-0.2,0-0.3,0c-0.6,0-1.2,0-1.9,0c-2.2,0-4.2-0.1-5.9-0.2c-2.8-0.2-4.9-0.6-6.3-1
		c-0.1,0-0.2,0-0.2-0.1c-0.1,0-0.1-0.1-0.2-0.1c-0.1,0-0.1-0.1-0.2-0.1c-0.1,0-0.2-0.1-0.2-0.1c0,0-0.1,0-0.1-0.1c0,0,0,0,0.1-0.1
		c0-0.1,0.1-0.1,0.1-0.2c0,0,0,0,0,0c0-0.1,0.1-0.1,0.1-0.2c0,0,0,0,0-0.1c0-0.1,0-0.2,0.1-0.2c0.1,0.1,0.2,0.1,0.3,0.2
		c0.2,0.1,0.3,0.1,0.5,0.2c0.2,0.1,0.4,0.1,0.6,0.2c0.2,0.1,0.5,0.1,0.8,0.2c0.3,0.1,0.7,0.1,1,0.2c0.6,0.1,1.2,0.2,1.9,0.3
		c3.3,0.4,7.2,0.4,9.3,0.4c0.3,0,0.5,0,0.8,0c3.9,0,9.6-0.2,13.2-1.1c0.2-0.1,0.5-0.1,0.7-0.2c0.2-0.1,0.5-0.1,0.7-0.2
		c0.1,0,0.1-0.1,0.2-0.1c0.1,0,0.1-0.1,0.2-0.1c0,0,0.1,0,0.1,0c0,0,0,0.1,0,0.1c0,0.1,0,0.2,0.1,0.2c0,0,0,0,0,0
		c0,0,0.1,0.1,0.1,0.1c0,0,0,0-0.1,0c-0.1,0-0.1,0.1-0.2,0.1c-0.1,0-0.1,0.1-0.2,0.1C384.3,108.9,384.2,108.9,384.1,109z
		 M354.5,103.9c0-0.8-0.1-1.6,0.1-2.1c2.2,1.7,13.6,1.8,15,1.8c1.4,0,12.6-0.1,15-1.8c0.1,0.4,0.1,0.8,0.1,1.3
		c-1.2,0.7-5.9,1.2-14,1.5l-0.1,0c-0.6,0-0.9,0-1,0c-0.5,0.1-1,0.5-1.1,1c0,0.2,0.1,0.7,1,0.9c0.1,0,0.4,0,0.8,0
		c1.8,0,11.6-0.5,14.5-1.3c0,0.2,0.1,0.5,0.1,0.7c0,0.1,0,0.2,0,0.3c-0.6,0.3-2.5,0.8-5.2,1.1c-3.5,0.4-7.8,0.7-10.1,0.7
		c-2.2,0-6.5-0.3-10.1-0.7c-2.5-0.3-4.4-0.8-5-1c0,0,0,0,0-0.1C354.6,105.5,354.6,104.7,354.5,103.9z M355.1,101.1
		c0,0,0.1-0.1,0.2-0.2c0.1-0.1,0.3-0.1,0.5-0.2c0.2-0.1,0.5-0.1,0.9-0.2c2.2-0.5,6.7-1,13-1c6.4,0,10.9,0.5,13,1
		c0.3,0.1,0.6,0.2,0.9,0.2c0.2,0.1,0.4,0.1,0.5,0.2c0.1,0,0.1,0.1,0.1,0.1c0,0-0.1,0.1-0.1,0.1c-0.1,0.1-0.3,0.1-0.5,0.2
		c-1.6,0.6-6.5,1.3-13.9,1.3c-7.6,0-12.5-0.7-14-1.3C355.4,101.3,355.2,101.2,355.1,101.1C355.1,101.2,355.1,101.1,355.1,101.1z
		 M385.1,104C385.1,104,385.1,104,385.1,104c0,0,0,0.1-0.2,0.3c0,0,0,0,0,0c0,0-0.1,0.1-0.2,0.1c-1.6,0.6-11.1,1.3-14.4,1.3
		c-0.5,0-0.6,0-0.6,0c-0.1,0-0.2,0-0.3-0.1c0.1,0,0.1-0.1,0.2-0.1c0.1,0,0.5,0,1.1,0c5-0.2,11.7-0.6,14-1.4c0.1,0,0.2-0.1,0.2-0.1
		c0,0,0.1,0,0.1,0C385.1,104,385.1,104,385.1,104C385.1,104,385.1,104,385.1,104z M354,88.4c0.6-4.3,1.9-8.5,4.4-11.7
		c2.7-3.4,6.5-5.1,11.4-5.2c4.7-0.1,8.5,1.4,11.2,4.6c1.8,2.2,3,5,3.8,8C375.3,86.4,365,88.1,354,88.4z M370.4,39.8v-1
		c0.4,0.1,0.8,0.3,1.2,0.4C371.1,39.3,370.7,39.5,370.4,39.8z M332.6,153.5c0.5,0.7,1.3,1.3,2.1,2c1.7,1.4,3.9,3.3,4,6.3
		c0,0.2,0,0.4,0,0.6c0.1,3.3,0.2,12.4,0.2,21.5c0,0.6,0,1.2,0,1.8c0,8-0.1,15.7-0.4,19.2v0c-0.7,8.5-15.8,8.5-20.8,8.5
		c-9.2,0-20.2-1.5-21-8.6c0-0.1,0-0.1,0-0.1c-0.6-8.6-0.2-37.8-0.1-42.9c0.1-3,2.1-4.7,3.9-6.2c0.9-0.7,1.7-1.4,2.2-2.2
		c0.3-0.5,0.4-1.5,0.5-2.4c2.7,0.8,7.5,1.3,14.4,1.4c0.6,0,1.4,0,2.3,0c5.8,0,9.9-0.4,12.3-1.3C332.2,152.1,332.3,153,332.6,153.5z
		 M302.9,142.2c0,0,0.1-0.1,0.2-0.2c0.1-0.1,0.3-0.1,0.5-0.2c0.1,0,0.2-0.1,0.4-0.1c0,0,0,0-0.1,0c0,0,0,0,0,0.1
		c0,0.1-0.1,0.1-0.1,0.2c0,0.1,0,0.1,0,0.2c0,0,0,0,0,0c0,0.1,0,0.1,0.1,0.2c0,0.1,0.1,0.1,0.2,0.2c-0.3-0.1-0.5-0.1-0.7-0.2
		C303.2,142.4,303.1,142.4,302.9,142.2C303,142.3,303,142.3,302.9,142.2z M332,142.2c0,0-0.1,0.1-0.1,0.1c-0.1,0.1-0.3,0.1-0.5,0.2
		c-1.6,0.6-6.5,1.3-13.9,1.3c-2.3,0-4.3-0.1-6.1-0.2c1.1,0,2.4,0,3.9,0c2.7,0,5.3-0.1,7.4-0.3c0.1,0,0.2-0.1,0.3-0.2
		c0.1-0.1,0.1-0.2,0.1-0.3c0-0.2-0.2-0.4-0.5-0.4h0c-2.1,0.2-4.6,0.3-7.3,0.3c-3.4,0-6-0.1-7.7-0.3c-0.8-0.1-1.5-0.1-2-0.2
		c-0.2,0-0.4-0.1-0.5-0.1c0.2,0,0.4-0.1,0.7-0.1c0.5-0.1,1.2-0.1,2.1-0.2c1.6-0.1,3.9-0.2,6.7-0.2c0.2,0,0.4,0,0.7,0
		c0.1,0,0.2,0,0.3,0c2.1,0,4.1,0.1,5.9,0.2c0.1,0,0.2-0.1,0.3-0.2c0.1-0.1,0.1-0.1,0.1-0.2c0-0.1,0-0.2-0.1-0.3
		c-0.1-0.1-0.2-0.1-0.3-0.1c-1.9-0.1-4.1-0.2-6.3-0.2c-1.1,0-2.5,0-3.9,0.1c1.8-0.1,3.8-0.2,6.1-0.2c6.4,0,10.9,0.5,13,1
		c0.3,0.1,0.6,0.2,0.9,0.2c0.2,0.1,0.4,0.1,0.5,0.2C332,142.1,332,142.2,332,142.2z M302,145.2C302,145.2,302,145.2,302,145.2
		c0,0,0.1-0.1,0.1-0.1c0,0,0.1,0,0.1,0c0.1,0,0.1,0.1,0.2,0.1c2.3,0.8,9,1.2,14,1.4c0.5,0,1,0,1.1,0c0.1,0,0.2,0.1,0.2,0.1
		c-0.1,0-0.1,0-0.3,0.1c0,0-0.2,0-0.6,0c-3.3,0-12.9-0.7-14.4-1.3c-0.1,0-0.2-0.1-0.2-0.1c0,0,0,0,0,0
		C302.1,145.3,302,145.2,302,145.2C302,145.2,302,145.2,302,145.2z M332.7,147.4c-0.7,0.3-2.7,0.8-5,1c-3.6,0.4-7.9,0.7-10.1,0.7h0
		c-2.2,0-6.6-0.3-10.1-0.7c-2.5-0.3-4.5-0.8-5.2-1.1c0-0.1,0-0.2,0-0.3c0.1-0.2,0.1-0.5,0.1-0.7c2.8,0.8,12.4,1.3,14.5,1.3
		c0.4,0,0.6,0,0.8,0c0.9-0.2,1-0.7,1-0.9c0-0.5-0.6-0.9-1.1-1c-0.1,0-0.4,0-1.1-0.1c-8.2-0.3-12.9-0.8-14.1-1.5c0-0.5,0-1,0.1-1.3
		c2.3,1.7,13.5,1.8,15,1.8c1.4,0,12.8-0.1,15-1.8c0.1,0.5,0.1,1.4,0.1,2.1C332.5,145.8,332.5,146.6,332.7,147.4
		C332.7,147.4,332.7,147.4,332.7,147.4z M332.9,141.8c-0.1-0.1-0.2-0.1-0.3-0.1h0c-2-1.8-13.6-1.9-15.1-1.9
		c-1.4,0-13.2,0.1-15.1,1.9c-0.1,0-0.2,0-0.2,0.1c-0.3,0.3-0.4,0.6-0.5,1c-0.7-6.7-1-18.8,4.5-25.5c2.7-3.3,6.5-4.9,11.3-4.7
		c4.8,0.1,8.7,1.9,11.4,5.2c5.3,6.6,5.2,18.1,4.6,24.7C333.2,142.2,333.1,142,332.9,141.8z M301.3,148.9c0-0.2,0-0.3,0-0.4
		c0,0,0,0,0,0c0.2,0.3,0.6,0.5,1.1,0.7c0.1,0,0.1,0.1,0.2,0.1c0.1,0,0.1,0.1,0.2,0.1c0.1,0,0.1,0.1,0.2,0.1c0.2,0.1,0.5,0.2,0.7,0.2
		c0.1,0,0.2,0.1,0.3,0.1c3.8,1,10.2,1.2,13.5,1.2l0.8,0c2,0,5.9-0.1,9.2-0.4c0.7-0.1,1.3-0.2,1.9-0.3c0.4-0.1,0.7-0.1,1-0.2
		c0.3-0.1,0.5-0.1,0.8-0.2c0.2-0.1,0.4-0.1,0.6-0.2c0.2-0.1,0.4-0.1,0.5-0.2c0.4-0.2,0.6-0.4,0.8-0.6c0.1-0.1,0.3-0.3,0.3-0.4
		c0.1,0,0.1,0.1,0.1,0.1c0,0.1,0.1,0.1,0.1,0.2c0,0,0,0.1,0,0.1c0,0.3-0.2,0.7-0.9,1.1c-0.1,0-0.1,0.1-0.2,0.1
		c-0.1,0-0.1,0.1-0.2,0.1c-0.1,0-0.1,0.1-0.2,0.1c0,0,0,0,0,0c0,0-0.1,0-0.1,0c0,0-0.1,0-0.1,0.1c0,0-0.1,0-0.1,0c0,0,0,0-0.1,0
		c-1.2,0.4-3,0.8-5.8,1c-1.7,0.1-3.7,0.2-6.2,0.2c-0.7,0-1.4,0-2,0c-0.1,0-0.2,0-0.3,0c-8.2-0.1-12.3-0.8-14.3-1.4
		c-0.1,0-0.1-0.1-0.2-0.1c-0.1,0-0.1,0-0.2-0.1c-0.1,0-0.1-0.1-0.2-0.1c-0.1,0-0.2-0.1-0.2-0.1C301.6,149.5,301.3,149.2,301.3,148.9
		C301.3,148.9,301.3,148.9,301.3,148.9z M316.8,36.4v6.8c-0.2-0.6-0.4-1.1-0.8-1.6c-0.9-1.1-2.1-1.8-3.4-2
		C314.1,38.5,315.4,37.5,316.8,36.4z M277.6,62c0.4-0.2,0.8-0.5,1.2-0.7c-0.2,0.5-0.3,0.9-0.3,1.4C278.2,62.5,277.9,62.3,277.6,62z
		 M285.6,68.1c0.3-0.1,0.6-0.2,0.9-0.4c2.6-1.5,3.4-4.8,1.9-7.3c-0.8-1.3-2.1-2.2-3.6-2.4c2.8-1.6,5.5-3.3,8-4.9
		c-0.4,1.4-0.2,2.9,0.6,4.2c1.6,2.5,4.9,3.2,7.4,1.5c2.5-1.6,3.2-5,1.5-7.4c-0.8-1.2-2.1-2-3.5-2.2c2.6-1.7,5.2-3.4,7.5-5.1
		c-0.2,1.3,0.1,2.7,0.9,3.9c1.7,2.4,5,2.9,7.5,1.1c1-0.7,1.6-1.7,1.9-2.7v37C305.8,79.9,295.4,74.8,285.6,68.1z M326.6,85.9
		c-2.9-0.6-5.7-1.4-8.6-2.2V35.5c0.5-0.4,1-0.8,1.5-1.2c-0.1,1.3,0.3,2.5,1.1,3.6c1.8,2.3,5.2,2.6,7.5,0.7c2.3-1.9,2.6-5.4,0.7-7.5
		c-0.9-1-2-1.5-3.2-1.7c4-3.3,6.5-5.7,7.4-6.6c2.7,1.5,5.5,2.8,8.2,4.2c-1.4,0.4-2.6,1.3-3.3,2.7c-1.3,2.6-0.3,5.8,2.4,7.1
		c2.7,1.3,5.9,0.1,7.1-2.5c0.7-1.4,0.6-3,0-4.4c2.9,1.3,5.8,2.6,8.7,3.8c-1.4,0.5-2.7,1.5-3.3,3c-1.2,2.7,0.1,5.8,2.9,6.9
		c2.8,1.1,5.9-0.3,6.9-3c0.6-1.6,0.4-3.2-0.4-4.5c2.3,0.8,4.5,1.6,6.7,2.4v2.7c-0.3,0.4-0.6,0.9-0.8,1.4c-0.6,1.7-0.2,3.4,0.8,4.8
		v23c-4.9,0.3-8.9,2.1-11.7,5.7c-2.8,3.4-4.1,8-4.8,12.5C344.2,88.5,335.5,87.8,326.6,85.9z"/>
	<radialGradient id="SVGID_2_" cx="371.9728" cy="101.0909" r="6.8854" gradientUnits="userSpaceOnUse">
		<stop  offset="0" style="stop-color:#231F20"/>
		<stop  offset="1" style="stop-color:#0D0D0D"/>
	</radialGradient>
	<path class="st1" d="M362.7,102.3c2.1,0.2,4.7,0.3,7.4,0.3c9.3,0,11.1-0.7,11.4-1.1c0.1-0.1,0.1-0.2,0.1-0.2c0,0,0,0,0,0
		c0-0.1,0-0.1,0-0.2c0-0.1,0-0.1-0.1-0.2c0,0,0,0,0-0.1c0-0.1-0.1-0.1-0.2-0.2c-1.4-0.8-7.5-0.9-11.1-0.9c-2.2,0-4.4,0.1-6.3,0.2
		c-0.2,0-0.4,0.2-0.4,0.5c0,0.1,0.1,0.2,0.1,0.2c0.1,0.1,0.2,0.2,0.3,0.2c0,0,0,0,0,0c1.7-0.1,3.7-0.2,5.7-0.2c0.2,0,0.3,0,0.5,0
		c0.2,0,0.4,0,0.5,0c2.9,0,5.2,0.1,6.8,0.2c0.9,0.1,1.6,0.1,2.1,0.2c0.3,0,0.5,0.1,0.7,0.1c-0.1,0-0.3,0.1-0.5,0.1
		c-0.5,0.1-1.1,0.2-1.9,0.2c-1.7,0.1-4.1,0.3-7.7,0.3c-2.7,0-5.2-0.1-7.3-0.3c-0.2,0-0.4,0.2-0.4,0.4c0,0.1,0,0.2,0.1,0.3
		C362.5,102.2,362.6,102.3,362.7,102.3z"/>
	<radialGradient id="SVGID_3_" cx="373.2392" cy="167.5771" r="9.5427" gradientUnits="userSpaceOnUse">
		<stop  offset="0" style="stop-color:#231F20"/>
		<stop  offset="1" style="stop-color:#0D0D0D"/>
	</radialGradient>
	<path class="st2" d="M361,168.9c-0.4-0.1-0.7,0.2-0.8,0.5c0,0.2,0,0.3,0.1,0.5c0.1,0.1,0.2,0.2,0.4,0.3c2.8,0.6,6.5,0.9,10.4,0.9
		c5.2,0,15.2-0.8,15.2-3.7c0-1.5-2.6-2.6-7.6-3.2l-0.1,0c-0.3,0-0.6,0.2-0.6,0.6c0,0.4,0.2,0.7,0.6,0.7c5,0.6,6.5,1.6,6.5,2
		c0,0.7-4.7,2.4-13.9,2.4C367.3,169.7,363.7,169.4,361,168.9z"/>
	<radialGradient id="SVGID_4_" cx="351.0983" cy="159.073" r="6.0628" gradientUnits="userSpaceOnUse">
		<stop  offset="0" style="stop-color:#231F20"/>
		<stop  offset="1" style="stop-color:#0D0D0D"/>
	</radialGradient>
	<path class="st3" d="M350.9,162.3c-0.2-2.1-0.3-5.8-0.3-11c0-0.3-0.3-0.6-0.7-0.6c-0.2,0-0.3,0.1-0.5,0.2c-0.1,0.1-0.2,0.3-0.2,0.5
		c0.1,5.2,0.2,8.9,0.3,11.1c0.1,1.9,0.9,3.5,2.3,4.9c0.1,0.1,0.3,0.2,0.5,0.2c0.2,0,0.3-0.1,0.5-0.2c0.2-0.3,0.2-0.7,0-0.9
		C351.6,165.2,351,163.9,350.9,162.3z"/>
	<radialGradient id="SVGID_5_" cx="387.0887" cy="119.3479" r="3.7678" gradientUnits="userSpaceOnUse">
		<stop  offset="0" style="stop-color:#231F20"/>
		<stop  offset="1" style="stop-color:#0D0D0D"/>
	</radialGradient>
	<path class="st4" d="M386,114.6c-0.3-0.2-0.7-0.2-0.9,0.1c-0.1,0.1-0.2,0.3-0.2,0.5c0,0.2,0.1,0.3,0.2,0.4c1.3,1.2,2.7,2.7,2.8,5.1
		c0,0.6,0,1.6,0.1,2.9c0,0.4,0.3,0.6,0.6,0.6h0h0c0.4,0,0.6-0.3,0.6-0.7c0-1.3,0-2.3-0.1-2.9C389.1,117.8,387.5,116,386,114.6z"/>
	<radialGradient id="SVGID_6_" cx="313.883" cy="208.7057" r="9.5437" gradientUnits="userSpaceOnUse">
		<stop  offset="0" style="stop-color:#231F20"/>
		<stop  offset="1" style="stop-color:#0D0D0D"/>
	</radialGradient>
	<path class="st5" d="M326.2,210c-2.7,0.6-6.3,0.9-10.1,0.9c-9.2,0-13.9-1.7-13.9-2.4c0-0.3,1.5-1.3,6.5-2c0.2,0,0.3-0.1,0.4-0.2
		c0.1-0.1,0.2-0.3,0.1-0.5c0-0.3-0.3-0.6-0.6-0.6l-0.1,0c-5.1,0.6-7.6,1.7-7.6,3.2c0,2.9,9.9,3.7,15.2,3.7c3.9,0,7.6-0.3,10.4-0.9
		c0.2,0,0.3-0.1,0.4-0.3c0.1-0.1,0.1-0.3,0.1-0.5C326.8,210.2,326.5,209.9,326.2,210z"/>
	<radialGradient id="SVGID_7_" cx="336.0246" cy="200.2004" r="6.0643" gradientUnits="userSpaceOnUse">
		<stop  offset="0" style="stop-color:#231F20"/>
		<stop  offset="1" style="stop-color:#0D0D0D"/>
	</radialGradient>
	<path class="st6" d="M334.4,207.5c-0.1,0.1-0.2,0.3-0.2,0.5s0.1,0.3,0.2,0.5c0.1,0.1,0.3,0.2,0.5,0.2c0.2,0,0.3-0.1,0.5-0.2
		c1.4-1.3,2.1-3,2.3-4.9c0.2-2.1,0.3-5.8,0.3-11.1c0-0.2-0.1-0.3-0.2-0.5c-0.1-0.1-0.3-0.2-0.4-0.2c0,0,0,0,0,0l-0.1,0
		c-0.3,0-0.6,0.3-0.6,0.6c-0.1,5.2-0.2,8.9-0.3,11C336.1,205,335.5,206.4,334.4,207.5z"/>
	<radialGradient id="SVGID_8_" cx="300.0325" cy="160.4757" r="3.7686" gradientUnits="userSpaceOnUse">
		<stop  offset="0" style="stop-color:#231F20"/>
		<stop  offset="1" style="stop-color:#0D0D0D"/>
	</radialGradient>
	<path class="st7" d="M298.5,165.3c0.4,0,0.6-0.3,0.6-0.6c0-1.3,0-2.3,0.1-2.9c0.1-2.4,1.4-3.9,2.8-5.1c0.1-0.1,0.2-0.3,0.2-0.4
		c0-0.2,0-0.3-0.2-0.5c-0.2-0.3-0.7-0.3-0.9-0.1c-1.5,1.4-3.1,3.2-3.2,6c0,0.6,0,1.6-0.1,2.9C297.9,165,298.1,165.3,298.5,165.3
		L298.5,165.3z"/>
	<radialGradient id="SVGID_9_" cx="265.0789" cy="199.5842" r="9.5426" gradientUnits="userSpaceOnUse">
		<stop  offset="0" style="stop-color:#231F20"/>
		<stop  offset="1" style="stop-color:#0D0D0D"/>
	</radialGradient>
	<path class="st8" d="M270.5,196.1c-0.4,0-0.7,0.2-0.7,0.6c0,0.4,0.2,0.7,0.6,0.7c5,0.6,6.5,1.6,6.5,2c0,0.7-4.7,2.4-13.9,2.4
		c-3.8,0-7.4-0.3-10.1-0.9c-0.3-0.1-0.7,0.2-0.8,0.5c-0.1,0.3,0.2,0.7,0.5,0.8c2.8,0.6,6.5,0.9,10.4,0.9c5.2,0,15.2-0.8,15.2-3.7
		C278.1,197.9,275.6,196.8,270.5,196.1z"/>
	<radialGradient id="SVGID_10_" cx="242.9369" cy="191.08" r="6.0628" gradientUnits="userSpaceOnUse">
		<stop  offset="0" style="stop-color:#231F20"/>
		<stop  offset="1" style="stop-color:#0D0D0D"/>
	</radialGradient>
	<path class="st9" d="M243.7,199.3c0.1,0.1,0.3,0.2,0.5,0.2c0.2,0,0.3-0.1,0.5-0.2c0.2-0.3,0.2-0.7,0-0.9c-1.1-1.1-1.8-2.5-1.9-4
		c-0.2-2.1-0.3-5.8-0.3-11c0-0.4-0.3-0.6-0.7-0.6c-0.4,0-0.6,0.3-0.6,0.7c0.1,5.2,0.2,8.9,0.3,11.1
		C241.6,196.3,242.3,197.9,243.7,199.3z"/>
	<radialGradient id="SVGID_11_" cx="278.9274" cy="151.354" r="3.7678" gradientUnits="userSpaceOnUse">
		<stop  offset="0" style="stop-color:#231F20"/>
		<stop  offset="1" style="stop-color:#0D0D0D"/>
	</radialGradient>
	<path class="st10" d="M279.7,152.7c0,0.6,0,1.6,0.1,2.9c0,0.4,0.3,0.6,0.6,0.6h0h0c0.2,0,0.3-0.1,0.5-0.2c0.1-0.1,0.2-0.3,0.2-0.5
		c0-1.3,0-2.3-0.1-2.9c-0.1-2.9-1.7-4.7-3.2-6c-0.3-0.2-0.7-0.2-0.9,0.1c-0.1,0.1-0.2,0.3-0.2,0.5c0,0.2,0.1,0.3,0.2,0.4
		C278.3,148.8,279.7,150.3,279.7,152.7z"/>
	<radialGradient id="SVGID_12_" cx="317.4132" cy="181.5657" r="17.8835" gradientUnits="userSpaceOnUse">
		<stop  offset="0" style="stop-color:#231F20"/>
		<stop  offset="1" style="stop-color:#0D0D0D"/>
	</radialGradient>
	<path class="st11" d="M326.3,165c-3.7,0-7.1,1.9-8.9,5.1c-1.8-3.1-5.2-5.1-8.9-5.1c-1.5,0-2.9,0.3-4.3,0.9c-2.7,1.2-4.6,3.3-5.4,6
		c-1,3.1-0.4,6.7,1.7,10.3c2.9,5,7.3,8.8,16.7,15.9c0.1,0.1,0.2,0.1,0.3,0.1c0.1,0,0.2,0,0.3-0.1c3-2.3,5.1-3.9,6.8-5.3
		c0.2-0.2,0.2-0.4,0.1-0.6c-0.1-0.2-0.4-0.2-0.6-0.1c-1.7,1.4-3.7,2.9-6.5,5.1c-9-6.9-13.3-10.6-16.1-15.3c0.1,0.1,0.2,0.1,0.3,0.1
		c0.1,0,0.2,0,0.2-0.1c0.2-0.1,0.3-0.4,0.2-0.6c-1.8-3.2-2.4-6.2-1.5-8.9c0.7-2.2,2.3-3.9,4.5-4.9c1.1-0.5,2.3-0.8,3.6-0.8
		c3.3,0,6.4,1.9,7.7,4.8c0.2,0.4,0.7,0.7,1.1,0.7c0.5,0,0.9-0.3,1.1-0.7c1.4-2.9,4.4-4.8,7.8-4.8c1.2,0,2.5,0.3,3.6,0.8
		c2.2,1,3.8,2.8,4.5,4.9c0.1,0.2,0.3,0.4,0.5,0.3c0.2-0.1,0.3-0.2,0.3-0.4c0.9,2.8,0.3,6.1-1.6,9.5c-0.4,0.7-0.9,1.4-1.4,2.1
		c-0.1,0.2-0.1,0.5,0.1,0.6c0.2,0.1,0.5,0.1,0.6-0.1c0.5-0.7,1-1.4,1.4-2.2c2.1-3.6,2.6-7.2,1.6-10.3c-0.8-2.6-2.8-4.7-5.4-5.9
		C329.2,165.3,327.8,165,326.3,165z"/>
	<radialGradient id="SVGID_13_" cx="260.8657" cy="174.9356" r="17.8831" gradientUnits="userSpaceOnUse">
		<stop  offset="0" style="stop-color:#231F20"/>
		<stop  offset="1" style="stop-color:#0D0D0D"/>
	</radialGradient>
	<path class="st12" d="M245.3,177.7c0.1,0.2,0.4,0.2,0.6,0.1c0.1-0.1,0.2-0.2,0.2-0.3c0-0.1,0-0.2-0.1-0.3c-0.5-0.7-0.9-1.4-1.4-2.1
		c-1.9-3.3-2.5-6.6-1.6-9.5c0,0.2,0.1,0.4,0.3,0.4c0.2,0.1,0.5-0.1,0.5-0.3c0.7-2.2,2.3-3.9,4.5-4.9c1.1-0.5,2.3-0.8,3.6-0.8
		c3.3,0,6.4,1.9,7.7,4.8c0.2,0.4,0.7,0.7,1.1,0.7c0.5,0,0.9-0.3,1.1-0.7c1.4-2.9,4.4-4.8,7.7-4.8c1.2,0,2.4,0.3,3.6,0.8
		c2.2,1,3.8,2.8,4.5,4.9c0.8,2.6,0.3,5.7-1.5,8.9c-0.1,0.1-0.1,0.2,0,0.3c0,0.1,0.1,0.2,0.2,0.3c0.1,0,0.1,0.1,0.2,0.1
		c0.1,0,0.2,0,0.3-0.1c-2.8,4.8-7.1,8.5-16.1,15.3c-2.9-2.2-4.9-3.7-6.5-5.1c-0.2-0.1-0.5-0.1-0.6,0.1c-0.1,0.1-0.1,0.2-0.1,0.3
		c0,0.1,0.1,0.2,0.2,0.3c1.7,1.4,3.8,3,6.8,5.3c0.1,0.1,0.2,0.1,0.3,0.1c0.1,0,0.2,0,0.3-0.1c9.4-7.1,13.8-10.9,16.7-15.9
		c2.1-3.6,2.6-7.2,1.6-10.3c-0.8-2.6-2.8-4.7-5.4-6c-1.4-0.6-2.8-0.9-4.3-0.9c-3.7,0-7.1,1.9-8.9,5.1c-1.8-3.1-5.2-5.1-8.9-5.1
		c-1.5,0-2.9,0.3-4.3,0.9c-2.7,1.2-4.6,3.3-5.4,5.9c-1,3.1-0.4,6.7,1.6,10.3C244.3,176.2,244.8,176.9,245.3,177.7z"/>
</g>
</svg>
