<?xml version="1.0" encoding="utf-8"?>
<!-- Generator: Adobe Illustrator 21.1.0, SVG Export Plug-In . SVG Version: 6.00 Build 0)  -->
<svg version="1.1" id="Layer_1" xmlns="http://www.w3.org/2000/svg" xmlns:xlink="http://www.w3.org/1999/xlink" x="0px" y="0px"
	 viewBox="0 0 432 216" style="enable-background:new 0 0 432 216;" xml:space="preserve">
<style type="text/css">
	.st0{fill:url(#SVGID_1_);}
	.st1{fill:url(#SVGID_2_);}
	.st2{fill:url(#SVGID_3_);}
	.st3{fill:url(#SVGID_4_);}
	.st4{fill:url(#SVGID_5_);}
	.st5{fill:url(#SVGID_6_);}
	.st6{fill:url(#SVGID_7_);}
	.st7{fill:url(#SVGID_8_);}
	.st8{fill:url(#SVGID_9_);}
	.st9{fill:url(#SVGID_10_);}
	.st10{fill:url(#SVGID_11_);}
	.st11{fill:url(#SVGID_12_);}
	.st12{fill:url(#SVGID_13_);}
	.st13{fill:url(#SVGID_14_);}
	.st14{fill:url(#SVGID_15_);}
	.st15{fill:url(#SVGID_16_);}
	.st16{fill:url(#SVGID_17_);}
	.st17{fill:url(#SVGID_18_);}
	.st18{fill:url(#SVGID_19_);}
	.st19{fill:url(#SVGID_20_);}
	.st20{fill:url(#SVGID_21_);}
	.st21{fill:url(#SVGID_22_);}
	.st22{fill:url(#SVGID_23_);}
	.st23{fill:url(#SVGID_24_);}
	.st24{fill:url(#SVGID_25_);}
	.st25{fill:url(#SVGID_26_);}
	.st26{fill:url(#SVGID_27_);}
</style>
<g>
	<radialGradient id="SVGID_1_" cx="216.2697" cy="94.2321" r="159.3949" gradientUnits="userSpaceOnUse">
		<stop  offset="0" style="stop-color:#231F20"/>
		<stop  offset="1" style="stop-color:#0D0D0D"/>
	</radialGradient>
	<path class="st0" d="M2.7,31.9C2.2,32.5,2,33.2,2,34c0,1,0.5,1.8,1.2,2.5c0.7,0.6,1.5,0.9,2.3,0.9c0.9,0,1.7-0.3,2.3-0.9
		c0.6,0.5,1.2,1,1.9,1.5c-0.4,0.7-0.6,1.4-0.5,2.2c0.1,0.9,0.6,1.8,1.4,2.4c0.6,0.5,1.4,0.7,2.1,0.7c1,0,1.9-0.4,2.5-1.1
		c0.6,0.5,1.3,0.9,2,1.4c-0.3,0.7-0.5,1.5-0.3,2.2c0.2,0.9,0.7,1.7,1.6,2.3c0.6,0.4,1.2,0.6,1.9,0.6c1.1,0,2-0.5,2.7-1.3
		c0.7,0.4,1.4,0.8,2.1,1.2c-0.3,0.7-0.4,1.5-0.1,2.2c0.3,0.9,0.9,1.7,1.7,2.1c0.5,0.3,1.1,0.4,1.7,0.4c1.2,0,2.2-0.6,2.8-1.5
		c0.7,0.4,1.4,0.7,2.2,1.1c-0.2,0.7-0.2,1.5,0,2.2c0.3,0.9,1,1.6,1.9,2c0.5,0.2,0.9,0.3,1.4,0.3c1.3,0,2.4-0.7,3-1.8
		c0.7,0.3,1.5,0.6,2.3,0.9c-0.2,0.7-0.1,1.5,0.2,2.2c0.4,0.9,1.2,1.5,2.1,1.8c0.4,0.1,0.8,0.2,1.1,0.2c1.4,0,2.6-0.8,3.1-2
		c0.8,0.2,1.5,0.4,2.3,0.7c-0.1,0.8,0,1.5,0.4,2.2c0.5,0.8,1.3,1.4,2.2,1.6c0.3,0.1,0.5,0.1,0.8,0.1c1.5,0,2.8-1,3.3-2.3
		c0.8,0.1,1.6,0.3,2.4,0.4c0,0.8,0.2,1.5,0.7,2.1c0.6,0.8,1.4,1.3,2.4,1.4c0.1,0,0.3,0,0.4,0c1.6,0,3-1.1,3.4-2.7
		c0.3,0,0.7,0.1,1,0.1v44.6c-2.5,0-4.5,0.9-5.9,2.7c-3.8,4.7-2.5,13.9-2.2,15.7c-0.1,0-0.1,0.1-0.2,0.2c0,0,0,0.1-0.1,0.2
		c0,0,0,0,0,0.1c0,0.2-0.1,0.3,0,0.5c0,0.2,0.1,0.6,1,1c0,0.4-0.1,0.8-0.1,1c-0.2,0.3-0.6,0.7-1,1c-0.9,0.8-2.1,1.8-2.2,3.6
		c-0.1,2.7-0.3,17.9,0.1,22.1c0,0,0,0.1,0,0.1c0.6,3.9,6.5,4.7,11.3,4.7c2.7,0,10.8,0,11.2-4.8c0-0.2,0-0.5,0-0.8
		c0.1-2,0.1-5.5,0.1-9.1c0-4.1,0-8.3-0.1-10.7c0-0.7,0-1.2,0-1.5c0-1.8-1.3-2.8-2.3-3.7c-0.2-0.2-0.4-0.3-0.5-0.5
		c-0.2-0.2-0.3-0.3-0.4-0.4c-0.1-0.1-0.1-0.5-0.2-0.9c0.5-0.3,0.8-0.6,0.9-1.1c0-0.3-0.2-0.6-0.4-0.7c0.3-1.6,1.8-10.8-2.2-15.6
		c-1.4-1.8-3.4-2.8-5.9-2.9V62.3c0.2,0,0.3,0,0.5,0c0.1,0.7,0.4,1.5,0.9,2c0.7,0.7,1.6,1.1,2.5,1.1c0,0,0,0,0,0c1,0,1.9-0.4,2.5-1.1
		c0.5-0.6,0.8-1.2,0.9-2c0.8,0,1.6,0,2.4-0.1c0.3,1.6,1.7,2.7,3.4,2.7c0.1,0,0.2,0,0.4,0c0.8-0.1,1.6-0.5,2.1-1
		c0.1,0.1,0.2,0.1,0.3,0.2c-0.1,0.8,0.1,1.7,0.8,2.4c0.9,0.9,2.4,1.1,3.4,0.4c0.6,0.4,1.3,0.8,1.9,1.2c-0.5,0.1-1,0.4-1.4,0.8
		c-1.1,1.2-1,3,0.3,4.1c1.3,1.1,3.2,1,4.2-0.3c0.6-0.7,0.8-1.7,0.6-2.5c1.4,0.8,2.8,1.6,4.2,2.3c-0.5,0.2-0.9,0.5-1.3,0.9
		c-1,1.3-0.7,3.1,0.7,4.1c1.4,1,3.3,0.7,4.1-0.6c0.5-0.7,0.6-1.6,0.4-2.4c1.2,0.6,2.4,1.1,3.6,1.6v15.8c-2.5,0-4.4,0.9-5.8,2.6
		c-3.9,4.7-2.5,14-2.2,15.8c-0.1,0-0.1,0.1-0.2,0.2c0,0,0,0.1-0.1,0.2c0,0,0,0,0,0.1c0,0,0,0,0,0c-0.1-0.2-0.3-0.3-0.4-0.3
		c-0.2,0-0.4,0.3-0.3,0.5c0.1,0.7,0.6,1.2,1.1,1.2c0.1,0,0.1,0,0.2,0c0.1,0,0.1,0,0.1-0.1c0.1,0,0.2,0.1,0.3,0.1
		c0,0.4-0.1,0.8-0.1,1c-0.2,0.3-0.6,0.7-1,1c-0.9,0.8-2.1,1.8-2.2,3.6c-0.1,2.7-0.3,17.9,0.1,22.1c0,0,0,0.1,0,0.1
		c0.6,3.9,6.5,4.7,11.3,4.7c2.7,0,10.8,0,11.2-4.8c0.3-4.2,0.1-19.4,0.1-22.1c0-0.7-0.2-1.3-0.5-1.7c-0.1-0.2-0.2-0.4-0.4-0.6
		c-0.4-0.5-0.9-1-1.4-1.3c-0.1-0.1-0.2-0.2-0.4-0.3c-0.2-0.2-0.5-0.4-0.6-0.6c-0.1-0.1-0.1-0.5-0.2-0.9c0.1,0,0.2-0.1,0.3-0.1
		c0,0,0.1,0,0.1,0.1c0.1,0,0.1,0,0.2,0c0.5,0,1-0.5,1.1-1.2c0-0.2-0.1-0.5-0.3-0.5c-0.2,0-0.5,0.1-0.5,0.3c0,0,0,0,0,0.1
		c0,0,0,0,0-0.1v0c0,0,0,0,0,0c-0.1-0.1-0.2-0.3-0.3-0.3c0.3-1.6,1.8-10.8-2.2-15.6c-1.4-1.8-3.4-2.8-5.9-2.9V76.7
		c3.3,1.4,6.6,2.6,9.9,3.6c0.2,0.8,0.7,1.6,1.5,2c1.2,0.6,2.6,0.3,3.4-0.7c0.7,0.2,1.5,0.4,2.2,0.5c-0.4,0.3-0.8,0.7-1,1.2
		c-0.6,1.5,0.1,3.2,1.7,3.8c1.6,0.6,3.4-0.2,3.9-1.7c0.3-0.9,0.1-1.8-0.4-2.6c1.6,0.3,3.2,0.5,4.8,0.7c-0.4,0.3-0.7,0.8-0.8,1.3
		c-0.5,1.5,0.5,3.2,2.1,3.6c1.7,0.4,3.3-0.6,3.6-2.1c0.2-0.9-0.1-1.7-0.6-2.4c1.5,0.1,3.1,0.1,4.6,0.1c1.8,0,3.6-0.1,5.4-0.2
		c1.8-0.1,3.6-0.3,5.4-0.5c0.5,0.7,1.3,1.2,2.2,1.2c1.4,0.1,2.5-0.8,2.8-2.1c0.7-0.1,1.5-0.3,2.2-0.5c-0.3,0.5-0.5,1-0.5,1.6
		c0,1.6,1.4,2.9,3.1,2.7c1.7-0.1,3-1.6,2.8-3.1c-0.1-1-0.7-1.8-1.5-2.2c1.6-0.4,3.2-0.9,4.7-1.4c-0.2,0.5-0.3,1.1-0.2,1.6
		c0.2,1.6,1.7,2.7,3.4,2.4c1.7-0.3,2.8-1.9,2.4-3.4c-0.2-0.9-0.8-1.6-1.6-2c1.3-0.5,2.6-1,3.9-1.6V92c-2.4,0-4.4,0.9-5.9,2.6
		c-3.9,4.6-2.5,13.9-2.2,15.8c-0.1,0-0.1,0.1-0.2,0.2c0,0,0,0.1-0.1,0.2c0,0,0,0,0,0.1c0,0,0,0,0,0c-0.1-0.1-0.2-0.3-0.4-0.3
		c0,0-0.1,0-0.1,0c-0.1,0-0.2,0.1-0.3,0.2c-0.1,0.1-0.1,0.2-0.1,0.3c0.1,0.7,0.6,1.2,1.1,1.2c0.1,0,0.1,0,0.2,0c0.1,0,0.1,0,0.1-0.1
		c0.1,0,0.2,0.1,0.3,0.1c0,0.4-0.1,0.8-0.1,1c-0.2,0.3-0.6,0.7-1,1c-0.9,0.8-2.1,1.8-2.2,3.6c-0.1,2.7-0.3,17.9,0.1,22.1
		c0,0,0,0.1,0,0.1c0.6,3.9,6.5,4.7,11.3,4.7c2.7,0,10.8,0,11.2-4.8c0.1-1.8,0.2-5.8,0.2-9.9c0-4.1,0-8.3-0.1-10.7c0-0.7,0-1.2,0-1.5
		c0-0.7-0.2-1.3-0.5-1.7c-0.1-0.2-0.2-0.4-0.4-0.6c-0.4-0.5-0.9-1-1.4-1.3c-0.2-0.2-0.4-0.3-0.5-0.5c-0.2-0.2-0.3-0.3-0.4-0.4
		c0,0,0,0,0,0c-0.1-0.1-0.1-0.5-0.2-0.9c0.1,0,0.2-0.1,0.3-0.1c0,0,0.1,0,0.1,0.1c0.1,0,0.1,0,0.2,0c0.5,0,1-0.5,1.1-1.2
		c0-0.1,0-0.2-0.1-0.3c-0.1-0.1-0.2-0.2-0.3-0.2c-0.2,0-0.5,0.1-0.5,0.3c0,0,0,0,0,0.1c0,0,0,0,0-0.1v0c0,0,0,0,0,0
		c-0.1-0.2-0.2-0.3-0.3-0.4c0.3-1.6,1.8-10.8-2.2-15.6c-1.4-1.8-3.4-2.8-5.9-2.9V76.2c1-0.4,2-0.9,3-1.4c0,0,0.1,0,0.1-0.1
		c2.1-1,4.2-2,6.1-3.1c0.7,0.5,1.6,0.7,2.5,0.3c1.3-0.4,2-1.7,1.9-3c0.6-0.4,1.3-0.8,1.9-1.2c-0.1,0.5-0.1,1.1,0.1,1.7
		c0.6,1.5,2.3,2.2,3.9,1.5c1.5-0.7,2.2-2.5,1.6-3.9c-0.4-0.9-1.2-1.4-2.1-1.6c1.4-0.9,2.7-1.9,3.9-2.8c0,0.5,0,1.1,0.3,1.6
		c0.7,1.4,2.5,2,4,1.2c0.3-0.2,0.6-0.4,0.9-0.7c0.2,0.1,0.5,0.1,0.7,0.2c0.1,0,0.3,0,0.4,0c1.6,0,3-1.1,3.4-2.7
		c0.8,0.1,1.6,0.1,2.4,0.2c0.1,0.7,0.4,1.5,0.9,2c0.7,0.7,1.6,1.1,2.5,1.1c0,0,0,0,0,0c1,0,1.9-0.4,2.5-1.1c0.5-0.6,0.8-1.2,0.9-2
		c0.8,0,1.6,0,2.4-0.1c0.3,1.6,1.7,2.7,3.4,2.7c0.1,0,0.2,0,0.4,0c1-0.1,1.8-0.6,2.4-1.3c0.5-0.6,0.7-1.3,0.7-2.1
		c0.8-0.1,1.6-0.2,2.4-0.3c0.5,1.4,1.8,2.4,3.3,2.4c0.3,0,0.5,0,0.8-0.1c1-0.2,1.8-0.8,2.3-1.6c0.4-0.7,0.6-1.4,0.5-2.2
		c0.2,0,0.4-0.1,0.5-0.1V74c-2.5,0.2-4.5,1.1-5.9,2.9c-3.9,4.9-2.4,14.1-2.2,15.6c-0.1,0.1-0.1,0.1-0.2,0.2c0,0,0,0,0,0
		c0,0-0.1,0.1-0.1,0.1c0,0,0,0,0,0c0,0,0,0,0,0.1c0,0,0-0.1,0-0.1c0-0.2-0.2-0.3-0.4-0.3c0,0-0.1,0-0.1,0c-0.1,0-0.2,0.1-0.3,0.2
		c-0.1,0.1-0.1,0.2-0.1,0.3c0.1,0.4,0.3,0.8,0.6,1c0.2,0.1,0.3,0.2,0.5,0.2c0.1,0,0.1,0,0.2,0c0,0,0.1,0,0.1,0
		c0.1,0.1,0.2,0.1,0.3,0.2c0,0.4-0.1,0.8-0.2,0.9c-0.2,0.3-0.6,0.6-1,0.9c-1,0.8-2.2,1.8-2.2,3.7c0,0.8-0.1,2.9-0.1,5.5
		c0,2.1,0,4.4,0,6.8c0,0.5,0,1,0,1.5c0,3.5,0.1,6.7,0.2,8.3c0.4,4.8,8.5,4.8,11.2,4.8c4.8,0,10.6-0.8,11.3-4.7c0,0,0-0.1,0-0.1
		c0.3-4.2,0.1-19.4,0.1-22.1c0-1.8-1.2-2.8-2.2-3.6c-0.4-0.3-0.8-0.7-1-1c-0.1-0.1-0.1-0.5-0.1-1c0.1,0,0.2-0.1,0.3-0.1
		c0.1,0,0.1,0.1,0.1,0.1c0.1,0,0.1,0,0.2,0c0.3,0,0.5-0.1,0.7-0.3c0.2-0.2,0.4-0.5,0.4-0.8c0-0.1,0-0.2-0.1-0.3
		c-0.1-0.1-0.2-0.2-0.3-0.2c-0.2,0-0.4,0.1-0.4,0.3c0,0,0,0,0,0c0,0,0-0.1,0-0.1c0,0,0-0.1-0.1-0.1c-0.1-0.1-0.1-0.1-0.2-0.2
		c0.3-1.9,1.7-11.1-2.2-15.8c-1.4-1.7-3.4-2.6-5.9-2.6V59.4c0.3-0.1,0.6-0.2,0.9-0.3c0.5,1.2,1.8,2,3.1,2c0.4,0,0.8-0.1,1.1-0.2
		c0.9-0.3,1.7-1,2.1-1.8c0.3-0.7,0.4-1.5,0.2-2.2c0.8-0.3,1.5-0.5,2.3-0.9c0.6,1,1.7,1.7,2.9,1.7c0.3,0,0.5,0,0.8-0.1
		c0.8,0.1,1.6-0.1,2.2-0.7c0.7-0.6,1-1.4,1-2.3c4.1,3.4,8.1,6.6,12.2,9.4c-0.1,0.8,0.1,1.7,0.8,2.4c0.9,0.9,2.4,1.1,3.5,0.4
		c0.6,0.4,1.3,0.8,1.9,1.2c-0.5,0.1-1,0.4-1.4,0.8c-1.1,1.2-1,3,0.3,4.1c1.3,1.1,3.2,1,4.2-0.3c0.6-0.7,0.8-1.7,0.6-2.5
		c1.4,0.8,2.8,1.6,4.2,2.3c-0.5,0.2-0.9,0.5-1.3,0.9c-1,1.3-0.7,3.1,0.7,4.1c1.4,1,3.3,0.7,4.1-0.6c0.5-0.7,0.6-1.6,0.4-2.4
		c4.8,2.3,9.6,4.1,14.4,5.6c0.2,0.8,0.7,1.6,1.5,2c1.2,0.6,2.6,0.3,3.4-0.7c0.7,0.2,1.5,0.4,2.2,0.5c-0.4,0.3-0.8,0.7-1,1.2
		c-0.6,1.5,0.1,3.2,1.7,3.8c1.6,0.6,3.4-0.2,3.9-1.7c0.3-0.9,0.1-1.8-0.4-2.6c1.6,0.3,3.2,0.5,4.8,0.7c-0.4,0.3-0.7,0.8-0.8,1.3
		c-0.5,1.5,0.5,3.2,2.1,3.6c1.7,0.4,3.3-0.6,3.6-2.1c0.2-0.9-0.1-1.7-0.6-2.4c1.5,0.1,3.1,0.1,4.6,0.1c1.8,0,3.6-0.1,5.4-0.2
		c1.8-0.1,3.6-0.3,5.4-0.5c0.5,0.7,1.3,1.2,2.2,1.2c1.4,0.1,2.5-0.8,2.8-2.1c0.7-0.1,1.5-0.3,2.2-0.5c-0.3,0.5-0.5,1-0.5,1.6
		c0,1.1,0.7,2.1,1.8,2.5v13.5c-2.5,0.2-4.5,1.1-5.9,2.9c-3.9,4.9-2.4,14.1-2.2,15.6c-0.1,0-0.1,0.1-0.2,0.2c0,0,0,0,0,0
		c0,0,0,0.1-0.1,0.1c0,0,0,0,0,0c0,0,0,0,0,0c0,0.1-0.1,0.2-0.1,0.4c0,0.4,0.3,0.7,0.9,1c0,0.4-0.1,0.8-0.2,0.9
		c-0.2,0.3-0.6,0.6-1,0.9c-1,0.8-2.2,1.8-2.2,3.7c0,0.5,0,1.4,0,2.7c0,2.5-0.1,6.1-0.1,9.6c0,4.1,0,8,0.2,9.8
		c0.4,4.8,8.5,4.8,11.2,4.8c4.8,0,10.6-0.8,11.3-4.7c0,0,0-0.1,0-0.1c0.3-4.1,0.1-19.5,0.1-22.1c0-1.8-1.2-2.8-2.2-3.6
		c-0.4-0.3-0.8-0.7-1-1c-0.1-0.1-0.1-0.5-0.1-1c0.9-0.4,0.9-0.7,1-0.9c0-0.2,0-0.4,0-0.5c0,0,0-0.1,0-0.1c0,0,0-0.1-0.1-0.1
		c-0.1-0.1-0.1-0.1-0.2-0.2c0.3-1.9,1.7-11.1-2.2-15.8c-1.4-1.7-3.4-2.6-5.9-2.7V86.4c0.2,0,0.3,0,0.5,0c1.7-0.1,3-1.6,2.8-3.1
		c-0.1-1-0.7-1.8-1.5-2.2c1.6-0.4,3.2-0.9,4.7-1.4c-0.2,0.5-0.3,1.1-0.2,1.6c0.2,1.6,1.7,2.7,3.4,2.4c1.7-0.3,2.8-1.9,2.4-3.4
		c-0.2-0.9-0.8-1.6-1.6-2c4.9-1.9,9.6-4.1,14-6.5c0.7,0.5,1.6,0.7,2.5,0.3c1.3-0.4,2-1.7,1.9-3c0.6-0.4,1.3-0.8,1.9-1.2
		c-0.1,0.5-0.1,1.1,0.1,1.7c0.6,1.5,2.3,2.2,3.9,1.5c1.5-0.7,2.2-2.5,1.6-3.9c-0.4-0.9-1.2-1.4-2.1-1.6c1.4-0.9,2.7-1.9,3.9-2.8
		c0,0.5,0,1.1,0.3,1.6c0.7,1.4,2.5,2,4,1.2c1.5-0.8,2-2.6,1.2-4c-0.2-0.3-0.4-0.6-0.7-0.8c0.5-0.3,1-0.8,1.3-1.4
		c0.3-0.5,0.4-1.1,0.3-1.7c0.4-0.3,0.8-0.7,1.1-1c0.4-0.1,0.7-0.3,1.1-0.4c0.6,1,1.7,1.7,2.9,1.7c0.5,0,1-0.1,1.5-0.3
		c0.9-0.4,1.6-1.1,1.9-2c0.3-0.7,0.3-1.5,0-2.2c0.7-0.4,1.5-0.7,2.2-1.1c0.6,0.9,1.6,1.4,2.8,1.4c0.6,0,1.2-0.2,1.7-0.5
		c0.8-0.5,1.5-1.2,1.7-2.2c0.2-0.7,0.1-1.5-0.2-2.2c0.7-0.4,1.4-0.8,2.1-1.3c0.6,0.8,1.6,1.2,2.6,1.2c0.7,0,1.4-0.2,2-0.6
		c0.8-0.5,1.3-1.4,1.5-2.3c0.1-0.8,0-1.5-0.3-2.2c0.6-0.5,1.3-0.9,1.9-1.4c0.6,0.6,1.5,1,2.4,1c0.8,0,1.6-0.3,2.2-0.8
		c0.8-0.6,1.2-1.5,1.3-2.4c0.1-0.8-0.1-1.5-0.5-2.1c0.6-0.5,1.2-1,1.8-1.6c0.6,0.5,1.4,0.9,2.3,0.9c0.9,0,1.7-0.3,2.4-0.9
		c0.7-0.6,1.1-1.5,1.2-2.5c0-0.8-0.2-1.5-0.6-2.1c0.7-0.6,1.3-1.2,2-1.9c0.2-0.2,0.2-0.5,0-0.7c-0.2-0.2-0.5-0.2-0.7,0
		c-0.7,0.6-1.3,1.2-2,1.9c-1.3-1-3.3-1-4.5,0.1c-1.3,1.1-1.5,3.1-0.6,4.5c-0.6,0.5-1.2,1-1.8,1.6c-1.2-1.1-3.2-1.2-4.5-0.2
		c-1.3,1.1-1.7,2.9-0.9,4.4c-0.6,0.5-1.3,1-1.9,1.4c-1.2-1.2-3.1-1.4-4.5-0.5c-0.1,0.1-0.3,0.2-0.4,0.3c-0.1-0.2-0.2-0.3-0.3-0.5
		c-0.6-0.7-1.5-1.1-2.4-1c1.1-1.3,2.2-2.6,3.1-3.7c0.1,0.5,0.3,1,0.7,1.4c1,1.2,2.9,1.3,4.1,0.2c1.2-1.1,1.3-3,0.2-4.2
		c-0.6-0.6-1.5-0.9-2.3-0.9c2-2.6,3-4.2,3.1-4.2c0.1-0.2,0.1-0.5-0.1-0.7c-0.2-0.1-0.5-0.1-0.7,0.1c-0.1,0.1-4.6,7-12.9,15.8
		c-1-1.1-2.6-1.4-3.8-0.5c-1.3,0.9-1.6,2.6-0.7,4c0.2,0.3,0.4,0.5,0.6,0.6c-0.6,0.6-1.2,1.2-1.8,1.7c-0.6-0.1-1.3-0.1-1.9,0.2
		c0-0.1,0-0.1-0.1-0.2c-0.8-1.4-2.6-1.8-3.9-1c-1.3,0.8-1.8,2.5-1,3.9c0.5,0.9,1.3,1.4,2.2,1.5c-0.2,0.1-0.3,0.3-0.5,0.4
		c-0.3,0.1-0.7,0.2-1,0.4c-0.8-1.4-2.6-2.2-4.2-1.7c-1.6,0.5-2.6,2.2-2.4,3.8c-0.8,0.2-1.5,0.4-2.3,0.6c-0.6-1.5-2.3-2.5-4-2.1
		c-1.7,0.4-2.8,1.9-2.8,3.5c-0.8,0.1-1.6,0.3-2.3,0.4c-0.5-1.6-2-2.7-3.7-2.6c-1.7,0.2-3,1.5-3.1,3.2c-0.8,0-1.6,0.1-2.4,0.1
		c-0.3-1.7-1.7-2.9-3.4-3c-1.7,0-3.1,1.2-3.4,2.9c-0.8,0-1.6-0.1-2.4-0.2c-0.1-1.7-1.4-3.1-3.1-3.3c-1.7-0.2-3.3,0.9-3.8,2.5
		c-0.8-0.1-1.6-0.3-2.3-0.4c0.1-1.7-1-3.2-2.7-3.6c-1.6-0.4-3.3,0.5-4,2.1c-0.8-0.2-1.5-0.4-2.3-0.7c0.2-1.7-0.7-3.3-2.3-3.8
		c-1.6-0.5-3.4,0.2-4.2,1.7c-0.8-0.3-1.5-0.6-2.2-0.9c0.4-1.6-0.4-3.3-2-4c-1.5-0.7-3.4-0.1-4.3,1.3c-0.7-0.3-1.5-0.7-2.2-1
		c0.4-1.2,0.1-2.4-0.6-3.3c0.2,0,0.4,0,0.7-0.1c0.9-0.2,1.6-0.8,1.9-1.5c1.9-0.5,3.9-1,5.8-1.6c0.7,0.5,1.6,0.6,2.5,0.3
		c0.9-0.3,1.5-0.9,1.8-1.7c6.7-2.2,13.6-5,20.6-8.5c0.8,0.3,1.6,0.3,2.4-0.1c0.8-0.4,1.3-1.1,1.5-1.9c1.5-0.8,3-1.6,4.6-2.5
		c0.2-0.1,0.3-0.4,0.2-0.7c-0.1-0.2-0.4-0.3-0.7-0.2c-1.3,0.8-2.7,1.5-4,2.2c0-0.3-0.1-0.6-0.3-1c-0.8-1.4-2.5-2-4-1.3
		c-1.4,0.7-2,2.5-1.3,4c0.1,0.3,0.4,0.6,0.6,0.8c-6.6,3.2-13.1,5.9-19.4,8c0-0.3,0-0.6-0.1-0.9c-0.5-1.6-2.2-2.4-3.7-1.9
		c-1.5,0.5-2.4,2.1-1.9,3.7c0.1,0.3,0.2,0.6,0.4,0.9c-1.6,0.5-3.2,0.9-4.7,1.3c0-0.3,0-0.6-0.1-0.9c-0.4-1.6-2-2.5-3.5-2.2
		c-1.5,0.4-2.5,1.9-2.2,3.5c0.1,0.3,0.2,0.6,0.4,0.9c-1.4,0.3-2.7,0.6-4.1,0.8c-0.3-0.2-0.6-0.3-0.9-0.5c0.6-1.5,0.1-3.4-1.3-4.3
		c-1.4-0.9-3.3-0.6-4.5,0.6c-0.7-0.5-1.3-0.9-2-1.4c0.7-1.5,0.4-3.4-1-4.4c-1.3-1-3.3-0.8-4.5,0.3c-0.7-0.5-1.3-1-1.9-1.5
		c0.9-1.4,0.6-3.3-0.6-4.5c-1.2-1.1-3.2-1.1-4.5-0.1c-1.2-1.2-1.9-1.9-1.9-1.9c-0.1-0.1-0.3-0.1-0.4-0.1c-0.2,0-0.3,0-0.4,0.1
		c-0.7,0.6-1.3,1.2-2,1.9c-1.3-1-3.3-1-4.5,0.1c-1.3,1.1-1.5,3.1-0.6,4.5c-0.6,0.5-1.2,1-1.8,1.6c-1.2-1.1-3.2-1.2-4.5-0.2
		c-1.3,1.1-1.7,2.9-0.9,4.4c-0.6,0.5-1.3,1-1.9,1.4c-1.1-1.1-2.8-1.4-4.1-0.7c-0.4-0.8-1.2-1.4-2.1-1.6c-1.5-0.2-3,0.8-3.3,2.4
		c-0.3,1.6,0.7,3.2,2.3,3.4c0.5,0.1,0.9,0,1.3-0.1c0,0.1,0.1,0.3,0.2,0.4c-0.4,0.3-0.8,0.5-1.2,0.7c-0.6-0.1-1.2-0.2-1.8-0.3
		c-0.7-0.4-1.5-0.5-2.3-0.4c-0.8-0.1-1.5-0.3-2.2-0.4c0.2-0.3,0.3-0.6,0.4-0.9c0.3-1.6-0.7-3.2-2.2-3.5c-1.5-0.4-3.1,0.6-3.5,2.2
		c-0.1,0.3-0.1,0.7-0.1,1c-1.6-0.4-3.2-0.8-4.8-1.3c0.2-0.3,0.3-0.6,0.4-0.9c0.4-1.6-0.4-3.2-1.9-3.7c-0.2-0.1-0.4-0.1-0.7-0.1
		c-0.9-0.6-2.1-0.6-3.1,0c-0.3,0.2-0.5,0.4-0.7,0.6c-1.1-1.1-2.1-2.2-3.2-3.4c0.5,0,1-0.1,1.5-0.4c1.4-0.8,1.8-2.6,1-3.9
		c-0.8-1.3-2.5-1.8-3.9-1c-0.9,0.5-1.4,1.3-1.5,2.3c-1.2-1.3-2.3-2.6-3.5-3.9c0,0,0,0,0,0c0,0,0-0.1-0.1-0.1c-0.1,0-0.1-0.1-0.2-0.1
		c0,0,0,0,0,0c-0.1,0-0.2,0-0.3,0.1c0,0,0,0,0,0c0,0,0,0,0,0c0,0-0.1,0-0.1,0.1c0,0-0.3,0.4-0.7,1c-1.3-0.3-2.7,0.4-3.3,1.7
		c-0.4,0.9-0.4,1.9,0.1,2.7c-0.3,0.4-0.6,0.8-1,1.3c-1.3-0.6-2.5-1.2-3.6-1.7c0.2-0.2,0.4-0.5,0.6-0.8c0.7-1.5,0.2-3.2-1.2-4
		c-1.4-0.7-3.1-0.2-4,1.2c-0.2,0.3-0.3,0.6-0.3,0.9c-1.8-1-3-1.8-3.6-2.2c0,0,0,0,0,0c-0.1-0.2-0.4-0.3-0.6-0.2
		c-0.2,0-0.3,0-0.4,0.2c0,0,0,0,0,0c-1.2,0.7-2.5,1.4-3.7,2c0-0.3-0.1-0.6-0.3-1c-0.8-1.4-2.5-2-4-1.3c-1.4,0.7-2,2.5-1.3,4
		c0.1,0.3,0.4,0.6,0.6,0.8c-6.6,3.2-13.1,5.9-19.4,8c0-0.3,0-0.6-0.1-0.9c-0.5-1.6-2.2-2.4-3.7-1.9c-1.5,0.5-2.4,2.1-1.9,3.7
		c0.1,0.3,0.2,0.6,0.4,0.9c-1.6,0.5-3.2,0.9-4.7,1.3c0-0.3,0-0.6-0.1-0.9c-0.4-1.6-2-2.5-3.5-2.2c-1.5,0.4-2.5,1.9-2.2,3.5
		c0.1,0.3,0.2,0.6,0.4,0.9c-0.9,0.2-1.7,0.4-2.6,0.5c-0.1-0.1-0.3-0.2-0.4-0.2c0.6-1.5,0.1-3.4-1.3-4.3c-1.4-0.9-3.3-0.6-4.5,0.6
		c-0.7-0.5-1.3-0.9-2-1.4c0.7-1.5,0.4-3.4-1-4.4c-1.3-1-3.3-0.8-4.5,0.3c-0.7-0.5-1.3-1-1.9-1.5c0.9-1.4,0.6-3.3-0.6-4.5
		c-1.2-1.1-3.2-1.1-4.5-0.1c-1.2-1.2-1.9-1.9-1.9-1.9c-0.1-0.1-0.3-0.1-0.4-0.1c-0.2,0-0.3,0-0.4,0.1c-0.7,0.6-1.3,1.2-2,1.9
		c-1.3-1-3.3-1-4.5,0.1c-1.3,1.1-1.5,3.1-0.6,4.5c-0.6,0.5-1.2,1-1.8,1.6c-1.2-1.1-3.2-1.2-4.5-0.2c-1.3,1.1-1.7,2.9-0.9,4.4
		c-0.6,0.5-1.3,1-1.9,1.4c-1.2-1.2-3.1-1.4-4.5-0.5c-1.4,1-1.9,2.8-1.2,4.4c-0.5,0.3-1.1,0.6-1.6,1c-0.3,0-0.5-0.1-0.8-0.1
		c-1-0.9-2.5-1.1-3.7-0.6c-1.2-0.2-2.3-0.4-3.4-0.7c0.2-0.3,0.3-0.6,0.4-0.9c0.3-1.6-0.7-3.2-2.2-3.5c-1.5-0.4-3.1,0.6-3.5,2.2
		c-0.1,0.3-0.1,0.7-0.1,1c-1.6-0.4-3.2-0.8-4.8-1.3c0.2-0.3,0.3-0.6,0.4-0.9c0.4-1.6-0.4-3.2-1.9-3.7c-1.5-0.5-3.1,0.4-3.7,1.9
		c-0.1,0.3-0.1,0.7-0.1,1c-8.1-2.6-14.6-5.6-19.4-8c0.2-0.2,0.4-0.5,0.6-0.8c0.7-1.5,0.2-3.2-1.2-4c-1.4-0.7-3.1-0.2-4,1.2
		c-0.2,0.3-0.3,0.6-0.3,0.9c-2.5-1.4-3.8-2.3-3.9-2.4c-0.2-0.2-0.5-0.1-0.7,0.1c-0.2,0.2-0.1,0.5,0.1,0.7c0,0,1.6,1.1,4.5,2.7
		c0.2,0.8,0.7,1.5,1.5,1.9c0.8,0.4,1.7,0.4,2.4,0.1c5,2.5,12,5.7,20.6,8.5c0.3,0.7,1,1.4,1.8,1.6c0.9,0.3,1.7,0.1,2.4-0.3
		c1.9,0.6,3.9,1.1,5.9,1.6c0.4,0.7,1.1,1.3,1.9,1.5c0.9,0.2,1.7,0,2.4-0.5c1,0.2,2,0.4,3.1,0.6c-0.9,0.9-1.2,2.3-0.8,3.6
		c-0.7,0.4-1.4,0.7-2.1,1.1c-0.9-1.3-2.8-1.9-4.3-1.3c-1.6,0.7-2.4,2.4-2,4.1c-0.7,0.3-1.5,0.6-2.2,0.9c-0.8-1.4-2.6-2.2-4.2-1.7
		c-1.6,0.5-2.6,2.2-2.4,3.8c-0.8,0.2-1.5,0.4-2.3,0.6c-0.6-1.5-2.3-2.5-4-2.1c-1.7,0.4-2.8,1.9-2.8,3.5c-0.8,0.1-1.6,0.3-2.3,0.4
		c-0.3-1-0.9-1.7-1.8-2.2c0.3-0.9,0.1-1.9-0.5-2.7c-1-1.2-2.8-1.3-4-0.3c-0.8,0.6-1.1,1.5-1,2.5c-5.3-4.2-10.7-8.9-16-14.2
		c1.2-0.9,1.4-2.6,0.6-3.8c-0.8-1.3-2.6-1.7-4-0.8c-0.3,0.2-0.5,0.4-0.7,0.6c-1.1-1.1-2.1-2.2-3.2-3.4c0.5,0,1-0.1,1.5-0.4
		c1.4-0.8,1.8-2.6,1-3.9c-0.8-1.3-2.5-1.8-3.9-1c-0.9,0.5-1.4,1.3-1.5,2.3c-1.2-1.3-2.3-2.6-3.5-3.9c-0.2-0.2-0.5-0.2-0.7-0.1
		c-0.2,0.2-0.2,0.5-0.1,0.7c3.2,3.8,6.5,7.3,9.7,10.7c-0.3,0.8-0.2,1.7,0.3,2.5c0.7,1.1,2.1,1.5,3.3,1.1c0.5,0.5,1.1,1.1,1.6,1.6
		c-0.5,0-1.1,0.2-1.5,0.5c-1.3,0.9-1.6,2.7-0.6,4.1c1,1.3,2.8,1.6,4.1,0.7c0.8-0.6,1.1-1.5,1.1-2.3c1.2,1.1,2.4,2.2,3.6,3.2
		c-0.5,0.1-1,0.3-1.5,0.6c-1.3,1-1.4,2.8-0.4,4.1c1.1,1.3,2.9,1.4,4.1,0.4c0.7-0.6,1-1.4,1-2.3c2.1,1.8,4.2,3.5,6.3,5.1
		c-0.2,0.4-0.4,0.9-0.4,1.4c-0.8,0-1.6,0.1-2.4,0.1c-0.3-1.7-1.7-2.9-3.4-3c-1.7,0-3.1,1.2-3.4,2.9c-0.3,0-0.6,0-0.9,0
		c0,0-0.1,0-0.1,0c0,0-0.1,0-0.1,0c-0.4,0-0.9-0.1-1.3-0.1c-0.1-1.7-1.4-3.1-3.1-3.3c-1.7-0.2-3.3,0.9-3.8,2.5
		c-0.8-0.1-1.6-0.3-2.3-0.4c0.1-1.7-1-3.2-2.7-3.6c-1.6-0.4-3.3,0.5-4,2.1c-0.8-0.2-1.5-0.4-2.3-0.7c0.2-1.7-0.7-3.3-2.3-3.8
		c-1.6-0.5-3.4,0.2-4.2,1.7c-0.8-0.3-1.5-0.6-2.2-0.9c0.4-1.6-0.4-3.3-2-4c-1.5-0.7-3.4-0.1-4.3,1.3c-0.7-0.3-1.4-0.7-2.2-1
		c0.5-1.6-0.1-3.4-1.7-4.2c-1.4-0.8-3.3-0.3-4.4,0.9c-0.7-0.4-1.4-0.8-2.1-1.2c0.6-1.5,0.1-3.4-1.3-4.3c-1.4-0.9-3.3-0.6-4.5,0.6
		c-0.7-0.5-1.3-0.9-2-1.4c0.7-1.5,0.4-3.4-1-4.4c-1.3-1-3.3-0.8-4.5,0.3c-0.7-0.5-1.3-1-1.9-1.5c0.9-1.4,0.6-3.3-0.6-4.5
		c-1.2-1.1-3.2-1.1-4.5-0.1c-1.2-1.2-1.9-1.9-1.9-1.9c-0.2-0.2-0.5-0.2-0.7,0c-0.2,0.2-0.2,0.5,0,0.7C0.7,30,1.4,30.7,2.7,31.9z
		 M425.3,32c0.4-0.4,1-0.6,1.6-0.6c0.5,0,1,0.2,1.4,0.4c0.1,0.1,0.3,0.2,0.4,0.3c0.1,0.1,0.2,0.2,0.3,0.4c0.2,0.4,0.4,0.9,0.4,1.4
		c0,0.7-0.3,1.3-0.8,1.7c-0.9,0.8-2.2,0.8-3.1,0.1c-0.1-0.1-0.2-0.2-0.3-0.3c-0.1-0.1-0.2-0.3-0.3-0.4C424.3,34,424.5,32.8,425.3,32
		z M418.3,37.9c0.4-0.3,1-0.5,1.5-0.5c0.6,0,1.1,0.2,1.5,0.5c0.1,0.1,0.3,0.2,0.4,0.4c0.1,0.1,0.2,0.3,0.3,0.4
		c0.2,0.4,0.3,0.9,0.3,1.4c-0.1,0.7-0.4,1.3-0.9,1.7c-0.9,0.7-2.3,0.7-3.1-0.1c-0.1-0.1-0.2-0.2-0.3-0.3c-0.1-0.1-0.2-0.3-0.3-0.4
		C417.2,39.9,417.4,38.6,418.3,37.9z M76.1,128.5c0.3,0.4,0.7,0.7,1.1,1.1c0.9,0.8,2,1.6,2,3.2c0,0.8,0.1,2.9,0.1,5.4
		c0,2,0,4.4,0,6.7c0,4.1,0,8-0.2,9.8v0c-0.3,4.2-8,4.2-10.5,4.2c-4.6,0-10.2-0.7-10.6-4.3c0,0,0-0.1,0-0.1
		c-0.3-4.4-0.1-19.2-0.1-21.8c0-1.5,1-2.3,1.9-3.1c0.5-0.4,0.9-0.7,1.2-1.2c0.1-0.2,0.2-0.6,0.2-1.1c1.2,0.3,3.4,0.6,7.2,0.7
		c0.3,0,0.7,0,1.2,0c2.9,0,4.9-0.2,6.2-0.6C75.9,127.9,75.9,128.3,76.1,128.5z M76.1,124.1c0,0.4,0,0.8,0,1.2
		c-0.4,0.1-1.3,0.4-2.5,0.5c-1.6,0.2-3.6,0.3-4.8,0.3c-0.1,0-0.2,0-0.3,0h0c-0.4,0-0.9,0-1.4,0c-1.1-0.1-2.5-0.2-3.7-0.3
		c-1.2-0.1-2.2-0.4-2.6-0.5c0,0,0,0,0,0c0,0,0,0,0,0c1.6,0.4,6.4,0.7,7.3,0.7c0.2,0,0.3,0,0.4,0c0.6-0.1,0.6-0.5,0.6-0.6
		c0-0.3-0.3-0.6-0.6-0.6c0,0-0.3,0-0.6,0c-4-0.2-6.4-0.4-7.1-0.7c0-0.2,0-0.5,0-0.7c1.4,0.8,6,0.8,7.5,0.8c1.6,0,6.2-0.1,7.6-0.9
		C76.1,123.5,76.1,123.8,76.1,124.1z M62.2,122.5c0,0,0.1,0,0.1,0c0,0,0,0,0,0c0,0.1,0,0.1-0.1,0.2c0,0,0,0.1,0,0.1c0,0,0,0,0,0.1
		c0,0.1,0,0.1,0.1,0.2c-0.3-0.1-0.6-0.1-0.8-0.2c-0.1,0-0.2-0.1-0.3-0.1c0.1,0,0.1,0,0.2-0.1C61.7,122.6,61.9,122.6,62.2,122.5z
		 M75.5,122.7c0.1,0,0.1,0,0.2,0.1c-0.1,0-0.2,0.1-0.3,0.1c-0.2,0.1-0.5,0.1-0.8,0.2c-0.6,0.1-1.3,0.2-2.2,0.3
		c0-0.1,0.1-0.1,0.1-0.2c0,0,0-0.1,0-0.1c0-0.1-0.1-0.1-0.2-0.2c-0.1,0-0.1-0.1-0.2-0.1c0,0,0,0,0,0c-0.3,0-0.6,0-0.9,0.1
		c-0.9,0-1.9,0.1-2.8,0.1c-1.3,0-2.3,0-3.1-0.1c-0.5,0-1-0.1-1.3-0.1c0.2,0,0.5,0,0.8-0.1c0.9-0.1,2.1-0.1,3.6-0.1
		c1.1,0,2.2,0,3.2,0.1c0.1,0,0.2-0.1,0.3-0.2c0,0,0.1-0.1,0.1-0.2c0,0,0,0,0,0c0-0.1,0-0.1-0.1-0.2c0.7,0,1.4,0.1,1.9,0.2
		c0.5,0.1,0.8,0.1,1.2,0.2C75.1,122.6,75.3,122.6,75.5,122.7z M76.3,126.6c0,0-0.1,0.1-0.1,0.1c-0.1,0-0.2,0.1-0.3,0.1
		c-0.2,0.1-0.3,0.1-0.5,0.2c-0.7,0.2-1.7,0.3-3.2,0.4c-0.7,0-1.5,0.1-2.4,0.1c-0.1,0-0.3,0-0.4,0c-0.3,0-0.5,0-0.8,0
		c-4.1-0.1-6.2-0.4-7.2-0.7c-0.1,0-0.1,0-0.2-0.1c-0.1,0-0.1,0-0.2-0.1c-0.1,0-0.1,0-0.2-0.1c-0.1,0-0.1-0.1-0.2-0.1
		c-0.1-0.1-0.2-0.1-0.3-0.2c0.1,0,0.2,0.1,0.2,0.1c0.1,0,0.1,0.1,0.2,0.1c0.1,0,0.1,0.1,0.2,0.1c0,0,0.1,0,0.2,0
		c0.1,0,0.2,0.1,0.3,0.1c1.7,0.5,4.6,0.6,7,0.6l0.4,0c0.9,0,2.4,0,3.9-0.1c0.3,0,0.6,0,0.9-0.1c0.4,0,0.7-0.1,1-0.1
		c0.3,0,0.5-0.1,0.7-0.2c0.2,0,0.4-0.1,0.5-0.2c0.1,0,0.2-0.1,0.3-0.1c0.1,0,0.1-0.1,0.2-0.1c0,0,0.1-0.1,0.1-0.1
		c0.1-0.1,0.2-0.1,0.2-0.2c0,0,0,0,0,0c0,0.1-0.1,0.2-0.3,0.4C76.4,126.5,76.3,126.6,76.3,126.6z M76.5,122.5
		C76.5,122.5,76.4,122.4,76.5,122.5c-0.1-0.1-0.2-0.2-0.3-0.2c-1.1-0.9-6.1-1-7.7-1c-1.7,0-6.7,0.1-7.8,1c-0.1,0-0.1,0-0.1,0.1
		c0,0-0.1,0.1-0.1,0.1c-0.3-3.5-0.4-9.3,2.3-12.5c1.3-1.6,3.1-2.4,5.4-2.4l0.2,0c2.4,0.1,4.4,0.9,5.7,2.6
		C76.7,113.6,76.8,119.1,76.5,122.5z M72.8,64.4c-0.7,0-1.3-0.3-1.8-0.8c-0.3-0.4-0.5-0.8-0.6-1.2c0-0.2,0-0.3,0-0.5
		c0-0.2,0-0.3,0.1-0.5c0.3-1.1,1.2-1.9,2.4-1.9c1.1,0,2.1,0.8,2.4,1.9c0,0.2,0.1,0.3,0.1,0.5c0,0.2,0,0.3,0,0.5
		c-0.1,0.5-0.3,0.9-0.6,1.2C74.2,64.1,73.5,64.4,72.8,64.4l0,0.5L72.8,64.4z M79.9,60.6c0-0.1,0.1-0.1,0.1-0.2
		c0.1-0.2,0.3-0.4,0.5-0.6c0.4-0.3,0.9-0.6,1.4-0.6c0.1,0,0.2,0,0.2,0c0.4,0,0.8,0.1,1.1,0.3c0.5,0.3,1,0.8,1.2,1.4
		c0.1,0.2,0.1,0.3,0.1,0.5c0,0.2,0,0.3,0,0.5c0,0.3-0.1,0.6-0.2,0.9c-0.1,0.2-0.2,0.3-0.3,0.4c-0.1,0.1-0.2,0.2-0.3,0.3
		c-0.4,0.3-0.9,0.5-1.4,0.6c-1.2,0.1-2.3-0.7-2.6-1.8c0-0.1-0.1-0.3-0.1-0.5c0-0.2,0-0.4,0-0.5C79.8,61,79.8,60.8,79.9,60.6z
		 M93.5,59.1c0.1,0.2,0.2,0.3,0.2,0.5c0,0.2,0.1,0.3,0.1,0.5c0,0.5-0.1,0.9-0.4,1.3c-0.4,0.6-0.9,1-1.6,1.1
		c-1.2,0.3-2.4-0.4-2.8-1.5c-0.1-0.1-0.1-0.3-0.1-0.4c0-0.2,0-0.4,0-0.5c0-1.1,0.8-2.1,1.9-2.3c0.2,0,0.3-0.1,0.5-0.1
		C92.3,57.7,93.1,58.3,93.5,59.1z M114.6,113.8c0.2,0.4,0.7,0.7,1.1,1.1c0.9,0.8,2,1.6,2,3.2c0,0.2,0,0.4,0,0.6
		c0,1.8,0.1,5.7,0.1,9.8c0,0.6,0,1.2,0,1.7c0,1.7,0,3.5,0,5c0,2-0.1,3.8-0.2,4.8v0c-0.3,4.2-8,4.2-10.5,4.2
		c-4.6,0-10.2-0.7-10.6-4.3c0,0,0-0.1,0-0.1c-0.3-4.4-0.1-19.2-0.1-21.8c0-1.5,1-2.3,1.9-3.1c0.5-0.4,0.9-0.7,1.2-1.2
		c0.1-0.2,0.2-0.6,0.2-1.1c1.2,0.3,3.4,0.6,7.2,0.7c0.3,0,0.7,0,1.2,0c2.9,0,4.9-0.2,6.2-0.6C114.3,113.2,114.4,113.6,114.6,113.8z
		 M114.5,109.4c0,0.4,0,0.8,0,1.2c-0.4,0.1-1.2,0.4-2.5,0.5c-1.7,0.2-3.6,0.3-4.8,0.3c-0.1,0-0.2,0-0.3,0c-0.4,0-0.8,0-1.3,0
		c-1.1-0.1-2.6-0.2-3.8-0.3c-1.2-0.1-2.2-0.4-2.6-0.5c0,0,0,0,0,0c0,0,0,0,0,0c1.6,0.4,6.4,0.7,7.3,0.7c0.2,0,0.3,0,0.4,0
		c0.6-0.1,0.6-0.5,0.6-0.6c0-0.3-0.3-0.6-0.6-0.6c0,0-0.2,0-0.5,0l-0.1,0c-4-0.2-6.4-0.4-7-0.7c0-0.2,0-0.5,0-0.7
		c1.4,0.8,6,0.8,7.5,0.8c1.6,0,6.2-0.1,7.6-0.9C114.5,108.8,114.5,109.1,114.5,109.4z M108.1,112.7c-0.1,0-0.2,0-0.3,0
		c-0.3,0-0.6,0-0.8,0c-4.1-0.1-6.2-0.4-7.2-0.7c-0.1,0-0.1,0-0.2-0.1c-0.1,0-0.1,0-0.2-0.1c0,0-0.1,0-0.1-0.1c0,0,0-0.1,0-0.1
		c0,0,0.1,0,0.1,0c0.1,0,0.1,0,0.2,0.1c0.1,0,0.2,0.1,0.4,0.1c1.9,0.5,5,0.6,7,0.6l0.4,0c0.9,0,2.4,0,3.9-0.1c0.3,0,0.6-0.1,0.9-0.1
		c0.4,0,0.7-0.1,1-0.1c0.3,0,0.5-0.1,0.7-0.2c0.2,0,0.4-0.1,0.5-0.2c0.1,0,0.2-0.1,0.3-0.1c0,0,0,0,0,0c0,0,0,0,0,0c0,0,0,0.1,0,0.1
		c0,0,0,0,0,0.1c0,0-0.1,0-0.1,0.1c-0.1,0-0.2,0.1-0.3,0.1c-0.2,0.1-0.3,0.1-0.5,0.2c-0.7,0.2-1.7,0.3-3.2,0.4
		C109.8,112.7,109,112.7,108.1,112.7z M100.7,107.8c0,0,0.1,0,0.1,0c0,0,0,0,0,0c0,0,0,0.1-0.1,0.2c0,0,0,0.1,0,0.1c0,0,0,0,0,0.1
		c0,0.1,0,0.1,0.1,0.2c-0.3-0.1-0.6-0.1-0.8-0.2c-0.1,0-0.2-0.1-0.3-0.1c0.1,0,0.1,0,0.2-0.1C100.1,107.9,100.4,107.8,100.7,107.8z
		 M114,107.9c0.1,0,0.1,0,0.2,0.1c-0.1,0-0.2,0.1-0.3,0.1c-0.2,0.1-0.5,0.1-0.8,0.2c-0.6,0.1-1.3,0.2-2.2,0.3c0-0.1,0.1-0.1,0.1-0.2
		c0,0,0-0.1,0-0.1c0-0.1-0.1-0.1-0.2-0.2c-0.1,0-0.1-0.1-0.2-0.1h0c-0.3,0-0.6,0-0.9,0.1c-0.9,0-1.8,0.1-2.8,0.1c-1.3,0-2.2,0-3-0.1
		c-0.5,0-1-0.1-1.3-0.1c0.2,0,0.5,0,0.7-0.1c0.9-0.1,2.1-0.1,3.6-0.1c1.1,0,2.2,0,3.1,0.1l0,0c0.1,0,0.2-0.1,0.3-0.2
		c0-0.1,0.1-0.1,0.1-0.2c0,0,0,0,0,0c0-0.1,0-0.1-0.1-0.2c0.8,0,1.4,0.1,1.9,0.2c0.5,0.1,0.8,0.1,1.2,0.2
		C113.6,107.8,113.8,107.9,114,107.9z M114.9,107.8C114.9,107.8,114.9,107.7,114.9,107.8c-0.1-0.1-0.2-0.2-0.3-0.2
		c-1.1-0.9-6.1-1-7.7-1c-1.7,0-6.7,0.1-7.8,1c-0.1,0-0.1,0-0.1,0.1c0,0-0.1,0.1-0.1,0.1c-0.3-3.5-0.4-9.3,2.3-12.5
		c1.3-1.5,3.1-2.3,5.4-2.3l0.2,0c2.4,0.1,4.4,0.9,5.7,2.6C115.2,98.9,115.2,104.4,114.9,107.8z M185.1,113.7
		c0.3,0.4,0.7,0.7,1.1,1.1c0.9,0.8,2,1.6,2,3.2c0,1.3,0.1,6.2,0.1,11.2c0,0.3,0,0.7,0,1c0,4.1,0,8.1-0.2,9.8v0
		c-0.3,4.2-8,4.2-10.5,4.2c-4.6,0-10.2-0.7-10.6-4.3c0,0,0-0.1,0-0.1c-0.3-4.4-0.1-19.2-0.1-21.8c0-1.5,1-2.3,1.9-3.1
		c0.5-0.4,0.9-0.7,1.2-1.2c0.1-0.2,0.2-0.7,0.2-1.1c1.2,0.3,3.4,0.6,7.2,0.7c0.3,0,0.7,0,1.2,0c2.9,0,4.9-0.2,6.2-0.6
		C184.9,113.1,184.9,113.5,185.1,113.7z M185,109.3c0,0.4,0,0.8,0,1.2c-0.4,0.1-1.3,0.4-2.5,0.5c-1.7,0.2-3.6,0.3-4.8,0.3
		c-0.1,0-0.2,0-0.3,0h-0.1c-0.4,0-0.9,0-1.4,0c-1.1-0.1-2.4-0.2-3.7-0.3c-1.2-0.1-2.2-0.4-2.6-0.5c0,0,0,0,0,0c0,0,0,0,0,0
		c1.6,0.4,6.4,0.7,7.3,0.7c0.2,0,0.3,0,0.4,0c0.6-0.1,0.6-0.5,0.6-0.6c0-0.3-0.3-0.6-0.6-0.6c0,0-0.3,0-0.6,0c-4-0.2-6.4-0.4-7-0.7
		c0-0.2,0-0.5,0-0.7c1.4,0.8,6,0.8,7.5,0.8c1.6,0,6.2-0.1,7.6-0.9C185.1,108.6,185.1,109,185,109.3z M178.7,112.6
		c-0.1,0-0.3,0-0.4,0c-0.3,0-0.6,0-0.8,0c-4.1-0.1-6.2-0.4-7.2-0.7c-0.1,0-0.1,0-0.2-0.1c-0.1,0-0.1,0-0.2-0.1c0,0-0.1,0-0.1-0.1
		c0,0,0-0.1,0-0.1c0,0,0.1,0,0.1,0c0.1,0,0.1,0,0.2,0.1c0.1,0,0.2,0.1,0.4,0.1c1.9,0.5,5,0.6,7,0.6l0.4,0c0.9,0,2.4,0,3.9-0.1
		c0.3,0,0.6-0.1,0.9-0.1c0.4,0,0.7-0.1,0.9-0.1c0.3,0,0.5-0.1,0.7-0.2c0.2,0,0.4-0.1,0.5-0.2c0.1,0,0.2-0.1,0.3-0.1c0,0,0,0,0,0
		c0,0,0,0,0,0c0,0,0,0,0,0.1c0,0,0,0,0,0.1c0,0-0.1,0-0.1,0.1c-0.1,0-0.2,0.1-0.3,0.1c-0.2,0.1-0.3,0.1-0.5,0.2
		c-0.7,0.2-1.7,0.3-3.2,0.4C180.4,112.6,179.6,112.6,178.7,112.6z M171.2,107.7c0,0,0.1,0,0.1,0c0,0,0,0,0,0c0,0.1,0,0.1-0.1,0.2
		c0,0,0,0.1,0,0.1c0,0,0,0,0,0.1c0,0.1,0,0.1,0.1,0.2c-0.3-0.1-0.6-0.1-0.8-0.2c-0.1,0-0.2-0.1-0.3-0.1c0.1,0,0.1,0,0.2-0.1
		C170.7,107.8,170.9,107.7,171.2,107.7z M184.5,107.8c0.1,0,0.1,0,0.2,0.1c-0.1,0-0.2,0.1-0.3,0.1c-0.2,0.1-0.5,0.1-0.8,0.2
		c-0.6,0.1-1.3,0.2-2.2,0.3c0-0.1,0.1-0.1,0.1-0.2c0,0,0-0.1,0-0.1c0-0.1-0.1-0.1-0.2-0.2c-0.1,0-0.1-0.1-0.2-0.1h0
		c-0.3,0-0.6,0-0.9,0.1c-0.9,0-1.8,0.1-2.8,0.1c-1.3,0-2.3,0-3.1-0.1c-0.5,0-1-0.1-1.3-0.1c0.2,0,0.5,0,0.8-0.1
		c0.9-0.1,2.1-0.1,3.6-0.1c1.1,0,2.2,0,3.2,0.1c0.1,0,0.2-0.1,0.3-0.2c0,0,0.1-0.1,0.1-0.2c0,0,0,0,0,0c0-0.1,0-0.1-0.1-0.2
		c0.8,0,1.4,0.1,1.9,0.2c0.5,0.1,0.8,0.1,1.2,0.2C184.1,107.7,184.3,107.8,184.5,107.8z M185.5,107.7
		C185.4,107.7,185.4,107.6,185.5,107.7c-0.1-0.1-0.2-0.2-0.3-0.2c-1.1-0.9-6.1-1-7.7-1c-1.7,0-6.7,0.1-7.8,1c-0.1,0-0.1,0-0.1,0.1
		c0,0-0.1,0.1-0.1,0.1c-0.3-3.5-0.4-9.3,2.3-12.5c1.3-1.5,3.1-2.3,5.4-2.3l0.2,0c2.4,0.1,4.4,0.9,5.7,2.6
		C185.7,98.7,185.7,104.3,185.5,107.7z M195.5,59.2c0-0.2,0.1-0.3,0.2-0.5c0.4-0.8,1.2-1.4,2.2-1.4c0.2,0,0.4,0,0.5,0.1
		c1.1,0.3,1.9,1.3,1.9,2.4c0,0.2,0,0.3,0,0.5c0,0.2-0.1,0.3-0.1,0.5c-0.4,1-1.6,1.7-2.8,1.4c-0.7-0.2-1.2-0.6-1.6-1.1
		c-0.3-0.4-0.4-0.9-0.3-1.4C195.5,59.5,195.5,59.3,195.5,59.2z M201.2,60.9c0.1,0,0.1,0,0.2,0c-0.1,0.1-0.2,0.1-0.2,0.2
		C201.2,61.1,201.2,61,201.2,60.9z M209.5,61.6c0,0.2,0,0.3-0.1,0.5c-0.3,1.1-1.4,1.8-2.7,1.7c-0.1,0-0.2,0-0.3-0.1
		c-0.5-0.1-1-0.4-1.4-0.9c-0.3-0.4-0.5-0.8-0.5-1.3c0-0.2,0-0.3,0-0.5c0-0.2,0.1-0.3,0.1-0.5c0-0.1,0.1-0.2,0.1-0.3
		c0.4-0.8,1.3-1.3,2.2-1.3c0.1,0,0.2,0,0.3,0c1.1,0.1,2,1,2.1,2.2C209.5,61.3,209.6,61.4,209.5,61.6z M216.4,64.4
		c-0.7,0-1.3-0.3-1.8-0.8c-0.3-0.4-0.5-0.8-0.6-1.2c0-0.2,0-0.3,0-0.5c0-0.2,0-0.3,0.1-0.5c0.3-1.1,1.2-1.9,2.4-1.9
		c1.1,0,2.1,0.8,2.4,1.9c0,0.2,0.1,0.3,0.1,0.5c0,0.2,0,0.3,0,0.5c-0.1,0.5-0.3,0.9-0.6,1.2C217.7,64.1,217.1,64.4,216.4,64.4l0,0.5
		L216.4,64.4z M225.9,64c-1.2,0.1-2.3-0.7-2.6-1.8c0-0.1-0.1-0.3-0.1-0.5c0-0.2,0-0.4,0-0.5c0.2-1.1,1-2,2.2-2.1c0.1,0,0.2,0,0.2,0
		c1,0,2,0.7,2.3,1.6c0.1,0.2,0.1,0.3,0.1,0.5c0,0.2,0,0.3,0,0.5c0,0.5-0.2,0.9-0.5,1.3C227.2,63.6,226.6,63.9,225.9,64z M237,61.4
		c-0.4,0.6-0.9,1-1.6,1.1c-1.2,0.3-2.4-0.4-2.8-1.5c-0.1-0.1-0.1-0.3-0.1-0.4c0-0.2,0-0.4,0-0.5c0-1.1,0.8-2.1,1.9-2.3
		c0.2,0,0.3-0.1,0.5-0.1c0.9,0,1.8,0.6,2.2,1.4c0.1,0.2,0.2,0.3,0.2,0.5c0,0.2,0.1,0.3,0.1,0.5C237.4,60.5,237.2,61,237,61.4z
		 M228.6,99.8c0-1.5,1.1-2.4,2-3.2c0.4-0.4,0.8-0.7,1.1-1.1l0,0c0.1-0.2,0.2-0.6,0.3-1c1.3,0.4,3.3,0.6,6.2,0.6c0.4,0,0.8,0,1.1,0
		l0,0c3.8-0.1,6-0.3,7.2-0.7c0,0.4,0.1,0.9,0.2,1.1c0.3,0.4,0.7,0.8,1.2,1.2c0.9,0.7,1.9,1.6,1.9,3c0.1,2.6,0.3,17.5-0.1,21.8
		c0,0,0,0.1,0,0.1c-0.4,3.5-6,4.3-10.6,4.3c-2.5,0-10.1,0-10.5-4.2C228.3,117.6,228.5,102.4,228.6,99.8z M231.7,91.2
		c0-0.3,0-0.6,0-0.9c1.4,0.8,6,0.9,7.6,0.9c1.6,0,6.1-0.1,7.5-0.8c0,0.2,0,0.4,0,0.7c-0.6,0.3-3,0.6-7,0.7c-0.3,0-0.5,0-0.6,0
		c-0.3,0-0.6,0.3-0.6,0.6c0,0.1,0,0.5,0.6,0.6c0.1,0,0.2,0,0.4,0c0.9,0,5.7-0.2,7.3-0.7c0,0,0,0,0,0c0,0,0,0,0,0
		c-0.4,0.1-1.3,0.4-2.6,0.5c-1.2,0.1-2.7,0.2-3.9,0.3c-0.5,0-0.9,0-1.3,0c-0.1,0-0.2,0-0.3,0c-1.2,0-3.1-0.2-4.8-0.3
		c-1.2-0.1-2.1-0.4-2.5-0.5C231.7,92,231.7,91.6,231.7,91.2z M233,89.6c0.3-0.1,0.7-0.1,1.1-0.2c0.5-0.1,1.2-0.1,1.9-0.2
		c0,0.1-0.1,0.1-0.1,0.2c0,0,0,0,0,0c0,0.1,0,0.1,0.1,0.2c0.1,0.1,0.2,0.1,0.3,0.1c0,0,0,0,0,0c0.9-0.1,2-0.1,3.2-0.1
		c1.5,0,2.7,0,3.6,0.1c0.3,0,0.5,0,0.8,0.1c-0.3,0-0.8,0.1-1.3,0.1c-0.8,0-1.8,0.1-3,0.1c-1,0-2,0-2.8-0.1c-0.3,0-0.6,0-0.9-0.1
		c-0.1,0-0.1,0-0.2,0.1c-0.1,0-0.1,0.1-0.2,0.2c0,0,0,0,0,0.1c0,0.1,0,0.1,0.1,0.2c-1-0.1-1.7-0.2-2.3-0.3c-0.4-0.1-0.6-0.1-0.8-0.2
		c-0.1,0-0.2-0.1-0.3-0.1c0.1,0,0.1,0,0.2-0.1C232.5,89.7,232.7,89.6,233,89.6z M246.3,89.7c0.1,0,0.1,0,0.2,0.1
		c-0.1,0-0.2,0.1-0.3,0.1c-0.2,0-0.4,0.1-0.7,0.2c0-0.1,0.1-0.1,0.1-0.2c0,0,0,0,0-0.1c0,0,0-0.1,0-0.1c0-0.1,0-0.1-0.1-0.2
		c0,0,0,0,0,0c0.1,0,0.1,0,0.2,0C245.9,89.6,246.1,89.7,246.3,89.7z M246.8,93.6c0,0-0.1,0-0.2,0.1c-0.1,0-0.1,0-0.2,0.1
		c-1,0.3-3.1,0.6-7.2,0.7c-0.2,0-0.5,0-0.8,0c-0.1,0-0.2,0-0.4,0c-0.9,0-1.7,0-2.4-0.1c-1.5-0.1-2.5-0.2-3.2-0.4
		c-0.2-0.1-0.4-0.1-0.5-0.2c-0.1,0-0.2-0.1-0.3-0.1c0,0-0.1,0-0.1-0.1c0,0,0,0,0-0.1c0,0,0,0,0-0.1c0.1,0,0.2,0.1,0.3,0.1
		c0.1,0.1,0.3,0.1,0.5,0.2c0.2,0.1,0.5,0.1,0.7,0.2c0.4,0.1,1,0.1,1.6,0.2c1,0.1,2.4,0.2,4.1,0.2l0.4,0c2.1,0,5.2-0.1,7-0.6
		c0.1,0,0.2-0.1,0.4-0.1C246.7,93.6,246.7,93.6,246.8,93.6c0-0.1,0.1-0.1,0.1-0.1c0,0,0,0.1,0,0.1C246.9,93.6,246.8,93.6,246.8,93.6
		z M247.3,89.6c0,0-0.1-0.1-0.1-0.2c0,0-0.1,0-0.1-0.1c-1.1-0.9-6.1-1-7.8-1c-1.7,0-6.6,0.1-7.7,1c-0.1,0-0.2,0-0.2,0.1
		c0,0,0,0,0,0.1c-0.3-3.4-0.3-8.9,2.3-12.2c1.4-1.7,3.3-2.6,5.7-2.6c2.4-0.1,4.3,0.7,5.6,2.3C247.7,80.3,247.6,86.1,247.3,89.6z
		 M246.1,58.7c-0.3,0.6-0.8,1.1-1.5,1.3c-1.1,0.4-2.4-0.2-2.9-1.1c-0.1-0.1-0.1-0.3-0.2-0.4c0-0.2-0.1-0.4-0.1-0.5
		c-0.1-1.1,0.6-2.2,1.7-2.5c0.2-0.1,0.5-0.1,0.7-0.1c0.9,0,1.6,0.5,2.1,1.2c0.1,0.1,0.2,0.3,0.3,0.5c0.1,0.1,0.1,0.3,0.1,0.5
		C246.4,57.8,246.3,58.3,246.1,58.7z M246.9,56.1c-0.8-1.4-2.6-2.2-4.2-1.7c-1.6,0.5-2.6,2.2-2.4,3.8c-0.8,0.2-1.5,0.4-2.3,0.6
		c-0.6-1.5-2.3-2.5-4-2.1c-1.7,0.4-2.8,1.9-2.8,3.5c-0.8,0.1-1.6,0.3-2.3,0.4c-0.5-1.6-2-2.7-3.7-2.6c-1.7,0.2-3,1.5-3.1,3.2
		c-0.8,0-1.6,0.1-2.4,0.1c-0.3-1.7-1.7-2.9-3.4-3c-1.7,0-3.1,1.2-3.4,2.9c-0.8,0-1.6-0.1-2.4-0.2c-0.1-1.7-1.4-3.1-3.1-3.3
		c-0.3,0-0.5,0-0.7,0c0.9-0.8,1.8-1.5,2.6-2.3c2.2-2,4.3-4,6.3-5.9c0.8,0.3,1.7,0.2,2.5-0.3c1.1-0.8,1.5-2.1,1.1-3.3
		c0.5-0.6,1-1.1,1.5-1.7c0,0.5,0.2,1.1,0.6,1.5c0.9,1.3,2.8,1.5,4.1,0.5c1.3-1,1.6-2.9,0.5-4.1c-0.6-0.7-1.5-1.1-2.4-1
		c1.1-1.3,2.2-2.6,3.1-3.7c0.1,0.5,0.3,1,0.7,1.4c1,1.2,2.9,1.3,4.1,0.2c0,0,0,0,0,0c3,1.3,6.4,2.5,10.1,3.8c0,0.1,0.1,0.2,0.1,0.2
		c0.5,0.7,1.2,1.1,1.9,1.2c0.3,0.2,0.6,0.4,1,0.5c0.4,0.1,0.8,0.1,1.1,0.1c0.3,0.3,0.5,0.5,0.8,0.8c-0.5,0-1.1,0.2-1.5,0.5
		c-1.3,0.9-1.6,2.7-0.6,4.1c1,1.3,2.8,1.6,4.1,0.7c0.8-0.6,1.1-1.5,1.1-2.3c0.8,0.7,1.6,1.5,2.3,2.2c-0.3,0-0.6,0.1-0.9,0.2
		c-1.6,0.7-2.4,2.4-2,4.1C248.4,55.5,247.7,55.8,246.9,56.1z M251.1,56.3c-0.2-0.2-0.4-0.3-0.6-0.6c-0.1-0.1-0.2-0.3-0.2-0.4
		c-0.1-0.2-0.1-0.3-0.1-0.5c-0.2-1.1,0.4-2.2,1.4-2.7c0.3-0.1,0.6-0.2,1-0.2c0.2,0,0.4,0,0.7,0.1c0,0,0,0,0,0
		c0.5,0.1,0.9,0.5,1.3,0.9c0.1,0.1,0.2,0.3,0.3,0.4c0,0,0,0.1,0,0.1c0,0.1,0.1,0.2,0.1,0.3c0.1,0.5,0.1,0.9-0.1,1.4
		c-0.2,0.6-0.7,1.1-1.3,1.4C252.7,56.9,251.7,56.8,251.1,56.3z M335,125.5c0-1.5,1.1-2.4,2-3.2c0.4-0.3,0.8-0.7,1.1-1
		c0.1-0.2,0.2-0.6,0.3-1c1.3,0.4,3.3,0.6,6.2,0.6c0.4,0,0.8,0,1.2,0c3.8-0.1,6-0.3,7.2-0.7c0,0.4,0.1,0.9,0.2,1.1
		c0.3,0.4,0.7,0.8,1.2,1.2c0.9,0.7,1.9,1.6,1.9,3c0.1,2.5,0.3,17.5-0.1,21.8c0,0,0,0.1,0,0.1c-0.4,3.5-6,4.3-10.6,4.3
		c-2.5,0-10.1,0-10.5-4.2C334.7,143.3,334.9,128.1,335,125.5z M353.2,119.3c0,0-0.1,0-0.2,0.1c-0.1,0-0.1,0-0.2,0.1
		c-1,0.3-3.1,0.6-7.2,0.7l-0.1,0c-0.2,0-0.5,0-0.8,0c-0.1,0-0.2,0-0.3,0c-0.9,0-1.7,0-2.4-0.1c-1.5-0.1-2.5-0.2-3.2-0.4
		c-0.2-0.1-0.4-0.1-0.5-0.2c-0.1,0-0.2-0.1-0.3-0.1c-0.1,0-0.1-0.1-0.2-0.1c-0.1,0-0.1-0.1-0.1-0.1c-0.2-0.2-0.3-0.3-0.3-0.3
		c0,0,0-0.1,0-0.1c0.1,0.1,0.1,0.1,0.2,0.2c0,0,0,0,0.1,0c0.1,0,0.1,0.1,0.2,0.1c0.1,0,0.2,0.1,0.3,0.1c0.1,0.1,0.3,0.1,0.5,0.2
		c0.2,0.1,0.5,0.1,0.7,0.2c0.4,0.1,1,0.1,1.6,0.2c1,0.1,2.4,0.2,4.1,0.2l0.4,0c2.1,0,5.2-0.1,7-0.6c0.1,0,0.2-0.1,0.3-0.1
		C353.1,119.3,353.2,119.2,353.2,119.3c0.1-0.1,0.1-0.1,0.2-0.2c0.1,0,0.1-0.1,0.2-0.1c0.1,0,0.2-0.1,0.3-0.1c0,0.1-0.1,0.1-0.3,0.2
		c0,0-0.1,0.1-0.2,0.1C353.3,119.3,353.3,119.3,353.2,119.3z M338.1,116.9c0-0.3,0-0.6,0-0.9c1.4,0.8,6,0.9,7.6,0.9
		c1.6,0,6.1-0.1,7.5-0.8c0,0.2,0,0.4,0,0.7c-0.7,0.3-3,0.6-7.1,0.7c-0.3,0-0.5,0-0.6,0c-0.3,0-0.6,0.3-0.6,0.6c0,0.1,0,0.5,0.6,0.6
		c0.1,0,0.2,0,0.4,0c0.9,0,5.7-0.2,7.3-0.7c0,0,0,0,0,0c0,0,0,0,0,0c-0.4,0.2-1.4,0.4-2.6,0.5c-1.2,0.1-2.6,0.2-3.7,0.3
		c-0.5,0-1,0-1.4,0h0c-0.1,0-0.2,0-0.4,0c-1.2,0-3.1-0.2-4.8-0.3c-1.1-0.1-2.1-0.3-2.5-0.5C338.2,117.7,338.2,117.3,338.1,116.9z
		 M339.5,115.2c0.3-0.1,0.7-0.1,1.1-0.2c0.5-0.1,1.2-0.1,1.9-0.2c0,0.1-0.1,0.1-0.1,0.2c0,0,0,0,0,0c0,0.1,0,0.1,0.1,0.2
		c0.1,0.1,0.1,0.1,0.3,0.1c0,0,0,0,0,0c0.9-0.1,2-0.1,3.2-0.1c1.5,0,2.7,0,3.6,0.1c0.3,0,0.5,0,0.8,0.1c-0.3,0-0.8,0.1-1.3,0.1
		c-0.8,0-1.8,0.1-3,0.1c-1,0-2,0-2.8-0.1c-0.3,0-0.6,0-0.9-0.1c-0.1,0-0.1,0-0.2,0.1c-0.1,0-0.1,0.1-0.2,0.2c0,0,0,0,0,0.1
		c0,0.1,0,0.1,0.1,0.2c-1-0.1-1.7-0.2-2.3-0.3c-0.4-0.1-0.6-0.1-0.8-0.2c-0.1,0-0.2-0.1-0.3-0.1c0.1,0,0.1,0,0.2-0.1
		C338.9,115.3,339.2,115.3,339.5,115.2z M352.7,115.4c0.1,0,0.1,0,0.2,0.1c-0.1,0-0.2,0.1-0.3,0.1c-0.2,0-0.4,0.1-0.7,0.2
		c0-0.1,0.1-0.1,0.1-0.2c0,0,0,0,0-0.1c0,0,0-0.1,0-0.1c0-0.1,0-0.1-0.1-0.2c0,0,0,0,0,0c0.1,0,0.1,0,0.2,0
		C352.3,115.3,352.6,115.3,352.7,115.4z M353.7,115.3c0,0-0.1-0.1-0.1-0.1c0,0-0.1,0-0.2-0.1c-1.1-0.9-6.1-1-7.8-1
		c-1.7,0-6.6,0.1-7.7,1c-0.1,0-0.2,0-0.2,0.1c0,0,0,0.1-0.1,0.1c-0.3-3.4-0.3-8.9,2.3-12.2c1.4-1.7,3.3-2.6,5.7-2.6l0.2,0
		c2.3,0,4.1,0.8,5.4,2.4C354.1,106,354,111.8,353.7,115.3z M387.4,55.3c0.9,0,1.6,0.5,2.1,1.2c0.1,0.2,0.2,0.3,0.3,0.5
		c0,0.1,0,0.2,0.1,0.3c0,0.1,0,0.1,0,0.2c0.1,0.4,0,0.8-0.1,1.2c0,0.1,0,0.1-0.1,0.2c-0.3,0.6-0.8,1.1-1.5,1.3c0,0,0,0,0,0
		c-0.1,0-0.2,0.1-0.3,0.1c-0.4,0.1-0.7,0-1.1-0.1c-0.1,0-0.2-0.1-0.3-0.1c-0.5-0.2-0.9-0.6-1.2-1c-0.1-0.1-0.1-0.3-0.2-0.4
		c-0.1-0.2-0.1-0.4-0.1-0.5c-0.1-1.1,0.6-2.2,1.7-2.5C386.9,55.3,387.1,55.3,387.4,55.3z M395.1,52.1c0.2-0.1,0.3-0.1,0.5-0.2
		c0.1,0,0.3,0,0.4,0c0.3,0,0.6,0.1,0.9,0.2c0.4,0.2,0.8,0.4,1.1,0.8c0.1,0.1,0.2,0.3,0.3,0.4c0.1,0.1,0.1,0.3,0.2,0.4
		c0.1,0.5,0.1,0.9-0.1,1.4c-0.2,0.6-0.7,1.1-1.3,1.4c-1.1,0.5-2.4,0.1-3-0.8c-0.1-0.1-0.2-0.3-0.2-0.4c0-0.1-0.1-0.2-0.1-0.3
		c0,0,0-0.1,0-0.1c0,0,0-0.1,0-0.1c-0.1-0.4,0-0.8,0.1-1.1C393.9,53,394.4,52.4,395.1,52.1C395.1,52.1,395.1,52.1,395.1,52.1z
		 M406.8,50.8c-0.2,0.6-0.6,1.2-1.2,1.5c-1,0.6-2.4,0.3-3.1-0.6c-0.1-0.1-0.2-0.3-0.3-0.4c-0.1-0.2-0.1-0.3-0.2-0.5
		c-0.2-0.6-0.1-1.3,0.2-1.8c0.1-0.2,0.3-0.4,0.5-0.6c0.1-0.1,0.3-0.3,0.5-0.4c0.4-0.2,0.8-0.3,1.2-0.3c0.7,0,1.3,0.3,1.8,0.8
		c0.1,0.1,0.2,0.3,0.3,0.4c0.1,0.1,0.2,0.3,0.2,0.4C406.9,49.8,406.9,50.3,406.8,50.8z M411,43.3c0.4-0.3,0.9-0.4,1.4-0.4
		c0.6,0,1.2,0.2,1.7,0.7c0.1,0.1,0.2,0.2,0.3,0.4c0.1,0.1,0.2,0.3,0.2,0.4c0.2,0.4,0.2,0.9,0.2,1.4c-0.1,0.7-0.5,1.2-1.1,1.6
		c-1,0.7-2.3,0.5-3.1-0.3c-0.1-0.1-0.2-0.2-0.3-0.4c-0.1-0.1-0.2-0.3-0.2-0.5c-0.1-0.2-0.1-0.4-0.1-0.7c0-0.5,0.1-1.1,0.4-1.6
		C410.5,43.7,410.7,43.5,411,43.3z M404.5,44.4c0,0.5,0.2,1.1,0.6,1.5c0.9,1.3,2.7,1.5,4,0.5c0,0.1,0.1,0.2,0.1,0.3
		c-0.7,0.4-1.4,0.8-2,1.2c-1-1.1-2.6-1.6-4-1c0-0.3-0.1-0.6-0.2-0.9C403.5,45.5,404,44.9,404.5,44.4z M399.4,49.7
		c0.5,0.2,1,0.2,1.6,0.1c-0.1,0.5,0,1.1,0.2,1.6c-0.7,0.4-1.4,0.7-2.1,1.1c-0.3-0.5-0.8-0.8-1.3-1.1
		C398.3,50.8,398.8,50.2,399.4,49.7z M380.6,59.1c0.1,0.2,0.2,0.3,0.2,0.5c0,0.2,0.1,0.3,0.1,0.5c0,0.5-0.1,0.9-0.4,1.3
		c-0.4,0.6-0.9,1-1.6,1.1c-1.2,0.3-2.4-0.4-2.8-1.5c-0.1-0.1-0.1-0.3-0.1-0.5c0-0.2,0-0.4,0-0.5c0-1.1,0.8-2.1,1.9-2.3
		c0.2,0,0.3-0.1,0.5-0.1C379.4,57.7,380.2,58.3,380.6,59.1z M369.2,59.1c1,0,2,0.7,2.3,1.6c0.1,0.2,0.1,0.3,0.1,0.5
		c0,0.2,0,0.3,0,0.5c0,0.5-0.2,0.9-0.5,1.3c-0.4,0.5-1,0.9-1.7,0.9c-1.2,0.1-2.3-0.7-2.6-1.8c0-0.1-0.1-0.3-0.1-0.5
		c0-0.2,0-0.4,0-0.5c0.2-1.1,1-2,2.2-2.1C369.1,59.1,369.1,59.1,369.2,59.1z M359.9,64.4c-0.7,0-1.3-0.3-1.8-0.8
		c-0.3-0.4-0.5-0.8-0.6-1.2c0-0.2,0-0.3,0-0.5c0-0.2,0-0.3,0.1-0.5c0.3-1.1,1.2-1.9,2.4-1.9c1.1,0,2.1,0.8,2.4,1.9
		c0,0.2,0.1,0.3,0.1,0.5c0,0.2,0,0.3,0,0.5c-0.1,0.5-0.3,0.9-0.6,1.2C361.3,64.1,360.6,64.4,359.9,64.4l0,0.5L359.9,64.4z M348.2,61
		c0-0.2,0.1-0.3,0.1-0.5c0.4-0.9,1.3-1.6,2.3-1.6c0.1,0,0.2,0,0.3,0c1.1,0.1,2,1,2.1,2.2c0,0.2,0,0.3,0,0.5c0,0.2,0,0.3-0.1,0.5
		c-0.3,1.1-1.4,1.8-2.7,1.7c-0.7-0.1-1.3-0.4-1.7-1c-0.3-0.4-0.5-0.8-0.5-1.3C348.2,61.3,348.2,61.2,348.2,61z M347.8,63.4
		c0.6,0.8,1.4,1.3,2.4,1.4c0.2,0,0.3,0,0.4,0c1.6,0,3-1.1,3.4-2.7c0.8,0.1,1.6,0.1,2.4,0.2c0.1,0.7,0.4,1.5,0.9,2
		c0.7,0.7,1.6,1.1,2.5,1.1c0,0,0,0,0,0c1,0,1.9-0.4,2.5-1.1c0.5-0.6,0.8-1.2,0.9-2c0.8,0,1.6,0,2.4-0.1c0.3,1.6,1.7,2.7,3.4,2.7
		c0.1,0,0.2,0,0.4,0c1-0.1,1.8-0.6,2.4-1.3c0.5-0.6,0.7-1.3,0.7-2.1c0.8-0.1,1.6-0.2,2.4-0.3c0.5,1.4,1.8,2.4,3.3,2.4
		c0.3,0,0.5,0,0.8-0.1c1-0.2,1.8-0.8,2.3-1.6c0.4-0.7,0.6-1.4,0.5-2.2c0.8-0.2,1.5-0.4,2.3-0.6c0.3,0.6,0.7,1.1,1.3,1.5
		c-3.2,2.5-6.8,5-10.6,7.4c-0.7-1.3-2.2-2-3.5-1.5c-1.4,0.5-2.2,2.1-1.7,3.6c0.1,0.3,0.2,0.5,0.4,0.8c-1.3,0.7-2.7,1.5-4.1,2.2
		c0.1-0.5,0.1-1,0-1.5c-0.4-1.5-2-2.4-3.5-2.1c-1.5,0.3-2.4,1.8-2.1,3.4c0.2,0.9,0.8,1.7,1.6,2c-5,2.3-10.3,4.2-15.9,5.6V61.2
		c0.3,0.1,0.6,0.1,1,0.2C347.1,62.1,347.4,62.8,347.8,63.4z M339.1,59.2c0-0.2,0.1-0.3,0.2-0.5c0.4-0.8,1.2-1.4,2.2-1.4
		c0.2,0,0.4,0,0.5,0.1c1.1,0.3,1.9,1.3,1.9,2.4c0,0.2,0,0.3,0,0.5c0,0.2-0.1,0.3-0.1,0.5c-0.4,1-1.6,1.7-2.8,1.4
		c-0.7-0.2-1.2-0.6-1.6-1.1c-0.3-0.4-0.4-0.9-0.3-1.4C339,59.5,339.1,59.3,339.1,59.2z M330.2,56.4c0.1-0.2,0.2-0.3,0.3-0.5
		c0.5-0.7,1.2-1.2,2.1-1.2c0.3,0,0.5,0,0.8,0.1c1.1,0.4,1.7,1.4,1.7,2.5c0,0.2,0,0.4-0.1,0.5c0,0.1-0.1,0.3-0.2,0.4
		c-0.5,1-1.8,1.5-2.9,1.1c-0.7-0.2-1.2-0.7-1.5-1.3c-0.2-0.4-0.3-0.9-0.2-1.4C330.1,56.7,330.2,56.6,330.2,56.4z M321.6,52.9
		c0.1-0.2,0.2-0.3,0.3-0.5c0.5-0.6,1.2-1,1.9-1c0.3,0,0.7,0.1,1,0.2c1,0.5,1.6,1.6,1.4,2.7c0,0.2-0.1,0.4-0.1,0.5
		c-0.1,0.1-0.1,0.3-0.2,0.4c-0.6,1-1.9,1.4-3,0.9c-0.6-0.3-1.1-0.8-1.3-1.4c-0.2-0.5-0.2-1-0.1-1.4C321.5,53.1,321.5,53,321.6,52.9z
		 M320.5,52.8c-0.2,0.7-0.2,1.5,0,2.2c0.3,0.9,1,1.6,1.9,2c0.5,0.2,0.9,0.3,1.4,0.3c1.3,0,2.4-0.7,3-1.8c0.7,0.3,1.5,0.6,2.3,0.9
		c-0.2,0.7-0.1,1.5,0.2,2.2c0.4,0.9,1.2,1.5,2.1,1.8c0.4,0.1,0.8,0.2,1.1,0.2c1.4,0,2.6-0.8,3.1-2c0.8,0.2,1.5,0.4,2.3,0.7
		c-0.1,0.8,0,1.5,0.4,2.2c0.5,0.8,1.3,1.4,2.2,1.6c0.3,0.1,0.5,0.1,0.8,0.1c1.5,0,2.8-1,3.3-2.3c0.2,0,0.4,0.1,0.5,0.1v19.7
		c-1.1,0.3-2.3,0.5-3.4,0.7c-0.1-1.5-1.3-2.6-2.7-2.7c-1.5-0.1-2.8,1.1-2.9,2.7c0,0.3,0,0.6,0.1,0.9c-1.5,0.2-3.1,0.3-4.6,0.5
		c0.3-0.4,0.5-0.9,0.6-1.4c0.2-1.6-0.9-3-2.3-3.3c-1.5-0.3-2.9,0.7-3.2,2.3c-0.2,1,0.1,1.9,0.7,2.6c-2.8,0.1-5.5,0-8.3-0.3
		c0,0,0,0,0,0c-4.3-0.4-8.5-1-12.8-2c0.5-1.4-0.1-3-1.4-3.6c-1.3-0.7-3-0.1-3.8,1.3c-0.1,0.3-0.2,0.6-0.3,0.8
		c-1.5-0.4-3-0.9-4.4-1.5c0.5-0.2,0.9-0.6,1.1-1.1c0.8-1.4,0.4-3.1-0.8-4c-1.3-0.8-3-0.5-3.9,0.8c-0.6,0.8-0.7,1.8-0.3,2.7
		c-2.5-1-5-2.2-7.5-3.4c0,0-0.1,0-0.1-0.1c-3.7-1.9-7.5-4-11.2-6.4c0.9-1.2,0.9-2.8-0.2-3.9c-1.1-1.1-2.9-1.1-4,0
		c-0.2,0.2-0.4,0.5-0.5,0.7c-1.3-0.9-2.5-1.8-3.8-2.7c0.5-0.1,1-0.3,1.4-0.7c1.2-1.1,1.3-2.9,0.3-4c-1-1.2-2.8-1.3-4-0.3
		c-0.8,0.6-1.1,1.5-1,2.5c-1.9-1.5-3.9-3.1-5.8-4.8c0.7-0.3,1.3-0.6,2-1c0.6,0.9,1.6,1.4,2.8,1.4c0.6,0,1.2-0.2,1.7-0.5
		c0.8-0.5,1.5-1.2,1.7-2.2c0.2-0.7,0.1-1.5-0.2-2.2c0.2-0.1,0.3-0.2,0.5-0.3c4.6,0.7,9.5,1.3,14.7,1.5c0.5,0.7,1.3,1.1,2.2,1.1
		c0.9,0,1.7-0.4,2.3-1c0.8,0,1.7,0,2.5,0c1.2,0,2.3,0,3.5-0.1c0.6,0.6,1.4,1,2.3,1c0.9,0,1.7-0.5,2.2-1.2c4.5-0.3,9.1-0.8,13.9-1.5
		c0,0,0,0,0,0c1-0.2,2-0.3,3.1-0.5c0.3,0.2,0.6,0.3,0.9,0.5c-0.2,0.4-0.2,0.7-0.3,1.1c-0.6-0.3-1.3-0.4-2-0.3
		c-1.6,0.3-2.8,1.8-2.5,3.4c0.2,1.6,1.8,2.7,3.5,2.4c1.3-0.2,2.3-1.2,2.5-2.5c0.1,0.1,0.2,0.1,0.3,0.2c0.5,0.3,1.1,0.4,1.7,0.4
		c1.2,0,2.2-0.6,2.8-1.5C319.1,52.1,319.8,52.5,320.5,52.8z M259.7,48.1c0.2-0.1,0.5-0.2,0.7-0.2c0.6,0.1,1.2,0.2,1.8,0.3
		c0.2,0.1,0.4,0.3,0.5,0.4c0.1,0.1,0.2,0.3,0.3,0.4c0.1,0.1,0.2,0.3,0.2,0.4c0.2,0.4,0.2,0.9,0,1.4c-0.2,0.6-0.6,1.2-1.2,1.5
		c-1,0.6-2.4,0.3-3.1-0.6c-0.1-0.1-0.2-0.3-0.3-0.4c-0.1-0.2-0.1-0.3-0.2-0.5C258.2,49.8,258.7,48.6,259.7,48.1z M266.4,45.9
		c0.6-0.5,1-1.1,1.1-1.9c0-0.3,0-0.5,0-0.7c0.4-0.2,0.8-0.4,1.3-0.4c0.6,0,1.2,0.3,1.7,0.7c0.1,0.1,0.2,0.2,0.3,0.4
		c0.1,0.1,0.2,0.3,0.2,0.4c0.2,0.4,0.2,0.9,0.2,1.4c-0.1,0.7-0.5,1.2-1.1,1.6c-1,0.7-2.3,0.5-3.1-0.3c-0.1-0.1-0.2-0.2-0.3-0.4
		c-0.1-0.1-0.2-0.3-0.2-0.5C266.5,46.1,266.4,46,266.4,45.9z M305.8,43.3c0.5-0.4,1.1-0.7,1.7-0.7c0.5,0,0.9,0.1,1.3,0.4
		c0.9,0.6,1.3,1.8,1,2.8c-0.1,0.2-0.1,0.3-0.2,0.5c-0.1,0.1-0.2,0.2-0.3,0.3c-0.8,0.8-2.1,1-3.1,0.4c-0.6-0.4-1-0.9-1.1-1.6
		c-0.1-0.5,0-1,0.2-1.4c0.1-0.1,0.1-0.3,0.2-0.4C305.5,43.6,305.6,43.4,305.8,43.3z M317.8,50.4c0,0.2-0.1,0.4-0.2,0.5
		c-0.1,0.1-0.1,0.2-0.2,0.4c-0.7,0.9-2,1.2-3.1,0.6c-0.6-0.3-1-0.9-1.2-1.5c-0.1-0.5-0.1-1,0-1.4c0-0.1,0.1-0.3,0.2-0.4
		c0.1-0.2,0.2-0.3,0.3-0.4c0.5-0.5,1.1-0.8,1.8-0.8c0.4,0,0.8,0.1,1.1,0.3C317.6,48.2,318.1,49.3,317.8,50.4z M298.3,37.9
		c0.4-0.4,1-0.6,1.6-0.6c0.5,0,1,0.2,1.5,0.5c0.9,0.7,1.2,1.9,0.8,2.9c-0.1,0.2-0.2,0.3-0.3,0.5c-0.1,0.1-0.2,0.2-0.3,0.3
		c-0.1,0.1-0.2,0.1-0.3,0.2c-0.3-0.1-0.7-0.1-1-0.1c-0.4,0-0.8,0.2-1.1,0.4c-0.2-0.1-0.5-0.2-0.7-0.4c-0.5-0.4-0.9-1-1-1.7
		c-0.1-0.5,0-1,0.2-1.4c0.1-0.1,0.2-0.3,0.2-0.4C298,38.1,298.1,38,298.3,37.9z M292.6,31.4c0.6,0,1.2,0.2,1.6,0.6
		c0.8,0.8,1,2,0.5,3c-0.1,0.2-0.2,0.3-0.3,0.4c-0.1,0.1-0.2,0.2-0.3,0.3c-0.9,0.7-2.3,0.7-3.1-0.1c-0.5-0.5-0.8-1.1-0.8-1.8
		c0-0.5,0.1-0.9,0.3-1.3c0.1-0.1,0.2-0.3,0.3-0.4c0.1-0.1,0.3-0.2,0.4-0.3C291.6,31.6,292.1,31.4,292.6,31.4z M281.8,32
		c0.4-0.4,1-0.6,1.6-0.6c0.5,0,1,0.2,1.4,0.4c0.1,0.1,0.3,0.2,0.4,0.3c0.1,0.1,0.2,0.2,0.3,0.4c0.2,0.4,0.4,0.9,0.4,1.4
		c0,0.7-0.3,1.3-0.8,1.7c-0.9,0.8-2.2,0.8-3.1,0.1c-0.1-0.1-0.2-0.2-0.3-0.3c-0.1-0.1-0.2-0.3-0.3-0.4C280.8,34,280.9,32.8,281.8,32
		z M274.8,37.9c0.4-0.3,1-0.5,1.5-0.5c0.6,0,1.1,0.2,1.5,0.5c0.1,0.1,0.3,0.2,0.4,0.4c0.1,0.1,0.2,0.3,0.3,0.4
		c0.2,0.4,0.3,0.9,0.3,1.4c-0.1,0.7-0.4,1.3-0.9,1.7c-0.9,0.7-2.3,0.7-3.1-0.1c-0.1-0.1-0.2-0.2-0.3-0.3c-0.1-0.1-0.2-0.3-0.3-0.4
		C273.6,39.9,273.9,38.6,274.8,37.9z M273.8,42.3c0.6,0.7,1.5,1,2.4,1c0.8,0,1.6-0.3,2.2-0.8c0.8-0.6,1.2-1.4,1.3-2.4
		c0.1-0.8-0.1-1.5-0.5-2.1c0.6-0.5,1.2-1,1.8-1.6c0.6,0.5,1.4,0.9,2.3,0.9c0.9,0,1.7-0.3,2.4-0.9c0.7-0.6,1.1-1.5,1.2-2.5
		c0-0.8-0.2-1.5-0.6-2.1c0.6-0.5,1.2-1.1,1.7-1.6c0.3,0.3,0.9,0.9,1.7,1.7c-0.4,0.6-0.7,1.3-0.6,2.1c0,1,0.5,1.8,1.2,2.5
		c0.7,0.6,1.5,0.9,2.3,0.9c0.9,0,1.7-0.3,2.3-0.9c0.6,0.5,1.2,1,1.9,1.5c-0.4,0.7-0.6,1.4-0.5,2.2c0.1,0.9,0.6,1.8,1.4,2.4
		c0.2,0.1,0.3,0.2,0.5,0.3c-0.4,0.6-0.6,1.3-0.6,2c0.1,1.6,1.5,2.8,3.2,2.7c1.6-0.2,2.8-1.7,2.5-3.3c-0.1-0.8-0.5-1.5-1.1-2
		c0,0,0.1-0.1,0.1-0.1c0.6,0.5,1.3,0.9,2,1.4c-0.3,0.7-0.5,1.5-0.3,2.2c0.2,0.9,0.7,1.7,1.4,2.2c-3.6,0.5-7.2,0.8-10.6,1.1
		c0.1-0.3,0.1-0.6,0.1-0.9c-0.1-1.6-1.5-2.9-3-2.8c-1.6,0.1-2.8,1.4-2.8,3c0,0.3,0.1,0.6,0.2,0.9c-1.7,0-3.3,0-4.9,0
		c0.1-0.3,0.2-0.6,0.2-0.9c0-1.6-1.2-3-2.8-3c-1.6-0.1-2.9,1.2-3,2.8c0,0.3,0,0.6,0.1,1c-2.9-0.2-5.7-0.4-8.4-0.7
		c0.1,0,0.2-0.1,0.3-0.1c0.8-0.5,1.3-1.4,1.5-2.3c0.1-0.8,0-1.5-0.3-2.2C272.5,43.3,273.2,42.8,273.8,42.3z M266.1,47.6
		c0.1,0.1,0.1,0.1,0.2,0.2c-0.1,0-0.3,0-0.4-0.1C266,47.7,266.1,47.6,266.1,47.6z M252.9,46.2c0.4,0.7,1.1,1.3,1.9,1.5
		c0.9,0.2,1.7,0,2.4-0.5c0.5,0.1,0.9,0.2,1.4,0.3c-1.2,0.9-1.6,2.5-1.1,3.9c-0.7,0.4-1.4,0.7-2.1,1.1c-0.4-0.6-1.1-1.1-1.8-1.3
		c-2.3-2-4.5-4.1-6.8-6.4c0.1,0,0.1-0.1,0.2-0.1C248.9,45.2,250.9,45.7,252.9,46.2z M241.4,40.6c-0.1,0.4-0.2,0.7-0.2,1.1
		c-3.3-1.1-6.4-2.3-9.1-3.4c0.5-0.9,0.5-2-0.1-2.9c0.3-0.3,0.6-0.7,0.8-1.1c0.6-1.4,0.1-2.9-1-3.6c0.1-0.1,0.2-0.2,0.2-0.3
		C235.2,34,238.3,37.4,241.4,40.6z M181.1,44.4c0.7,0.5,1.6,0.6,2.5,0.3c0.9-0.3,1.5-0.9,1.8-1.7c6.7-2.2,13.6-5,20.6-8.5
		c0.8,0.3,1.6,0.3,2.4-0.1c0.8-0.4,1.3-1.1,1.5-1.9c1.4-0.7,2.8-1.5,4.2-2.3c0.6,0.4,2,1.3,4.1,2.5c0.2,0.8,0.7,1.5,1.5,1.9
		c0.8,0.4,1.7,0.4,2.4,0.1c1.2,0.6,2.5,1.2,3.9,1.9c-2,2.4-4.4,5.3-7.3,8.4c-1-1.1-2.6-1.4-3.8-0.5c-1.3,0.9-1.6,2.6-0.7,4
		c0.2,0.3,0.4,0.5,0.6,0.6c-1.1,1.1-2.2,2.1-3.4,3.2c0-0.5-0.1-1-0.4-1.5c-0.8-1.4-2.6-1.8-3.9-1c-1.3,0.8-1.8,2.5-1,3.9
		c0.5,0.9,1.3,1.4,2.2,1.5c-1.8,1.6-3.8,3.2-5.8,4.9c-0.3-0.1-0.7-0.1-1-0.2c0.1-1.7-1-3.2-2.7-3.6c-1.6-0.4-3.3,0.5-4,2.1
		c-0.8-0.2-1.5-0.4-2.3-0.7c0.2-1.7-0.7-3.3-2.3-3.8c-1.6-0.5-3.4,0.2-4.2,1.7c-0.8-0.3-1.5-0.6-2.2-0.9c0.4-1.6-0.4-3.3-2-4
		c-1.5-0.7-3.4-0.1-4.3,1.3c-0.7-0.3-1.4-0.7-2.2-1c0.4-1.4,0-2.9-1.1-3.8c0.5-0.3,0.8-0.7,1.1-1.2
		C177.2,45.5,179.1,44.9,181.1,44.4z M191.3,58c0,0.1-0.1,0.3-0.2,0.4c-0.5,1-1.8,1.5-2.9,1.1c-0.7-0.2-1.2-0.7-1.5-1.3
		c-0.2-0.4-0.3-0.9-0.2-1.4c0-0.1,0.1-0.3,0.1-0.4c0.1-0.2,0.2-0.3,0.3-0.5c0.5-0.7,1.2-1.2,2.1-1.2c0.3,0,0.5,0,0.8,0.1
		c1.1,0.4,1.7,1.4,1.7,2.5C191.4,57.6,191.4,57.8,191.3,58z M182.6,54.8c-0.1,0.1-0.1,0.3-0.2,0.4c-0.6,1-1.9,1.4-3,0.9
		c-0.6-0.3-1.1-0.8-1.3-1.4c-0.2-0.5-0.2-1-0.1-1.4c0-0.1,0.1-0.3,0.1-0.4c0.1-0.2,0.2-0.3,0.3-0.5c0.5-0.6,1.2-1,1.9-1
		c0.3,0,0.7,0.1,1,0.2c1,0.5,1.6,1.6,1.4,2.7C182.7,54.5,182.6,54.7,182.6,54.8z M174.3,50.4c0,0.2-0.1,0.4-0.2,0.5
		c-0.1,0.1-0.1,0.2-0.2,0.4c-0.7,0.9-2,1.2-3.1,0.6c-0.6-0.3-1-0.9-1.2-1.5c-0.1-0.5-0.1-1,0-1.4c0-0.1,0.1-0.3,0.2-0.4
		c0.1-0.2,0.2-0.3,0.3-0.4c0.4-0.4,0.9-0.7,1.5-0.8c0.4,0.1,0.8,0.2,1.2,0.2c0.1,0,0.2,0.1,0.2,0.1
		C174.1,48.2,174.5,49.3,174.3,50.4z M169.6,47.2c-0.1,0.1-0.3,0.3-0.4,0.4c-0.1-0.1-0.3-0.2-0.4-0.2
		C169.1,47.4,169.3,47.3,169.6,47.2z M162.2,43.3c0.5-0.4,1.1-0.7,1.7-0.7c0.5,0,0.9,0.1,1.3,0.4c0.9,0.6,1.3,1.8,1,2.8
		c-0.1,0.2-0.1,0.3-0.2,0.5c-0.1,0.1-0.2,0.2-0.3,0.3c-0.1,0.1-0.2,0.2-0.4,0.3c-0.7,0.1-1.4,0.2-2.1,0.4c-0.2-0.1-0.5-0.2-0.7-0.3
		c-0.6-0.4-1-0.9-1.1-1.6c-0.1-0.5,0-1,0.2-1.4c0.1-0.1,0.1-0.3,0.2-0.4C162,43.6,162.1,43.4,162.2,43.3z M154.7,37.9
		c0.4-0.4,1-0.6,1.6-0.6c0.5,0,1,0.2,1.5,0.5c0.9,0.7,1.2,1.9,0.8,2.9c-0.1,0.2-0.2,0.3-0.3,0.5c-0.1,0.1-0.2,0.2-0.3,0.3
		c-0.4,0.4-0.9,0.6-1.4,0.6c-0.5-0.4-1.1-0.5-1.8-0.5c-0.5-0.4-0.9-1-0.9-1.6c-0.1-0.5,0-1,0.2-1.4c0.1-0.1,0.2-0.3,0.2-0.4
		C154.4,38.1,154.6,38,154.7,37.9z M149.1,31.4c0.6,0,1.2,0.2,1.6,0.6c0.8,0.8,1,2,0.5,3c-0.1,0.2-0.2,0.3-0.3,0.4
		c-0.1,0.1-0.2,0.2-0.3,0.3c-0.9,0.7-2.3,0.7-3.1-0.1c-0.5-0.5-0.8-1.1-0.8-1.8c0-0.5,0.1-0.9,0.3-1.3c0.1-0.1,0.2-0.3,0.3-0.4
		c0.1-0.1,0.3-0.2,0.4-0.3C148.1,31.6,148.6,31.4,149.1,31.4z M138.3,32c0.4-0.4,1-0.6,1.6-0.6c0.5,0,1,0.2,1.4,0.4
		c0.1,0.1,0.3,0.2,0.4,0.3c0.1,0.1,0.2,0.2,0.3,0.4c0.2,0.4,0.4,0.9,0.4,1.4c0,0.7-0.3,1.3-0.8,1.7c-0.9,0.8-2.2,0.8-3.1,0.1
		c-0.1-0.1-0.2-0.2-0.3-0.3c-0.1-0.1-0.2-0.3-0.3-0.4C137.2,34,137.4,32.8,138.3,32z M131.3,37.9c0.4-0.3,1-0.5,1.5-0.5
		c0.6,0,1.1,0.2,1.5,0.5c0.1,0.1,0.3,0.2,0.4,0.4c0.1,0.1,0.2,0.3,0.3,0.4c0.2,0.4,0.3,0.9,0.3,1.4c-0.1,0.7-0.4,1.3-0.9,1.7
		c-0.9,0.7-2.3,0.7-3.1-0.1c-0.1-0.1-0.2-0.2-0.3-0.3c-0.1-0.1-0.2-0.3-0.3-0.4C130.1,39.9,130.4,38.6,131.3,37.9z M130.3,42.3
		c0.6,0.7,1.5,1,2.4,1c0.8,0,1.6-0.3,2.2-0.8c0.8-0.6,1.2-1.4,1.3-2.4c0.1-0.8-0.1-1.5-0.5-2.1c0.6-0.5,1.2-1,1.8-1.6
		c0.6,0.5,1.4,0.9,2.3,0.9c0.9,0,1.7-0.3,2.4-0.9c0.7-0.6,1.1-1.5,1.2-2.5c0-0.8-0.2-1.5-0.6-2.1c0.6-0.5,1.2-1.1,1.7-1.6
		c0.3,0.3,0.9,0.9,1.7,1.7c-0.4,0.6-0.7,1.3-0.6,2.1c0,1,0.5,1.8,1.2,2.5c0.7,0.6,1.5,0.9,2.3,0.9c0.9,0,1.7-0.3,2.3-0.9
		c0.6,0.5,1.2,1,1.9,1.5c-0.4,0.7-0.6,1.4-0.5,2.2c0.1,0.7,0.4,1.3,0.8,1.8c-1,0.5-1.6,1.6-1.5,2.9c0.1,1.6,1.5,2.8,3.2,2.7
		c1.6-0.2,2.8-1.7,2.5-3.3c-0.1-0.5-0.2-0.9-0.4-1.2c0.5-0.2,1-0.5,1.4-0.9c0.6,0.5,1.3,0.9,2,1.4c-0.3,0.7-0.5,1.5-0.3,2.2
		c0.2,0.8,0.6,1.4,1.1,1.9c-4.2,0.6-8.3,1.1-12.2,1.3c0.1-0.3,0.1-0.6,0.1-0.9c-0.1-1.6-1.5-2.9-3-2.8c-1.6,0.1-2.8,1.4-2.8,3
		c0,0.3,0.1,0.6,0.2,0.9c-1.7,0-3.3,0-4.9,0c0.1-0.3,0.2-0.6,0.2-0.9c0-1.6-1.2-3-2.8-3c-1.6-0.1-2.9,1.2-3,2.8c0,0.3,0,0.6,0.1,1
		c-2.3-0.1-4.6-0.3-6.8-0.5c0.2-0.1,0.4-0.2,0.6-0.3c0.8-0.5,1.3-1.4,1.5-2.3c0.1-0.8,0-1.5-0.3-2.2C129,43.3,129.6,42.8,130.3,42.3
		z M123.9,43.3c0.4-0.3,0.9-0.4,1.4-0.4c0.6,0,1.2,0.2,1.7,0.7c0.1,0.1,0.2,0.2,0.3,0.4c0.1,0.1,0.2,0.3,0.2,0.4
		c0.2,0.4,0.2,0.9,0.2,1.4c-0.1,0.7-0.5,1.2-1.1,1.6c-1,0.7-2.3,0.5-3.1-0.3c-0.1-0.1-0.2-0.2-0.3-0.4c-0.1-0.1-0.2-0.3-0.2-0.5
		C122.6,45.1,122.9,43.9,123.9,43.3z M122.6,47.6c0.2,0.2,0.4,0.4,0.6,0.5c-0.4,0-0.8-0.1-1.2-0.2C122.2,47.8,122.4,47.7,122.6,47.6
		z M116.1,48.1C116.1,48,116.1,48,116.1,48.1c1,0.2,2,0.3,3,0.5c0,0,0,0,0,0c0.1,0.1,0.2,0.3,0.3,0.4c0.1,0.1,0.2,0.3,0.2,0.4
		c0.2,0.4,0.2,0.9,0,1.4c-0.2,0.6-0.6,1.2-1.2,1.5c-1,0.6-2.4,0.3-3.1-0.6c-0.1-0.1-0.2-0.3-0.3-0.4c-0.1-0.2-0.1-0.3-0.2-0.5
		C114.7,49.8,115.1,48.6,116.1,48.1z M108,52.1c0.3-0.1,0.6-0.2,1-0.2c0.8,0,1.5,0.4,1.9,1c0.1,0.1,0.2,0.3,0.3,0.4
		c0.1,0.1,0.1,0.3,0.2,0.4c0.1,0.5,0.1,0.9-0.1,1.4c-0.2,0.6-0.7,1.1-1.3,1.4c-1.1,0.5-2.4,0.1-3-0.8c-0.1-0.1-0.2-0.3-0.2-0.4
		c-0.1-0.2-0.1-0.3-0.1-0.5C106.4,53.7,107,52.6,108,52.1z M100.3,55.3c0.9,0,1.6,0.5,2.1,1.2c0.1,0.1,0.2,0.3,0.3,0.5
		c0.1,0.1,0.1,0.3,0.1,0.5c0.1,0.5,0,0.9-0.2,1.4c-0.3,0.6-0.8,1.1-1.5,1.3c-1.1,0.4-2.4-0.2-2.9-1.1c-0.1-0.1-0.1-0.3-0.2-0.4
		c0-0.2-0.1-0.3-0.1-0.5c-0.1-1.1,0.6-2.2,1.7-2.5C99.8,55.3,100,55.3,100.3,55.3z M97.1,59.2c0.5,1.2,1.8,2,3.1,2
		c0.4,0,0.8-0.1,1.1-0.2c0.9-0.3,1.7-1,2.1-1.8c0.3-0.7,0.4-1.5,0.2-2.2c0.8-0.3,1.5-0.5,2.3-0.9c0.6,1,1.7,1.7,2.9,1.7
		c0.5,0,1-0.1,1.5-0.3c0.9-0.4,1.6-1.1,1.9-2c0.3-0.7,0.3-1.5,0-2.2c0.7-0.4,1.5-0.7,2.2-1.1c0.6,0.9,1.6,1.4,2.8,1.4
		c0.6,0,1.2-0.2,1.7-0.5c0.8-0.5,1.5-1.2,1.7-2.2c0.2-0.7,0.1-1.5-0.2-2.2c0,0,0.1-0.1,0.1-0.1c4.1,0.6,8.5,1,13.2,1.3
		c0.5,0.7,1.3,1.1,2.2,1.1c0.9,0,1.7-0.4,2.3-1c0.8,0,1.7,0,2.5,0c1.2,0,2.3,0,3.5-0.1c0.6,0.6,1.4,1,2.3,1c0.9,0,1.7-0.5,2.2-1.2
		c4.6-0.3,9.3-0.8,14.2-1.6c0.3,0.1,0.6,0.1,0.9,0.1c0.7,0,1.4-0.2,1.9-0.6c0.5-0.1,1-0.2,1.5-0.3c0.4,0.3,0.9,0.5,1.4,0.8
		c-0.3,0.7-0.4,1.5-0.1,2.2c0.3,0.9,0.9,1.7,1.7,2.1c0.5,0.3,1.1,0.4,1.7,0.4c1.2,0,2.2-0.6,2.8-1.5c0.7,0.4,1.4,0.7,2.2,1.1
		c-0.2,0.7-0.2,1.5,0,2.2c0.3,0.9,1,1.6,1.9,2c0.5,0.2,0.9,0.3,1.4,0.3c1.3,0,2.4-0.7,3-1.8c0.7,0.3,1.5,0.6,2.3,0.9
		c-0.2,0.7-0.1,1.5,0.2,2.2c0.4,0.9,1.2,1.5,2.1,1.8c0.4,0.1,0.8,0.2,1.1,0.2c1.4,0,2.6-0.8,3.1-2c0.8,0.2,1.5,0.4,2.3,0.7
		c-0.1,0.8,0,1.5,0.4,2.2c0.5,0.8,1.3,1.4,2.2,1.6c0.3,0.1,0.5,0.1,0.8,0.1c0.1,0,0.3,0,0.4,0c-2.3,1.6-4.7,3.3-7.2,4.8
		c-0.7-1.3-2.2-2-3.5-1.5c-1.4,0.5-2.2,2.1-1.7,3.6c0.1,0.3,0.2,0.5,0.4,0.8c-1.3,0.7-2.7,1.5-4.1,2.2c0.1-0.5,0.1-1,0-1.5
		c-0.4-1.5-2-2.4-3.5-2.1c-1.5,0.3-2.4,1.8-2.1,3.4c0.2,0.9,0.8,1.7,1.6,2c-0.3,0.2-0.7,0.3-1.1,0.5c-0.1,0-0.1,0.1-0.2,0.1
		c-5.9,2.6-12.2,4.7-18.9,6c-0.1-1.5-1.3-2.6-2.7-2.7c-1.5-0.1-2.8,1.1-2.9,2.7c0,0.3,0,0.6,0.1,0.9c-1.5,0.2-3.1,0.3-4.6,0.5
		c0.3-0.4,0.5-0.9,0.6-1.4c0.2-1.6-0.9-3-2.3-3.3c-1.5-0.3-2.9,0.7-3.2,2.3c-0.2,1,0.1,1.9,0.7,2.6c-2.8,0.1-5.6,0-8.3-0.3
		c0,0,0,0,0,0c-4.3-0.4-8.5-1-12.8-2c0.5-1.4-0.1-3-1.4-3.6c-1.3-0.7-3-0.1-3.8,1.3c-0.1,0.3-0.2,0.6-0.3,0.8
		c-1.5-0.4-3-0.9-4.4-1.5c0.5-0.2,0.9-0.6,1.1-1.1c0.8-1.4,0.4-3.1-0.8-4c-1.3-0.8-3-0.5-3.9,0.8c-0.6,0.8-0.7,1.8-0.3,2.7
		c-0.6-0.2-1.1-0.4-1.7-0.7c-0.1,0-0.1-0.1-0.2-0.1c-1.9-0.8-3.8-1.7-5.7-2.6c0,0-0.1,0-0.1-0.1c-3.7-1.9-7.5-4-11.2-6.4
		c0.7-0.8,0.8-2,0.5-2.9c0.3,0.1,0.6,0.1,0.9,0.1c0.3,0,0.5,0,0.8-0.1c1-0.2,1.8-0.8,2.3-1.6c0.4-0.7,0.6-1.4,0.5-2.2
		C95.6,59.6,96.4,59.4,97.1,59.2z M88,61.3c0.1,0.2,0.1,0.3,0.2,0.5c-0.8-0.1-1.7,0.1-2.4,0.8c-0.2,0.2-0.4,0.5-0.5,0.7c0,0,0,0,0,0
		c0.3-0.5,0.4-1.1,0.4-1.6C86.4,61.5,87.2,61.4,88,61.3z M61.1,61c0-0.2,0.1-0.3,0.1-0.5c0.4-0.9,1.3-1.6,2.3-1.6c0.1,0,0.2,0,0.3,0
		c1.1,0.1,2,1,2.1,2.2c0,0.2,0,0.3,0,0.5c0,0.2,0,0.3-0.1,0.5c-0.3,1.1-1.4,1.8-2.7,1.7c-0.7-0.1-1.3-0.4-1.7-1
		c-0.3-0.4-0.5-0.8-0.5-1.3C61.1,61.3,61.1,61.2,61.1,61z M52,59.2c0-0.2,0.1-0.3,0.2-0.5c0.4-0.8,1.2-1.4,2.2-1.4
		c0.2,0,0.4,0,0.5,0.1c1.1,0.3,1.9,1.3,1.9,2.4c0,0.2,0,0.3,0,0.5c0,0.2-0.1,0.3-0.1,0.5c-0.4,1-1.6,1.7-2.8,1.4
		c-0.7-0.2-1.2-0.6-1.6-1.1c-0.3-0.4-0.4-0.9-0.3-1.4C52,59.5,52,59.3,52,59.2z M43.1,56.4c0.1-0.2,0.2-0.3,0.3-0.5
		c0.5-0.7,1.2-1.2,2.1-1.2c0.3,0,0.5,0,0.8,0.1c1.1,0.4,1.7,1.4,1.7,2.5c0,0.2,0,0.4-0.1,0.5c0,0.1-0.1,0.3-0.2,0.4
		c-0.5,1-1.8,1.5-2.9,1.1c-0.7-0.2-1.2-0.7-1.5-1.3c-0.2-0.4-0.3-0.9-0.2-1.4C43,56.7,43.1,56.6,43.1,56.4z M34.5,52.9
		c0.1-0.2,0.2-0.3,0.3-0.5c0.5-0.6,1.2-1,1.9-1c0.3,0,0.7,0.1,1,0.2c1,0.5,1.6,1.6,1.4,2.7c0,0.2-0.1,0.4-0.1,0.5
		c-0.1,0.1-0.1,0.3-0.2,0.4c-0.6,1-1.9,1.4-3,0.9c-0.6-0.3-1.1-0.8-1.3-1.4c-0.2-0.5-0.2-1-0.1-1.4C34.4,53.1,34.5,53,34.5,52.9z
		 M26.6,48.2c0.5-0.5,1.1-0.8,1.8-0.8c0.4,0,0.8,0.1,1.1,0.3c1,0.5,1.5,1.7,1.2,2.8c0,0.2-0.1,0.4-0.2,0.5c-0.1,0.1-0.1,0.2-0.2,0.4
		c-0.7,0.9-2,1.2-3.1,0.6c-0.6-0.3-1-0.9-1.2-1.5c-0.1-0.5-0.1-1,0-1.4c0-0.1,0.1-0.3,0.2-0.4C26.3,48.5,26.5,48.3,26.6,48.2z
		 M18.7,43.3c0.5-0.4,1.1-0.7,1.7-0.7c0.5,0,0.9,0.1,1.3,0.4c0.9,0.6,1.3,1.8,1,2.8c-0.1,0.2-0.1,0.3-0.2,0.5
		c-0.1,0.1-0.2,0.2-0.3,0.3c-0.8,0.8-2.1,1-3.1,0.4c-0.6-0.4-1-0.9-1.1-1.6c-0.1-0.5,0-1,0.2-1.4c0.1-0.1,0.1-0.3,0.2-0.4
		C18.4,43.6,18.6,43.4,18.7,43.3z M11.2,37.9c0.4-0.4,1-0.6,1.6-0.6c0.5,0,1,0.2,1.5,0.5c0.9,0.7,1.2,1.9,0.8,2.9
		c-0.1,0.2-0.2,0.3-0.3,0.5c-0.1,0.1-0.2,0.2-0.3,0.3c-0.8,0.8-2.2,0.9-3.1,0.2c-0.5-0.4-0.9-1-1-1.7c-0.1-0.5,0-1,0.2-1.4
		c0.1-0.1,0.2-0.3,0.2-0.4C10.9,38.1,11,38,11.2,37.9z M5.5,31.4c0.6,0,1.2,0.2,1.6,0.6c0.8,0.8,1,2,0.5,3c-0.1,0.2-0.2,0.3-0.3,0.4
		c-0.1,0.1-0.2,0.2-0.3,0.3c-0.9,0.7-2.3,0.7-3.1-0.1c-0.5-0.5-0.8-1.1-0.8-1.8c0-0.5,0.1-0.9,0.3-1.3c0.1-0.1,0.2-0.3,0.3-0.4
		C3.8,32.1,4,32,4.1,31.9C4.5,31.6,5,31.4,5.5,31.4z"/>
	<radialGradient id="SVGID_2_" cx="201.5465" cy="41.0361" r="3.0055" gradientUnits="userSpaceOnUse">
		<stop  offset="0" style="stop-color:#231F20"/>
		<stop  offset="1" style="stop-color:#0D0D0D"/>
	</radialGradient>
	<path class="st1" d="M202.7,43.7c1.6-0.7,2.3-2.5,1.6-4c-0.7-1.5-2.5-2.1-4-1.4c-1.5,0.7-2.2,2.4-1.6,3.9
		C199.4,43.8,201.2,44.4,202.7,43.7z"/>
	<radialGradient id="SVGID_3_" cx="189.9432" cy="36.2184" r="2.9208" gradientUnits="userSpaceOnUse">
		<stop  offset="0" style="stop-color:#231F20"/>
		<stop  offset="1" style="stop-color:#0D0D0D"/>
	</radialGradient>
	<path class="st2" d="M191,39c1.5-0.6,2.2-2.3,1.6-3.8c-0.6-1.5-2.3-2.3-3.7-1.7c-1.4,0.6-2.2,2.2-1.6,3.8
		C187.8,38.8,189.5,39.6,191,39z"/>
	<radialGradient id="SVGID_4_" cx="165.0175" cy="52.2067" r="3.011" gradientUnits="userSpaceOnUse">
		<stop  offset="0" style="stop-color:#231F20"/>
		<stop  offset="1" style="stop-color:#0D0D0D"/>
	</radialGradient>
	<path class="st3" d="M165.5,55.1c1.7-0.3,2.8-1.9,2.5-3.5c-0.3-1.6-1.9-2.7-3.5-2.4c-1.6,0.3-2.8,1.8-2.5,3.4
		C162.2,54.3,163.8,55.4,165.5,55.1z"/>
	<radialGradient id="SVGID_5_" cx="126.7785" cy="53.5168" r="3.0108" gradientUnits="userSpaceOnUse">
		<stop  offset="0" style="stop-color:#231F20"/>
		<stop  offset="1" style="stop-color:#0D0D0D"/>
	</radialGradient>
	<path class="st4" d="M126.5,56.5c1.7,0.2,3.2-1,3.3-2.7c0.1-1.6-1.1-3.1-2.8-3.2c-1.6-0.2-3.1,1-3.3,2.6
		C123.5,54.8,124.8,56.3,126.5,56.5z"/>
	<radialGradient id="SVGID_6_" cx="119.1231" cy="43.5489" r="2.9173" gradientUnits="userSpaceOnUse">
		<stop  offset="0" style="stop-color:#231F20"/>
		<stop  offset="1" style="stop-color:#0D0D0D"/>
	</radialGradient>
	<path class="st5" d="M118.7,46.5c1.6,0.3,3.1-0.9,3.3-2.5c0.2-1.6-0.8-3.1-2.4-3.4c-1.5-0.2-3,0.8-3.3,2.4
		C116,44.7,117,46.2,118.7,46.5z"/>
	<radialGradient id="SVGID_7_" cx="89.5515" cy="44.8228" r="3.0101" gradientUnits="userSpaceOnUse">
		<stop  offset="0" style="stop-color:#231F20"/>
		<stop  offset="1" style="stop-color:#0D0D0D"/>
	</radialGradient>
	<path class="st6" d="M92.4,45.9c0.5-1.5-0.3-3.2-1.8-3.8c-1.5-0.6-3.3,0.2-3.9,1.7c-0.6,1.5,0.2,3.3,1.8,3.9
		C90.1,48.2,91.9,47.4,92.4,45.9z"/>
	<radialGradient id="SVGID_8_" cx="84.7101" cy="33.23" r="2.9154" gradientUnits="userSpaceOnUse">
		<stop  offset="0" style="stop-color:#231F20"/>
		<stop  offset="1" style="stop-color:#0D0D0D"/>
	</radialGradient>
	<path class="st7" d="M83.5,35.9c1.5,0.7,3.2,0,3.8-1.6c0.6-1.5,0-3.2-1.4-3.8c-1.4-0.6-3.1,0-3.8,1.5C81.4,33.5,82,35.3,83.5,35.9z
		"/>
	<radialGradient id="SVGID_9_" cx="347.0557" cy="41.0361" r="3.0054" gradientUnits="userSpaceOnUse">
		<stop  offset="0" style="stop-color:#231F20"/>
		<stop  offset="1" style="stop-color:#0D0D0D"/>
	</radialGradient>
	<path class="st8" d="M345.8,38.3c-1.5,0.7-2.2,2.4-1.6,3.9c0.6,1.5,2.4,2.2,4,1.5c1.6-0.7,2.3-2.5,1.6-4
		C349.1,38.3,347.3,37.7,345.8,38.3z"/>
	<radialGradient id="SVGID_10_" cx="335.4528" cy="36.2184" r="2.921" gradientUnits="userSpaceOnUse">
		<stop  offset="0" style="stop-color:#231F20"/>
		<stop  offset="1" style="stop-color:#0D0D0D"/>
	</radialGradient>
	<path class="st9" d="M336.5,39c1.5-0.6,2.2-2.3,1.6-3.8c-0.6-1.5-2.3-2.3-3.7-1.7c-1.4,0.6-2.2,2.2-1.6,3.8
		C333.3,38.8,335,39.6,336.5,39z"/>
	<radialGradient id="SVGID_11_" cx="272.2877" cy="53.5168" r="3.0107" gradientUnits="userSpaceOnUse">
		<stop  offset="0" style="stop-color:#231F20"/>
		<stop  offset="1" style="stop-color:#0D0D0D"/>
	</radialGradient>
	<path class="st10" d="M272.6,50.6c-1.6-0.2-3.1,1-3.3,2.6c-0.2,1.6,1,3.1,2.7,3.3c1.7,0.2,3.2-1,3.3-2.7
		C275.5,52.2,274.2,50.7,272.6,50.6z"/>
	<radialGradient id="SVGID_12_" cx="235.0605" cy="44.8228" r="3.0102" gradientUnits="userSpaceOnUse">
		<stop  offset="0" style="stop-color:#231F20"/>
		<stop  offset="1" style="stop-color:#0D0D0D"/>
	</radialGradient>
	<path class="st11" d="M236.1,42c-1.5-0.6-3.3,0.2-3.9,1.7c-0.6,1.5,0.2,3.3,1.8,3.9c1.6,0.6,3.4-0.2,3.9-1.7
		C238.5,44.3,237.7,42.6,236.1,42z"/>
	<radialGradient id="SVGID_13_" cx="230.0639" cy="119.3489" r="3.0906" gradientUnits="userSpaceOnUse">
		<stop  offset="0" style="stop-color:#231F20"/>
		<stop  offset="1" style="stop-color:#0D0D0D"/>
	</radialGradient>
	<path class="st12" d="M230.4,123.5c0.1,0.1,0.1,0.1,0.2,0.1s0.2,0,0.2-0.1c0.1-0.1,0.1-0.3,0-0.5c-0.6-0.6-0.9-1.2-1-2.1
		c-0.1-1.1-0.1-2.9-0.2-5.6c0-0.2-0.1-0.3-0.3-0.3c0,0,0,0,0,0c-0.2,0-0.3,0.2-0.3,0.3c0,2.7,0.1,4.6,0.2,5.6
		C229.4,122,229.8,122.8,230.4,123.5z"/>
	<radialGradient id="SVGID_14_" cx="241.1237" cy="123.4562" r="4.8655" gradientUnits="userSpaceOnUse">
		<stop  offset="0" style="stop-color:#231F20"/>
		<stop  offset="1" style="stop-color:#0D0D0D"/>
	</radialGradient>
	<path class="st13" d="M234.7,124.8c1.4,0.3,3.3,0.5,5.3,0.5c2.7,0,7.7-0.4,7.7-1.9c0-0.8-1.3-1.3-3.9-1.6c-0.2,0-0.3,0.1-0.4,0.3
		c0,0.2,0.1,0.3,0.3,0.4c2.7,0.3,3.3,0.9,3.3,1c0,0.4-2.6,1.2-7.1,1.2c-2,0-3.8-0.2-5.2-0.4c-0.2,0-0.4,0.1-0.4,0.3
		C234.4,124.5,234.6,124.7,234.7,124.8z"/>
	<radialGradient id="SVGID_15_" cx="247.9556" cy="99.0938" r="1.9223" gradientUnits="userSpaceOnUse">
		<stop  offset="0" style="stop-color:#231F20"/>
		<stop  offset="1" style="stop-color:#0D0D0D"/>
	</radialGradient>
	<path class="st14" d="M248.4,99.8c0,0.3,0,0.8,0,1.5c0,0.2,0.1,0.3,0.3,0.3c0,0,0,0,0,0c0.2,0,0.3-0.2,0.3-0.3c0-0.7,0-1.2,0-1.5
		c0-1.5-0.8-2.4-1.6-3.1c-0.1-0.1-0.3-0.1-0.5,0c-0.1,0.1-0.1,0.3,0,0.5C247.7,97.8,248.3,98.6,248.4,99.8z"/>
	<radialGradient id="SVGID_16_" cx="66.6348" cy="156.3919" r="4.8655" gradientUnits="userSpaceOnUse">
		<stop  offset="0" style="stop-color:#231F20"/>
		<stop  offset="1" style="stop-color:#0D0D0D"/>
	</radialGradient>
	<path class="st15" d="M72.9,157c-1.4,0.3-3.2,0.4-5.2,0.4c-4.5,0-7-0.8-7.1-1.2c0-0.1,0.6-0.7,3.3-1c0.2,0,0.3-0.2,0.3-0.4
		c0-0.2-0.2-0.3-0.4-0.3c-2.6,0.3-3.9,0.9-3.9,1.6c0,1.5,5.1,1.9,7.7,1.9c2,0,3.9-0.2,5.3-0.5c0.2,0,0.3-0.2,0.3-0.4
		C73.2,157.1,73.1,157,72.9,157z"/>
	<radialGradient id="SVGID_17_" cx="77.6954" cy="152.2841" r="3.0911" gradientUnits="userSpaceOnUse">
		<stop  offset="0" style="stop-color:#231F20"/>
		<stop  offset="1" style="stop-color:#0D0D0D"/>
	</radialGradient>
	<path class="st16" d="M77.1,156.6c0.1,0,0.2,0,0.2-0.1c0.7-0.7,1.1-1.5,1.2-2.5c0.1-1.1,0.1-3,0.2-5.6c0-0.2-0.1-0.3-0.3-0.3
		c0,0,0,0,0,0c-0.2,0-0.3,0.1-0.3,0.3c0,2.6-0.1,4.5-0.2,5.6c-0.1,0.8-0.4,1.5-1,2.1c-0.1,0.1-0.1,0.3,0,0.5
		C76.9,156.5,77,156.6,77.1,156.6z"/>
	<radialGradient id="SVGID_18_" cx="59.8034" cy="132.0295" r="1.9219" gradientUnits="userSpaceOnUse">
		<stop  offset="0" style="stop-color:#231F20"/>
		<stop  offset="1" style="stop-color:#0D0D0D"/>
	</radialGradient>
	<path class="st17" d="M60.8,130.1c0.1-0.1,0.1-0.3,0-0.5c-0.1-0.1-0.3-0.1-0.5,0c-0.8,0.7-1.6,1.6-1.6,3.1c0,0.3,0,0.8,0,1.5
		c0,0.2,0.1,0.3,0.3,0.3c0,0,0,0,0,0c0.2,0,0.3-0.1,0.3-0.3c0-0.7,0-1.2,0-1.5C59.4,131.5,60.1,130.8,60.8,130.1z"/>
	<radialGradient id="SVGID_19_" cx="105.0995" cy="141.6752" r="4.8654" gradientUnits="userSpaceOnUse">
		<stop  offset="0" style="stop-color:#231F20"/>
		<stop  offset="1" style="stop-color:#0D0D0D"/>
	</radialGradient>
	<path class="st18" d="M111.4,142.3c-1.4,0.3-3.2,0.4-5.2,0.4c-4.5,0-7-0.8-7.1-1.2c0-0.1,0.6-0.7,3.3-1c0.2,0,0.3-0.2,0.3-0.4
		c0-0.2-0.2-0.3-0.4-0.3c-2.6,0.3-3.9,0.9-3.9,1.6c0,1.5,5.1,1.9,7.7,1.9c2,0,3.9-0.2,5.3-0.5c0.2,0,0.3-0.2,0.3-0.4
		C111.7,142.4,111.5,142.3,111.4,142.3z"/>
	<radialGradient id="SVGID_20_" cx="116.1592" cy="137.5678" r="3.0906" gradientUnits="userSpaceOnUse">
		<stop  offset="0" style="stop-color:#231F20"/>
		<stop  offset="1" style="stop-color:#0D0D0D"/>
	</radialGradient>
	<path class="st19" d="M115.5,141.8c0.1,0,0.2,0,0.2-0.1c0.7-0.7,1.1-1.5,1.2-2.5c0.1-1.1,0.1-3,0.2-5.6c0-0.2-0.1-0.3-0.3-0.3
		c0,0,0,0,0,0c-0.2,0-0.3,0.1-0.3,0.3c0,2.7-0.1,4.5-0.2,5.6c-0.1,0.8-0.4,1.5-1,2.1c-0.1,0.1-0.1,0.3,0,0.5
		C115.4,141.8,115.5,141.8,115.5,141.8z"/>
	<radialGradient id="SVGID_21_" cx="98.2677" cy="117.3128" r="1.9222" gradientUnits="userSpaceOnUse">
		<stop  offset="0" style="stop-color:#231F20"/>
		<stop  offset="1" style="stop-color:#0D0D0D"/>
	</radialGradient>
	<path class="st20" d="M99.3,115.4c0.1-0.1,0.1-0.3,0-0.5c-0.1-0.1-0.3-0.1-0.5,0c-0.8,0.7-1.6,1.6-1.6,3.1c0,0.3,0,0.8,0,1.5
		c0,0.2,0.1,0.3,0.3,0.3c0,0,0,0,0,0c0.2,0,0.3-0.1,0.3-0.3c0-0.7,0-1.2,0-1.5C97.9,116.8,98.5,116,99.3,115.4z"/>
	<radialGradient id="SVGID_22_" cx="347.5557" cy="149.1268" r="4.8654" gradientUnits="userSpaceOnUse">
		<stop  offset="0" style="stop-color:#231F20"/>
		<stop  offset="1" style="stop-color:#0D0D0D"/>
	</radialGradient>
	<path class="st21" d="M341.2,150.4c1.4,0.3,3.3,0.5,5.3,0.5c2.7,0,7.7-0.4,7.7-1.9c0-0.8-1.3-1.3-3.9-1.6c-0.2,0-0.3,0.1-0.4,0.3
		c0,0.2,0.1,0.3,0.3,0.4c2.7,0.3,3.3,0.9,3.3,1c0,0.4-2.6,1.2-7.1,1.2c-2,0-3.8-0.2-5.2-0.4c-0.2,0-0.4,0.1-0.4,0.3
		C340.9,150.2,341,150.4,341.2,150.4z"/>
	<radialGradient id="SVGID_23_" cx="336.4954" cy="145.0189" r="3.0915" gradientUnits="userSpaceOnUse">
		<stop  offset="0" style="stop-color:#231F20"/>
		<stop  offset="1" style="stop-color:#0D0D0D"/>
	</radialGradient>
	<path class="st22" d="M337.1,149.3c0.1,0,0.2,0,0.2-0.1c0.1-0.1,0.1-0.3,0-0.5c-0.6-0.6-0.9-1.2-1-2.1c-0.1-1.1-0.1-2.9-0.2-5.6
		c0-0.2-0.1-0.3-0.3-0.3c-0.2,0-0.3,0.2-0.3,0.3c0,2.7,0.1,4.6,0.2,5.6c0.1,1,0.5,1.8,1.2,2.5C336.9,149.3,337,149.3,337.1,149.3z"
		/>
	<radialGradient id="SVGID_24_" cx="354.3875" cy="124.7645" r="1.9218" gradientUnits="userSpaceOnUse">
		<stop  offset="0" style="stop-color:#231F20"/>
		<stop  offset="1" style="stop-color:#0D0D0D"/>
	</radialGradient>
	<path class="st23" d="M354.8,125.5c0,0.3,0,0.8,0,1.5c0,0.2,0.2,0.3,0.3,0.3h0c0.2,0,0.3-0.2,0.3-0.3c0-0.7,0-1.2,0-1.5
		c0-1.5-0.8-2.4-1.6-3.1c-0.1-0.1-0.3-0.1-0.5,0c-0.1,0.1-0.1,0.3,0,0.5C354.1,123.5,354.8,124.2,354.8,125.5z"/>
	<radialGradient id="SVGID_25_" cx="175.6232" cy="141.564" r="4.8653" gradientUnits="userSpaceOnUse">
		<stop  offset="0" style="stop-color:#231F20"/>
		<stop  offset="1" style="stop-color:#0D0D0D"/>
	</radialGradient>
	<path class="st24" d="M181.9,142.2c-1.4,0.3-3.2,0.4-5.2,0.4c-4.5,0-7-0.8-7.1-1.2c0-0.1,0.6-0.7,3.3-1c0.2,0,0.3-0.2,0.3-0.4
		c0-0.2-0.2-0.3-0.4-0.3c-2.6,0.3-3.9,0.9-3.9,1.6c0,1.5,5.1,1.9,7.7,1.9c2,0,3.9-0.2,5.3-0.5c0.2,0,0.3-0.2,0.3-0.4
		C182.2,142.3,182.1,142.2,181.9,142.2z"/>
	<radialGradient id="SVGID_26_" cx="186.6826" cy="137.4573" r="3.0908" gradientUnits="userSpaceOnUse">
		<stop  offset="0" style="stop-color:#231F20"/>
		<stop  offset="1" style="stop-color:#0D0D0D"/>
	</radialGradient>
	<path class="st25" d="M186.1,141.7c0.1,0,0.2,0,0.2-0.1c0.7-0.7,1.1-1.5,1.2-2.5c0.1-1.1,0.1-3,0.2-5.6c0-0.2-0.1-0.3-0.3-0.3
		c0,0,0,0,0,0c-0.2,0-0.3,0.1-0.3,0.3c0,2.6-0.1,4.5-0.2,5.6c-0.1,0.8-0.4,1.5-1,2.1c-0.1,0.1-0.1,0.3,0,0.5
		C185.9,141.7,186,141.7,186.1,141.7z"/>
	<radialGradient id="SVGID_27_" cx="168.7916" cy="117.2022" r="1.9222" gradientUnits="userSpaceOnUse">
		<stop  offset="0" style="stop-color:#231F20"/>
		<stop  offset="1" style="stop-color:#0D0D0D"/>
	</radialGradient>
	<path class="st26" d="M169.8,115.3c0.1-0.1,0.1-0.3,0-0.5c-0.1-0.1-0.3-0.1-0.5,0c-0.8,0.7-1.6,1.6-1.6,3.1c0,0.3,0,0.8,0,1.5
		c0,0.2,0.1,0.3,0.3,0.3c0,0,0,0,0,0c0.2,0,0.3-0.1,0.3-0.3c0-0.7,0-1.2,0-1.5C168.4,116.7,169.1,115.9,169.8,115.3z"/>
</g>
</svg>
