<?xml version="1.0" encoding="utf-8"?>
<!-- Generator: Adobe Illustrator 21.1.0, SVG Export Plug-In . SVG Version: 6.00 Build 0)  -->
<svg version="1.1" id="Layer_1" xmlns="http://www.w3.org/2000/svg" xmlns:xlink="http://www.w3.org/1999/xlink" x="0px" y="0px"
	 viewBox="0 0 432 216" style="enable-background:new 0 0 432 216;" xml:space="preserve">
<style type="text/css">
	.st0{fill:url(#SVGID_1_);}
	.st1{fill:url(#SVGID_2_);}
	.st2{fill:url(#SVGID_3_);}
	.st3{fill:url(#SVGID_4_);}
	.st4{fill:url(#SVGID_5_);}
	.st5{fill:url(#SVGID_6_);}
	.st6{fill:url(#SVGID_7_);}
	.st7{fill:url(#SVGID_8_);}
	.st8{fill:url(#SVGID_9_);}
	.st9{fill:url(#SVGID_10_);}
	.st10{fill:url(#SVGID_11_);}
	.st11{fill:url(#SVGID_12_);}
	.st12{fill:url(#SVGID_13_);}
	.st13{fill:url(#SVGID_14_);}
	.st14{fill:url(#SVGID_15_);}
	.st15{fill:url(#SVGID_16_);}
	.st16{fill:url(#SVGID_17_);}
	.st17{fill:url(#SVGID_18_);}
	.st18{fill:url(#SVGID_19_);}
	.st19{fill:url(#SVGID_20_);}
	.st20{fill:url(#SVGID_21_);}
	.st21{fill:url(#SVGID_22_);}
	.st22{fill:url(#SVGID_23_);}
	.st23{fill:url(#SVGID_24_);}
	.st24{fill:url(#SVGID_25_);}
	.st25{fill:url(#SVGID_26_);}
	.st26{fill:url(#SVGID_27_);}
	.st27{fill:url(#SVGID_28_);}
	.st28{fill:url(#SVGID_29_);}
	.st29{fill:url(#SVGID_30_);}
	.st30{fill:url(#SVGID_31_);}
	.st31{fill:url(#SVGID_32_);}
</style>
<g>
	<radialGradient id="SVGID_1_" cx="134.5925" cy="171.4559" r="9.0683" gradientUnits="userSpaceOnUse">
		<stop  offset="0" style="stop-color:#231F20"/>
		<stop  offset="1" style="stop-color:#0D0D0D"/>
	</radialGradient>
	<path class="st0" d="M139.6,168.1c-0.3,0-0.6,0.2-0.6,0.6c0,0.2,0,0.3,0.1,0.5c0.1,0.1,0.3,0.2,0.4,0.2c4.6,0.6,6.1,1.5,6.1,1.8
		c0,0.5-4.1,2.2-13.1,2.2c-3.6,0-7-0.3-9.6-0.8c-0.4-0.1-0.7,0.2-0.8,0.5c-0.1,0.4,0.2,0.7,0.5,0.8c2.6,0.5,6.1,0.8,9.9,0.8
		c5,0,14.4-0.7,14.4-3.5C147,169.8,144.5,168.8,139.6,168.1C139.7,168.2,139.7,168.1,139.6,168.1z"/>
	<radialGradient id="SVGID_2_" cx="113.6959" cy="163.4632" r="5.7735" gradientUnits="userSpaceOnUse">
		<stop  offset="0" style="stop-color:#231F20"/>
		<stop  offset="1" style="stop-color:#0D0D0D"/>
	</radialGradient>
	<path class="st1" d="M114.8,171.4c0.2,0,0.3-0.1,0.5-0.2c0.3-0.3,0.3-0.7,0-0.9c-1.1-1-1.7-2.3-1.8-3.8c-0.2-2-0.3-5.5-0.3-10.4
		c0-0.4-0.3-0.6-0.7-0.6c-0.2,0-0.3,0.1-0.5,0.2c-0.1,0.1-0.2,0.3-0.2,0.5c0,4.9,0.1,8.4,0.3,10.5c0.1,1.8,0.9,3.4,2.2,4.6
		C114.5,171.4,114.7,171.4,114.8,171.4z"/>
	<radialGradient id="SVGID_3_" cx="147.6441" cy="125.8691" r="3.6049" gradientUnits="userSpaceOnUse">
		<stop  offset="0" style="stop-color:#231F20"/>
		<stop  offset="1" style="stop-color:#0D0D0D"/>
	</radialGradient>
	<path class="st2" d="M148.4,127.2c0,0.6,0,1.5,0.1,2.7c0,0.4,0.3,0.6,0.7,0.6h0c0,0,0,0,0,0c0.4,0,0.6-0.3,0.6-0.7
		c0-1.2,0-2.2-0.1-2.7c-0.1-2.7-1.6-4.4-3-5.8c-0.3-0.2-0.7-0.2-0.9,0.1c-0.1,0.1-0.2,0.3-0.2,0.5c0,0.2,0.1,0.3,0.2,0.5
		C147,123.5,148.3,124.9,148.4,127.2z"/>
	<radialGradient id="SVGID_4_" cx="50.0849" cy="174.7904" r="9.0678" gradientUnits="userSpaceOnUse">
		<stop  offset="0" style="stop-color:#231F20"/>
		<stop  offset="1" style="stop-color:#0D0D0D"/>
	</radialGradient>
	<path class="st3" d="M55.1,171.5c-0.3,0-0.6,0.2-0.7,0.6c0,0.4,0.2,0.7,0.6,0.7c4.6,0.6,6.1,1.5,6.1,1.8c0,0.5-4.1,2.2-13.1,2.2
		c-3.6,0-7-0.3-9.6-0.8c-0.3-0.1-0.7,0.2-0.8,0.5c0,0.2,0,0.3,0.1,0.5c0.1,0.1,0.2,0.2,0.4,0.3c2.6,0.5,6.1,0.9,9.9,0.9
		c5,0,14.4-0.7,14.4-3.5C62.5,173.1,60,172.1,55.1,171.5C55.2,171.5,55.2,171.5,55.1,171.5z"/>
	<radialGradient id="SVGID_5_" cx="29.7339" cy="151.1045" r="3.6055" gradientUnits="userSpaceOnUse">
		<stop  offset="0" style="stop-color:#231F20"/>
		<stop  offset="1" style="stop-color:#0D0D0D"/>
	</radialGradient>
	<path class="st4" d="M30.7,146.6c-1.5,1.3-3,3-3,5.8c0,0.6,0,1.5-0.1,2.7c0,0.4,0.3,0.7,0.6,0.7h0c0.4,0,0.6-0.3,0.7-0.6
		c0-1.2,0-2.2,0.1-2.7c0.1-2.2,1.3-3.7,2.6-4.8c0.1-0.1,0.2-0.3,0.2-0.4c0-0.2,0-0.3-0.2-0.5C31.4,146.4,31,146.4,30.7,146.6z"/>
	<radialGradient id="SVGID_6_" cx="300.8056" cy="200.9232" r="9.0683" gradientUnits="userSpaceOnUse">
		<stop  offset="0" style="stop-color:#231F20"/>
		<stop  offset="1" style="stop-color:#0D0D0D"/>
	</radialGradient>
	<path class="st5" d="M312.4,202.1c-2.6,0.5-6,0.8-9.6,0.8c-9,0-13.1-1.7-13.1-2.2c0-0.3,1.5-1.2,6.1-1.8c0.4,0,0.6-0.4,0.6-0.7
		c0-0.3-0.3-0.6-0.7-0.6c0,0-0.1,0-0.1,0c-4.8,0.6-7.3,1.6-7.3,3.1c0,2.8,9.4,3.5,14.4,3.5c3.7,0,7.2-0.3,9.9-0.8
		c0.2,0,0.3-0.1,0.4-0.3c0.1-0.1,0.1-0.3,0.1-0.5C313.1,202.3,312.8,202,312.4,202.1z"/>
	<radialGradient id="SVGID_7_" cx="321.7021" cy="192.9304" r="5.7733" gradientUnits="userSpaceOnUse">
		<stop  offset="0" style="stop-color:#231F20"/>
		<stop  offset="1" style="stop-color:#0D0D0D"/>
	</radialGradient>
	<path class="st6" d="M320.6,200.9c0.2,0,0.3-0.1,0.5-0.2c1.3-1.3,2-2.8,2.2-4.6c0.2-2,0.3-5.5,0.3-10.5c0-0.4-0.3-0.7-0.7-0.7
		c-0.4,0-0.6,0.3-0.6,0.6c0,4.9-0.1,8.4-0.3,10.4c-0.1,1.5-0.7,2.7-1.8,3.8c-0.1,0.1-0.2,0.3-0.2,0.5c0,0.2,0.1,0.3,0.2,0.5
		C320.2,200.8,320.4,200.9,320.6,200.9z"/>
	<radialGradient id="SVGID_8_" cx="287.7538" cy="155.3358" r="3.6055" gradientUnits="userSpaceOnUse">
		<stop  offset="0" style="stop-color:#231F20"/>
		<stop  offset="1" style="stop-color:#0D0D0D"/>
	</radialGradient>
	<path class="st7" d="M289.6,151.8c0.1-0.1,0.2-0.3,0.2-0.5c0-0.2,0-0.3-0.2-0.5c-0.2-0.3-0.7-0.3-0.9-0.1c-1.5,1.3-3,3-3,5.8
		c0,0.6,0,1.5-0.1,2.7c0,0.4,0.3,0.7,0.6,0.7h0c0.4,0,0.6-0.3,0.7-0.6c0-1.2,0-2.1,0.1-2.7C287.1,154.4,288.4,152.9,289.6,151.8z"/>
	<radialGradient id="SVGID_9_" cx="382.5227" cy="162.1765" r="9.0678" gradientUnits="userSpaceOnUse">
		<stop  offset="0" style="stop-color:#231F20"/>
		<stop  offset="1" style="stop-color:#0D0D0D"/>
	</radialGradient>
	<path class="st8" d="M384.5,165.5c3.7,0,7.2-0.3,9.9-0.9c0.4-0.1,0.6-0.4,0.5-0.8c-0.1-0.3-0.4-0.6-0.8-0.5c-2.6,0.5-6,0.8-9.6,0.8
		c-9,0-13.1-1.7-13.1-2.2c0-0.3,1.5-1.2,6.1-1.8c0.2,0,0.3-0.1,0.4-0.2c0.1-0.1,0.2-0.3,0.1-0.5c0-0.3-0.3-0.6-0.7-0.6
		c0,0-0.1,0-0.1,0c-4.8,0.6-7.3,1.6-7.3,3.1C370.1,164.8,379.6,165.5,384.5,165.5z"/>
	<radialGradient id="SVGID_10_" cx="402.874" cy="138.49" r="3.6052" gradientUnits="userSpaceOnUse">
		<stop  offset="0" style="stop-color:#231F20"/>
		<stop  offset="1" style="stop-color:#0D0D0D"/>
	</radialGradient>
	<path class="st9" d="M403.6,139.8c0,0.6,0,1.5,0.1,2.7c0,0.4,0.3,0.6,0.7,0.6h0c0,0,0,0,0,0c0.4,0,0.6-0.3,0.6-0.7
		c0-1.2,0-2.2-0.1-2.7c-0.1-2.7-1.6-4.5-3-5.8c-0.3-0.2-0.7-0.2-0.9,0.1c-0.2,0.3-0.2,0.7,0.1,0.9
		C402.3,136.1,403.5,137.5,403.6,139.8z"/>
	<radialGradient id="SVGID_11_" cx="325.9168" cy="79.8553" r="15.6119" gradientUnits="userSpaceOnUse">
		<stop  offset="0" style="stop-color:#231F20"/>
		<stop  offset="1" style="stop-color:#0D0D0D"/>
	</radialGradient>
	<path class="st10" d="M326.2,84.3c4.2,4.4,8.5,8.8,12.9,13.1l0.2-34.4c-8.4-0.1-16.7-0.3-25.1-0.7l-1.7,34.4
		C317.2,92.6,321.7,88.5,326.2,84.3z"/>
	<radialGradient id="SVGID_12_" cx="163.7392" cy="38.9165" r="1.9432" gradientUnits="userSpaceOnUse">
		<stop  offset="0" style="stop-color:#231F20"/>
		<stop  offset="1" style="stop-color:#0D0D0D"/>
	</radialGradient>
	<path class="st11" d="M163.7,37.7c-1.4,0-2.5,1.1-2.5,2.5h4.9C166.2,38.8,165.1,37.7,163.7,37.7z"/>
	<radialGradient id="SVGID_13_" cx="151.4456" cy="52.4399" r="2.4585" gradientUnits="userSpaceOnUse">
		<stop  offset="0" style="stop-color:#231F20"/>
		<stop  offset="1" style="stop-color:#0D0D0D"/>
	</radialGradient>
	<circle class="st12" cx="151.4" cy="52.4" r="2.5"/>
	<radialGradient id="SVGID_14_" cx="163.7392" cy="52.4399" r="2.4583" gradientUnits="userSpaceOnUse">
		<stop  offset="0" style="stop-color:#231F20"/>
		<stop  offset="1" style="stop-color:#0D0D0D"/>
	</radialGradient>
	<circle class="st13" cx="163.7" cy="52.4" r="2.5"/>
	<radialGradient id="SVGID_15_" cx="163.7392" cy="41.3759" r="1.9434" gradientUnits="userSpaceOnUse">
		<stop  offset="0" style="stop-color:#231F20"/>
		<stop  offset="1" style="stop-color:#0D0D0D"/>
	</radialGradient>
	<path class="st14" d="M163.7,42.6c1.2,0,2.2-0.8,2.4-2c0-0.2,0-0.3,0-0.5h-4.9C161.3,41.5,162.4,42.6,163.7,42.6z"/>
	<radialGradient id="SVGID_16_" cx="169.8857" cy="58.5859" r="2.4585" gradientUnits="userSpaceOnUse">
		<stop  offset="0" style="stop-color:#231F20"/>
		<stop  offset="1" style="stop-color:#0D0D0D"/>
	</radialGradient>
	<circle class="st15" cx="169.9" cy="58.6" r="2.5"/>
	<radialGradient id="SVGID_17_" cx="169.8857" cy="46.2929" r="2.4585" gradientUnits="userSpaceOnUse">
		<stop  offset="0" style="stop-color:#231F20"/>
		<stop  offset="1" style="stop-color:#0D0D0D"/>
	</radialGradient>
	<path class="st16" d="M170.4,43.9c-0.2,0-0.3,0-0.5,0c-1.4,0-2.5,1.1-2.5,2.5c0,1.4,1.1,2.5,2.5,2.5c0.2,0,0.3,0,0.5,0
		c1.1-0.2,2-1.2,2-2.4C172.3,45.1,171.5,44.1,170.4,43.9z"/>
	<radialGradient id="SVGID_18_" cx="157.593" cy="46.2929" r="2.4588" gradientUnits="userSpaceOnUse">
		<stop  offset="0" style="stop-color:#231F20"/>
		<stop  offset="1" style="stop-color:#0D0D0D"/>
	</radialGradient>
	<circle class="st17" cx="157.6" cy="46.3" r="2.5"/>
	<radialGradient id="SVGID_19_" cx="409.608" cy="64.7333" r="2.4585" gradientUnits="userSpaceOnUse">
		<stop  offset="0" style="stop-color:#231F20"/>
		<stop  offset="1" style="stop-color:#0D0D0D"/>
	</radialGradient>
	<path class="st18" d="M409.6,62.3c-1.4,0-2.5,1.1-2.5,2.5c0,1.4,1.1,2.5,2.5,2.5c1.2,0,2.2-0.8,2.4-2c0-0.2,0-0.3,0-0.5
		C412.1,63.4,411,62.3,409.6,62.3z"/>
	<radialGradient id="SVGID_20_" cx="409.608" cy="77.0268" r="2.4582" gradientUnits="userSpaceOnUse">
		<stop  offset="0" style="stop-color:#231F20"/>
		<stop  offset="1" style="stop-color:#0D0D0D"/>
	</radialGradient>
	<circle class="st19" cx="409.6" cy="77" r="2.5"/>
	<radialGradient id="SVGID_21_" cx="403.4618" cy="83.1733" r="2.4585" gradientUnits="userSpaceOnUse">
		<stop  offset="0" style="stop-color:#231F20"/>
		<stop  offset="1" style="stop-color:#0D0D0D"/>
	</radialGradient>
	<circle class="st20" cx="403.5" cy="83.2" r="2.5"/>
	<radialGradient id="SVGID_22_" cx="415.7549" cy="70.8799" r="2.4587" gradientUnits="userSpaceOnUse">
		<stop  offset="0" style="stop-color:#231F20"/>
		<stop  offset="1" style="stop-color:#0D0D0D"/>
	</radialGradient>
	<path class="st21" d="M416.3,68.5c-0.2,0-0.3,0-0.5,0c-1.4,0-2.5,1.1-2.5,2.5c0,1.4,1.1,2.5,2.5,2.5c0.2,0,0.3,0,0.5,0
		c1.1-0.2,2-1.2,2-2.4C418.2,69.7,417.4,68.7,416.3,68.5z"/>
	<radialGradient id="SVGID_23_" cx="403.4618" cy="70.8799" r="2.4583" gradientUnits="userSpaceOnUse">
		<stop  offset="0" style="stop-color:#231F20"/>
		<stop  offset="1" style="stop-color:#0D0D0D"/>
	</radialGradient>
	<circle class="st22" cx="403.5" cy="70.9" r="2.5"/>
	<radialGradient id="SVGID_24_" cx="28.5112" cy="52.4399" r="2.4588" gradientUnits="userSpaceOnUse">
		<stop  offset="0" style="stop-color:#231F20"/>
		<stop  offset="1" style="stop-color:#0D0D0D"/>
	</radialGradient>
	<circle class="st23" cx="28.5" cy="52.4" r="2.5"/>
	<radialGradient id="SVGID_25_" cx="34.6595" cy="58.5859" r="2.4585" gradientUnits="userSpaceOnUse">
		<stop  offset="0" style="stop-color:#231F20"/>
		<stop  offset="1" style="stop-color:#0D0D0D"/>
	</radialGradient>
	<circle class="st24" cx="34.7" cy="58.6" r="2.5"/>
	<radialGradient id="SVGID_26_" cx="16.2191" cy="64.7328" r="2.4588" gradientUnits="userSpaceOnUse">
		<stop  offset="0" style="stop-color:#231F20"/>
		<stop  offset="1" style="stop-color:#0D0D0D"/>
	</radialGradient>
	<path class="st25" d="M16.2,62.3c-1.4,0-2.5,1.1-2.5,2.5c0,1.4,1.1,2.5,2.5,2.5c1.2,0,2.2-0.8,2.4-2c0-0.2,0-0.3,0-0.5
		c0-0.2,0-0.3,0-0.5C18.4,63.1,17.4,62.3,16.2,62.3z"/>
	<radialGradient id="SVGID_27_" cx="16.2191" cy="52.4399" r="2.4588" gradientUnits="userSpaceOnUse">
		<stop  offset="0" style="stop-color:#231F20"/>
		<stop  offset="1" style="stop-color:#0D0D0D"/>
	</radialGradient>
	<circle class="st26" cx="16.2" cy="52.4" r="2.5"/>
	<radialGradient id="SVGID_28_" cx="22.3652" cy="58.5859" r="2.4583" gradientUnits="userSpaceOnUse">
		<stop  offset="0" style="stop-color:#231F20"/>
		<stop  offset="1" style="stop-color:#0D0D0D"/>
	</radialGradient>
	<circle class="st27" cx="22.4" cy="58.6" r="2.5"/>
	<radialGradient id="SVGID_29_" cx="22.3652" cy="46.2929" r="2.4583" gradientUnits="userSpaceOnUse">
		<stop  offset="0" style="stop-color:#231F20"/>
		<stop  offset="1" style="stop-color:#0D0D0D"/>
	</radialGradient>
	<path class="st28" d="M22.9,43.9c-0.2,0-0.3,0-0.5,0c-1.4,0-2.5,1.1-2.5,2.5c0,1.4,1.1,2.5,2.5,2.5c0.2,0,0.3,0,0.5,0
		c1.1-0.2,2-1.2,2-2.4C24.8,45.1,24,44.1,22.9,43.9z"/>
	<radialGradient id="SVGID_30_" cx="215.7191" cy="114.9398" r="165.6976" gradientUnits="userSpaceOnUse">
		<stop  offset="0" style="stop-color:#231F20"/>
		<stop  offset="1" style="stop-color:#0D0D0D"/>
	</radialGradient>
	<path class="st29" d="M431.5,55.8c-0.1-0.3-0.4-0.6-0.7-0.5c-56.5,8.6-169.7,16-293.5-31.3c-0.1-0.3-0.5-0.4-0.8-0.4
		c0,0-0.1,0-0.2,0.1c-0.1,0-0.2,0.1-0.3,0.1c-5.5,1.6-58.5,16.6-135.1,16.6c-0.1,0-0.2,0-0.3,0c-0.4,0-0.6,0.3-0.6,0.6
		c0,0.4,0.3,0.6,0.6,0.6c0.1,0,0.2,0,0.3,0c3.4,0,6.8,0,10.1-0.1c0,0,0,0,0,0L11.7,76c0,0.3,0.2,0.5,0.4,0.6c0.1,0,0.2,0,0.3,0
		c0.2,0,0.4-0.1,0.5-0.2c4.2-4.2,8.3-8.5,12.3-12.8c4.4,4,8.8,7.9,13.3,11.7c0.1,0.1,0.3,0.2,0.4,0.2c0,0,0,0,0,0
		c0.4,0,0.7-0.3,0.7-0.7c0-0.1,0-0.2,0-0.3l-2.2-34.1c2.9-0.2,5.8-0.4,8.6-0.6v64.7c-4.7,0.2-8.4,2-11.1,5.3
		c-6.9,8.6-4.7,24.8-4,28.5c0,0.1,0,0.2-0.1,0.2c-0.1,0-0.4,0.1-0.6,0.4c-0.1,0.1-0.1,0.2-0.1,0.3c0,0,0,0.1,0,0.1
		c-0.1,0.2-0.1,0.4-0.1,0.6c-0.1-0.2-0.1-0.3-0.2-0.5c0-0.3-0.3-0.4-0.5-0.4c0,0-0.1,0-0.1,0c-0.1,0-0.3,0.1-0.4,0.2
		c-0.1,0.1-0.1,0.3-0.1,0.4c0.1,0.7,0.5,1.4,1,1.7c0.3,0.2,0.6,0.3,0.8,0.3c0.1,0,0.2,0,0.3,0c0.1,0,0.1-0.1,0.2-0.1
		c0.2,0.1,0.5,0.3,0.8,0.4c0,0.9-0.1,1.8-0.3,2.1c-0.4,0.6-1.1,1.3-1.9,1.9c-1.7,1.4-3.9,3.2-4,6.5c0,0.7,0,1.4-0.1,2.1
		c-0.1,4.3-0.3,10.2,0.2,16.9c0,0.1,0,0.1,0.1,0.2c1.1,7.1,11.9,8.6,20.7,8.6c4.9,0,19.8,0,20.5-8.8c0.5-6.7,0.3-12.6,0.2-16.9
		l0-0.2c0-0.7,0-1.3-0.1-1.9c-0.1-3.3-2.3-5.2-4.1-6.6c-0.7-0.6-1.4-1.2-1.8-1.7c-0.2-0.3-0.3-1.1-0.4-1.9c0.3-0.2,0.6-0.3,0.8-0.5
		c0.1,0,0.1,0.1,0.2,0.1c0.1,0,0.2,0,0.3,0c0.3,0,0.6-0.1,0.8-0.3c0.5-0.3,0.9-1,1-1.7c0-0.1,0-0.3-0.1-0.4
		c-0.1-0.1-0.2-0.2-0.3-0.2c-0.3-0.1-0.6,0.1-0.7,0.4c-0.1,0.4-0.3,0.7-0.5,0.9c0-0.1,0-0.1,0-0.2c-0.1-0.5-0.3-0.9-0.6-1.1
		c0,0,0,0,0,0c0.2-0.8,3.9-20.5-3.9-29.8c-2.6-3.2-6.3-4.7-10.9-4.8V39.8c1.5-0.1,3-0.2,4.4-0.4l3.1,34.2c0,0.3,0.2,0.5,0.5,0.6
		c0.1,0,0.1,0,0.2,0c0.2,0,0.4-0.1,0.5-0.2c3.9-4.5,7.7-9.1,11.3-13.7c4.7,3.7,9.4,7.3,14.2,10.7c0.1,0.1,0.3,0.1,0.4,0.1
		c0.4,0,0.7-0.3,0.7-0.7c0-0.1,0-0.2-0.1-0.3l-4.7-33.7c5.2-0.7,10.1-1.4,14.6-2.2L98.1,68c3.7-5,7.2-10,10.6-15.1
		c5.1,3.4,10.3,6.7,15.7,9.8l-7.6-33c5.9-1.3,10.6-2.4,13.9-3.3v52.9c-4.7,0.2-8.4,2-11.1,5.3c-7.3,9.1-4.4,26.5-3.9,29
		c-0.4,0.2-0.7,0.6-0.8,1.3c0,0,0,0.1,0,0.1c-0.2-0.2-0.3-0.5-0.4-0.8c0-0.3-0.3-0.4-0.5-0.4c0,0-0.1,0-0.1,0
		c-0.1,0-0.3,0.1-0.4,0.2c-0.1,0.1-0.1,0.3-0.1,0.4c0.2,1.1,1,2,1.9,2c0.1,0,0.2,0,0.3,0c0.1,0,0.1-0.1,0.2-0.1
		c0.2,0.2,0.5,0.3,0.8,0.4c-0.1,0.8-0.2,1.6-0.4,1.9c-0.4,0.6-1.1,1.1-1.8,1.7c-1.8,1.5-4,3.3-4.1,6.6c0,1.1-0.1,3.3-0.1,6.1
		c0,1.2,0,2.6,0,4c0,3.8-0.1,8.2-0.1,12.5c0,0.9,0,1.9,0,2.8c0,6.5,0.1,12.5,0.3,15.5c0.7,8.8,15.6,8.8,20.5,8.8
		c8.9,0,19.6-1.5,20.7-8.6c0-0.1,0.1-0.1,0.1-0.2c0.6-7.8,0.3-36,0.1-40.9c-0.1-3.2-2.2-5-4-6.5c-0.8-0.7-1.5-1.3-1.9-1.9
		c-0.2-0.3-0.3-1.2-0.3-2.1c0.3-0.1,0.5-0.2,0.7-0.4c0.1,0.1,0.2,0.1,0.3,0.2c0.1,0,0.2,0,0.3,0c0.9,0,1.6-0.8,1.9-2
		c0-0.1,0-0.3-0.1-0.4c-0.1-0.1-0.2-0.2-0.3-0.2c-0.3-0.1-0.6,0.1-0.7,0.4c-0.1,0.3-0.2,0.5-0.3,0.7c0.1-0.3,0-0.6,0-0.9
		c0,0,0-0.1,0-0.1c0-0.1,0-0.2-0.1-0.2c-0.1-0.2-0.3-0.3-0.5-0.4c0.6-3.3,3.2-20.6-4-29.3c-2.6-3.1-6.3-4.7-10.9-4.8V26.3
		c0,0,0,0,0,0c2.3-0.6,3.8-1,4.5-1.3c6.1,2.3,12.2,4.5,18.3,6.6l-11.3,31.9c-0.1,0.3,0,0.5,0.2,0.7c0.2,0.2,0.5,0.2,0.7,0.1
		c5.4-2.5,10.8-5.1,16-7.7c2.7,5.2,5.5,10.5,8.4,15.7c0.1,0.2,0.3,0.4,0.6,0.4c0,0,0,0,0.1,0c0.3,0,0.5-0.2,0.6-0.5l9.8-32.6
		c4.5,1.3,9.1,2.6,13.6,3.8l-9,33c-0.1,0.3,0,0.5,0.2,0.7c0.2,0.2,0.5,0.2,0.7,0.1c5.2-2.9,10.3-5.8,15.4-8.9c3.1,5,6.3,10.1,9.5,15
		c0.1,0.2,0.3,0.3,0.6,0.3c0,0,0.1,0,0.1,0c0.3,0,0.5-0.3,0.5-0.5l7.5-33.5c4.8,1.1,9.7,2,14.6,2.9l-6.6,33.7
		c1.1-0.7,2.2-1.5,3.3-2.2c1-0.7,2.1-1.4,3.1-2.1c1.3-0.9,2.5-1.7,3.8-2.6h0c0.8-0.6,1.7-1.1,2.5-1.7v0c0.8-0.6,1.7-1.2,2.6-1.8
		c3.5,5,7.2,9.9,10.9,14.8l0.9-5.9l0.6-3.9c0,0,0,0,0,0l1.1-7.7h0l0.6-3.9l1.4-9.3l0,0l0.3-2.3v0l0.1-1c-1-0.2-2.1-0.3-3.1-0.5
		c5.9,0.9,11.9,1.7,17.8,2.4c0,0,0,0,0,0L269,92.9c0,0.3,0.1,0.5,0.3,0.7c0.2,0.1,0.5,0.1,0.8,0c4.7-3.6,9.4-7.3,14-11
		c3.7,4.5,7.6,9.1,11.5,13.5c0.1,0.1,0.3,0.2,0.5,0.2c0.1,0,0.1,0,0.2,0c0.3-0.1,0.4-0.3,0.5-0.6l2.6-34.3c0,0,0-0.1,0-0.1
		c1.4,0.1,2.8,0.2,4.2,0.3v47.3c-4.6,0-8.3,1.6-10.9,4.8c-7.2,8.6-4.6,25.9-4,29.3c-0.1,0.1-0.3,0.2-0.5,0.4
		c-0.1,0.1-0.1,0.2-0.1,0.3c0,0,0,0.1,0,0.1c-0.1,0.3-0.1,0.6,0,0.9c-0.1-0.2-0.2-0.4-0.3-0.7c-0.1-0.3-0.4-0.5-0.6-0.4
		c-0.1,0-0.3,0.1-0.4,0.2c-0.1,0.1-0.1,0.3-0.1,0.4c0.1,0.6,0.4,1.1,0.7,1.4c0.3,0.3,0.7,0.5,1.2,0.5c0.1,0,0.2,0,0.3,0
		c0.1,0,0.2-0.1,0.3-0.2c0.2,0.1,0.5,0.2,0.7,0.4c0,0.9-0.1,1.8-0.3,2.1c-0.4,0.6-1.1,1.3-1.9,1.9c-1.7,1.4-3.9,3.2-4,6.5
		c-0.1,4.9-0.5,33.1,0.1,40.9c0,0.1,0,0.1,0.1,0.2c1.1,7.1,11.9,8.6,20.7,8.6c4.9,0,19.8,0,20.5-8.8c0.6-7.8,0.3-36,0.1-40.9
		c-0.1-3.3-2.3-5.2-4.1-6.6c-0.2-0.2-0.4-0.3-0.5-0.5c-0.5-0.4-1-0.9-1.3-1.3h0c-0.2-0.3-0.3-1.1-0.4-1.9c0.3-0.1,0.5-0.3,0.7-0.4
		c0.1,0,0.1,0.1,0.2,0.1c0.1,0,0.2,0,0.3,0c0.9,0,1.6-0.8,1.9-2c0-0.1,0-0.3-0.1-0.4c-0.1-0.1-0.2-0.2-0.4-0.2
		c-0.3-0.1-0.6,0.1-0.6,0.4c-0.1,0.3-0.2,0.6-0.4,0.8c0-0.1,0-0.2,0.1-0.2c-0.1-0.7-0.4-1-0.8-1.2c0.5-2.5,3.3-19.9-3.9-29
		c-2.7-3.3-6.4-5.1-11.1-5.3V61.7c0.6,0,1.2,0.1,1.8,0.1c13,0.8,25.4,1.2,37.3,1.2c3.5,0,7,0,10.4-0.1c0,0,0,0,0,0l0.7,34.4
		c0,0.3,0.2,0.5,0.4,0.6c0.1,0,0.2,0,0.3,0c0.2,0,0.4-0.1,0.5-0.2c4.2-4.2,8.3-8.5,12.3-12.8c3.2,2.9,6.5,5.8,9.9,8.7
		c-1.3,0.8-2.5,1.7-3.6,3c-7.9,9.4-4.1,29-3.9,29.8c0,0,0,0,0,0c-0.1,0.1-0.2,0.2-0.3,0.3c0,0,0,0,0,0c-0.1,0.2-0.3,0.5-0.3,0.8
		c0,0,0,0.1,0,0.1c-0.2-0.2-0.4-0.5-0.4-0.9c-0.1-0.3-0.3-0.5-0.6-0.4c-0.1,0-0.3,0.1-0.4,0.2c-0.1,0.1-0.1,0.3-0.1,0.4
		c0.2,1.1,1,2,1.9,2c0.1,0,0.2,0,0.3,0c0.1,0,0.1-0.1,0.1-0.1c0.2,0.2,0.5,0.4,0.9,0.5c-0.1,0.8-0.2,1.6-0.4,1.9
		c-0.4,0.6-1.1,1.1-1.8,1.7c-0.4,0.4-0.9,0.8-1.4,1.2c-1.4,1.3-2.6,3-2.7,5.4v0l-0.1,2.1c-0.1,4.3-0.3,10.2,0.2,16.9
		c0.7,8.8,15.6,8.8,20.5,8.8c8.9,0,19.6-1.5,20.7-8.6c0-0.1,0.1-0.1,0.1-0.2c0.5-6.6,0.3-12.5,0.2-16.8l0-0.1c0-0.7,0-1.4-0.1-2.1
		c-0.1-3.2-2.2-5-4-6.5c-0.8-0.7-1.5-1.3-1.9-1.9c-0.2-0.3-0.3-1.2-0.3-2.1c0.3-0.1,0.6-0.3,0.8-0.4c0.1,0,0.1,0.1,0.2,0.1
		c0.1,0,0.2,0,0.3,0c0.3,0,0.6-0.1,0.9-0.3c0.5-0.3,0.9-1,1-1.7c0-0.1,0-0.3-0.1-0.4c-0.1-0.1-0.2-0.2-0.4-0.2
		c-0.3-0.1-0.6,0.1-0.6,0.4c0,0.2-0.1,0.4-0.2,0.5c0-0.2,0-0.4,0-0.6c0,0,0-0.1,0-0.1c0-0.1,0-0.2-0.1-0.2c-0.2-0.3-0.5-0.4-0.6-0.4
		c0-0.1-0.1-0.2-0.1-0.2c0.6-3.7,2.9-19.8-4-28.5c-2.7-3.3-6.4-5.1-11.1-5.3V61.4c2.8-0.2,5.4-0.4,8.1-0.6l3.1,34.2
		c0,0.3,0.2,0.5,0.5,0.6c0.1,0,0.1,0,0.2,0c0.2,0,0.4-0.1,0.5-0.2c3.9-4.5,7.7-9.1,11.3-13.7c4.7,3.7,9.4,7.3,14.2,10.7
		c0.1,0.1,0.2,0.1,0.4,0.1c0.4,0,0.7-0.3,0.7-0.7c0-0.1,0-0.2-0.1-0.3l-4.7-33.6c3.5-0.5,6.9-0.9,10-1.4
		C431.3,56.4,431.5,56.1,431.5,55.8z M34.7,48.8c0.7,0,1.4-0.4,1.8-0.9l1.6,25.4c-0.4-0.4-0.9-0.8-1.3-1.2c0.2-0.4,0.3-0.8,0.3-1.2
		c0-1.4-1.1-2.5-2.5-2.5c-0.6,0-1.1,0.2-1.5,0.5c-1-0.8-1.9-1.7-2.9-2.5c0.4-0.4,0.7-1,0.7-1.7c0-1.4-1.1-2.5-2.5-2.5
		c-0.7,0-1.4,0.3-1.9,0.9c-0.4-0.3-0.7-0.7-1.1-1c-0.3-0.3-0.7-0.2-1,0c-3.8,4.1-7.7,8.2-11.6,12.1l-0.6-27.4
		c0.1-0.2,0.1-0.4,0.1-0.6c0-0.2,0-0.5-0.1-0.7l-0.1-3.4c0.8,0,1.6-0.1,2.5-0.1c0.4,0.3,0.9,0.5,1.4,0.5c0.6,0,1.1-0.2,1.5-0.6
		c3-0.1,5.9-0.2,8.9-0.3c0.5,0.6,1.1,0.9,1.9,0.9c0.9,0,1.6-0.4,2-1.1c1.8-0.1,3.7-0.2,5.5-0.3l0.2,3.3c-0.4-0.4-1-0.6-1.6-0.6
		c-1.4,0-2.5,1.1-2.5,2.5C32.2,47.7,33.3,48.8,34.7,48.8z M67.5,58.8c-0.3-0.2-0.7-0.2-1,0.1c-3.5,4.3-7,8.7-10.7,13l-2.9-32
		c7.9-0.7,15.9-1.7,23.5-2.7L80.9,69C76.4,65.7,71.9,62.3,67.5,58.8z M60.5,144.5c0.5,0.7,1.2,1.3,2,1.9c1.7,1.4,3.7,3.1,3.8,6
		c0,0.7,0,1.4,0.1,2.1c0.1,4.3,0.3,10.2-0.2,16.8c-0.6,8-14.9,8-19.6,8c-8.7,0-19.1-1.4-19.9-8.1c0-0.1,0-0.1,0-0.2
		c-0.5-6.5-0.3-12.3-0.2-16.5c0-0.7,0-1.4,0.1-2.1c0.1-2.8,2-4.4,3.7-5.8c0.8-0.7,1.6-1.4,2.1-2.1c0.3-0.4,0.4-1.4,0.4-2.2
		c2.6,0.8,7.1,1.2,13.6,1.3c0.6,0,1.3,0,2.2,0c5.5,0,9.3-0.4,11.6-1.2C60.1,143.2,60.2,144.1,60.5,144.5z M32.5,133.8
		c0,0,0.1-0.1,0.2-0.1c0.1-0.1,0.3-0.1,0.6-0.2c0.3-0.1,0.6-0.2,0.9-0.2c0.6-0.1,1.5-0.3,2.4-0.4c-0.6,0.1-1.1,0.2-1.4,0.4
		c-0.1,0.1-0.2,0.1-0.2,0.2c0,0,0,0,0,0.1c0,0.1-0.1,0.1-0.1,0.2c0,0.1,0,0.1,0,0.2c0,0,0,0,0,0c0,0.1,0,0.1,0.1,0.2
		c0.2,0.2,0.6,0.4,1.8,0.6c-1.7-0.2-2.9-0.4-3.6-0.6c-0.3-0.1-0.5-0.2-0.6-0.2C32.6,133.9,32.5,133.9,32.5,133.8z M59.7,133.7
		c0.1,0,0.2,0.1,0.2,0.1c0,0-0.1,0.1-0.1,0.1c-0.1,0.1-0.3,0.1-0.6,0.2c-1.7,0.5-6.2,1.1-13,1.1c-2.1,0-3.9-0.1-5.6-0.2
		c1.4,0.1,3,0.1,5.1,0.1c2.5,0,5-0.1,7-0.2c0.1,0,0.2-0.1,0.3-0.2c0.1-0.1,0.1-0.2,0.1-0.3c0-0.2-0.1-0.3-0.3-0.4
		c-0.1,0-0.1-0.1-0.1-0.1c-0.2,0-0.5,0-0.8,0.1c-1.8,0.1-3.9,0.2-6.1,0.2c-2.9,0-5-0.1-6.6-0.2c-1-0.1-1.8-0.1-2.3-0.2
		c-0.2,0-0.4-0.1-0.6-0.1c0.2,0,0.5-0.1,0.8-0.1c0.6-0.1,1.4-0.2,2.4-0.2c1.6-0.1,3.7-0.2,6.4-0.2c2.1,0,4.1,0.1,5.9,0.2
		c0.2,0,0.3-0.1,0.3-0.2c0-0.1,0.1-0.1,0.1-0.2c0-0.1,0-0.2-0.1-0.3c-0.1-0.1-0.2-0.1-0.3-0.1c-1.8-0.1-3.8-0.2-5.9-0.2
		c-1.5,0-3.5,0-5.3,0.1c1.7-0.1,3.6-0.2,5.8-0.2c5.7,0,9.8,0.4,12,0.9c0.4,0.1,0.7,0.2,0.9,0.2C59.4,133.6,59.6,133.6,59.7,133.7z
		 M46.2,136.2c1.3,0,12-0.1,14.2-1.7c0.1,0.5,0.1,1.3,0.1,2c0,0.8,0,1.6,0.1,2.3c-0.8,0.3-2.4,0.7-4.6,0.9c-3.4,0.4-7.3,0.6-9.3,0.6
		l-0.2,0c-2.1,0-6.2-0.3-9.5-0.6c-2.5-0.3-4.2-0.7-4.8-1c0-0.2-0.1-0.4-0.1-0.8c0,0,0,0,0,0c2.7,0.8,12,1.2,13.7,1.2
		c0.4,0,0.6,0,0.7,0c0.9-0.2,1-0.7,1-0.9c0-0.5-0.5-0.9-1-1c-0.1,0-0.4,0-1.1,0c-7.7-0.3-12.2-0.8-13.3-1.4c0-0.5,0-0.9,0.1-1.3
		C34.4,136.1,44.9,136.2,46.2,136.2z M57.5,140.6c-0.4,0.1-0.8,0.1-1.3,0.2c-0.2,0-0.4,0-0.5,0.1c-0.4,0-0.7,0.1-1.1,0.1
		c-0.8,0.1-1.6,0.1-2.3,0.2c-0.1,0-0.3,0-0.4,0c0.1,0,0.2,0,0.3,0c0.7-0.1,1.3-0.1,2-0.2c0.6-0.1,1.2-0.1,1.8-0.2c0,0,0.1,0,0.1,0
		c0.5-0.1,0.9-0.1,1.4-0.2c0.2,0,0.4-0.1,0.7-0.1C57.9,140.5,57.7,140.5,57.5,140.6z M31.7,136.6C31.7,136.6,31.7,136.6,31.7,136.6
		c0.1,0,0.2,0.1,0.3,0.1c2.2,0.8,8.5,1.1,13.2,1.3c0.5,0,0.9,0,1,0c0.1,0,0.1,0,0.2,0.1c0,0-0.1,0-0.2,0c0,0-0.2,0-0.6,0
		c-3.1,0-12.1-0.7-13.6-1.2c-0.1,0-0.2-0.1-0.2-0.1c0,0,0,0,0,0c0,0,0,0,0,0C31.7,136.8,31.7,136.7,31.7,136.6z M30.9,140.1
		c0-0.1,0-0.2,0-0.3c0,0,0.1,0.1,0.1,0.1c0,0,0,0,0,0c0,0,0,0,0,0c0,0.1,0,0.2-0.1,0.3c0,0,0,0,0,0
		C30.9,140.2,30.9,140.2,30.9,140.1C30.9,140.2,30.9,140.1,30.9,140.1z M60.6,141.3c-0.1,0-0.1,0.1-0.2,0.1c-0.1,0-0.1,0.1-0.2,0.1
		c-0.1,0-0.1,0.1-0.2,0.1c-0.3,0.1-0.6,0.2-0.9,0.3c-1.9,0.5-5.1,0.9-10.6,0.9c-0.8,0-1.6,0-2.1,0c-7.8-0.1-11.6-0.8-13.5-1.4
		c-0.1,0-0.2,0-0.2-0.1c-0.1,0-0.1-0.1-0.2-0.1c-0.1,0-0.1-0.1-0.2-0.1c-0.1,0-0.2-0.1-0.2-0.1c0,0-0.1,0-0.1,0c0,0,0.1-0.1,0.1-0.1
		c0,0,0,0,0,0c0-0.1,0.1-0.1,0.1-0.2c0,0,0-0.1,0-0.1c0,0,0.1,0,0.1,0c0.1,0,0.1,0.1,0.2,0.1c0.1,0,0.1,0.1,0.2,0.1
		c0.2,0.1,0.4,0.1,0.6,0.2c3.4,0.9,9.2,1.2,13.1,1.2c0.2,0,0.5,0,0.7,0c1.1,0,2.7,0,4.5-0.1c1.4-0.1,2.9-0.2,4.3-0.3
		c0.7-0.1,1.3-0.2,1.8-0.3c0.4-0.1,0.7-0.1,1-0.2c0.3-0.1,0.5-0.1,0.7-0.2c0.2-0.1,0.4-0.1,0.6-0.2c0.2-0.1,0.3-0.1,0.5-0.2
		c0.1-0.1,0.2-0.1,0.3-0.2c0,0,0,0.1,0,0.1c0,0,0,0,0,0.1c0,0.1,0.1,0.1,0.1,0.1c0,0.1,0.1,0.1,0.1,0.2c0,0,0,0,0,0
		c-0.1,0-0.1,0.1-0.2,0.1c0,0-0.1,0-0.1,0.1C60.7,141.2,60.6,141.2,60.6,141.3z M61.4,135.4c0-0.8-0.1-1.5-0.5-2
		c-0.1-0.1-0.2-0.1-0.3-0.1h0c-2-1.7-12.9-1.8-14.3-1.8c-1.4,0-12.4,0.1-14.3,1.8c-0.1,0-0.2,0-0.2,0.1c-0.1,0.1-0.2,0.3-0.2,0.4
		c-0.6-6.3-0.6-17,4.3-23.2c2.6-3.2,6.2-4.9,10.8-5c0.1,0,0.3,0,0.4,0c4.3,0,7.8,1.5,10.2,4.4C62.7,116.6,62.1,129.2,61.4,135.4z
		 M111.1,127.2c0.1-2.9,2.1-4.6,3.8-6c0.2-0.2,0.4-0.3,0.6-0.5c0.6-0.5,1.1-0.9,1.4-1.4c0.3-0.4,0.4-1.2,0.5-2
		c2.3,0.8,6.1,1.2,11.6,1.2c0.8,0,1.6,0,2.2,0c6.5-0.1,11-0.5,13.6-1.3c0,0.9,0.2,1.8,0.4,2.2c0.5,0.8,1.3,1.4,2.1,2.1
		c1.7,1.4,3.6,3,3.7,5.8c0.1,4.8,0.5,32.5-0.1,40.6c0,0,0,0.1,0,0.1c-0.8,6.7-11.2,8.1-19.9,8.1c-4.7,0-19,0-19.6-8
		C110.6,160.2,111,132.1,111.1,127.2z M116.9,111.2c0-0.7-0.1-1.5,0.1-2c2.2,1.6,12.8,1.7,14.2,1.7c1.3,0,11.8-0.1,14.1-1.7
		c0.1,0.3,0.1,0.8,0.1,1.3c-1.1,0.6-5.6,1.1-13.3,1.4l-0.1,0c-0.6,0-0.9,0-1,0c-0.5,0.1-1,0.5-1,1c0,0.2,0.1,0.7,1,0.9
		c0.1,0,0.4,0,0.7,0c1.7,0,11-0.5,13.7-1.2c0,0.2,0.1,0.5,0.2,0.7c0,0.1,0,0.1,0,0.2c-0.6,0.3-2.4,0.8-5,1c-1.9,0.2-4,0.4-5.7,0.5
		c-1.5,0.1-2.9,0.1-3.8,0.2c-0.4,0-1,0-1.5,0c-2.2-0.1-5.3-0.3-8-0.6c-2.4-0.3-4.2-0.7-4.8-1C117,112.8,117,112,116.9,111.2z
		 M117.5,108.6c0,0,0.1-0.1,0.2-0.1c0.1-0.1,0.3-0.1,0.6-0.2c0.3-0.1,0.6-0.2,0.9-0.2c2.2-0.4,6.3-0.9,12-0.9c2.1,0,4,0.1,5.7,0.2
		c-1.8-0.1-3.8-0.1-5.3-0.1c-2.1,0-4.1,0.1-5.9,0.2c-0.1,0-0.2,0.1-0.3,0.2c-0.1,0.1-0.1,0.2-0.1,0.3c0,0.1,0.1,0.1,0.1,0.2
		c0.1,0.1,0.2,0.2,0.4,0.2c0,0,0,0,0,0c1.8-0.1,3.8-0.2,5.9-0.2c2.7,0,4.8,0.1,6.4,0.2c1,0.1,1.7,0.1,2.3,0.2c0.3,0,0.5,0.1,0.7,0.1
		c-0.2,0-0.4,0.1-0.6,0.1c-0.5,0.1-1.3,0.2-2.2,0.2c-1.5,0.1-3.7,0.2-6.6,0.2c-2.2,0-4.3-0.1-6.1-0.2c-0.3,0-0.5,0-0.8-0.1
		c-0.1,0-0.1,0-0.1,0.1c-0.2,0.1-0.3,0.2-0.3,0.4c0,0.1,0,0.2,0.1,0.3c0.1,0.1,0.2,0.1,0.3,0.2c1.9,0.2,4.4,0.2,7,0.2
		c2.1,0,3.8,0,5.1-0.1c-1.6,0.1-3.5,0.2-5.6,0.2c-6.7,0-11.3-0.6-13-1.1c-0.3-0.1-0.5-0.2-0.6-0.2
		C117.5,108.7,117.5,108.6,117.5,108.6z M144.7,108.5c0.1,0,0.2,0.1,0.2,0.1c0,0-0.1,0.1-0.1,0.1c-0.1,0.1-0.3,0.1-0.6,0.2
		c-0.7,0.2-1.9,0.4-3.6,0.6c1.3-0.2,1.7-0.4,1.9-0.6c0.1-0.1,0.1-0.2,0.1-0.2c0,0,0,0,0,0c0-0.1,0-0.1,0-0.2c0-0.1,0-0.1-0.1-0.2
		c0,0,0,0,0-0.1c0-0.1-0.1-0.1-0.2-0.2c-0.3-0.2-0.8-0.3-1.4-0.4c1,0.1,1.8,0.2,2.4,0.4c0.4,0.1,0.7,0.2,0.9,0.2
		C144.4,108.3,144.6,108.4,144.7,108.5z M145.6,111.6C145.6,111.7,145.6,111.7,145.6,111.6c-0.1,0.1-0.1,0.1-0.2,0.1
		c-1.5,0.6-10.5,1.2-13.6,1.2c-0.5,0-0.6,0-0.6,0c-0.1,0-0.1,0-0.2,0c0,0,0.1-0.1,0.2-0.1c0.1,0,0.4,0,0.8,0l0.2,0
		c4.7-0.2,11-0.5,13.2-1.3c0.1,0,0.2-0.1,0.2-0.1c0,0,0.1,0,0.1,0c0.1,0,0.1,0.1,0.1,0C145.8,111.4,145.8,111.5,145.6,111.6z
		 M116.5,115.8c0-0.1,0.1-0.1,0.1-0.2c0,0,0,0,0.1-0.1c0,0,0-0.1,0-0.2c0-0.1,0-0.1,0-0.2c0.1,0.1,0.2,0.1,0.3,0.1
		c0.2,0.1,0.3,0.1,0.5,0.2c0.2,0.1,0.4,0.1,0.6,0.2c0.2,0.1,0.5,0.1,0.7,0.2c0.3,0.1,0.6,0.1,1,0.2c1.6,0.3,3.5,0.5,5.5,0.6
		c1.7,0.1,3.4,0.1,5,0.1c0.3,0,0.5,0,0.7,0c3.9,0,9.8-0.2,13.1-1.2c0.2-0.1,0.4-0.1,0.6-0.2c0.1,0,0.1-0.1,0.2-0.1
		c0.1,0,0.1-0.1,0.2-0.1c0,0,0.1,0,0.1-0.1c0,0,0,0.1,0,0.1c0,0.1,0,0.2,0.1,0.2c0,0,0,0,0,0c0,0,0.1,0.1,0.1,0.1c0,0-0.1,0-0.1,0
		c-0.1,0-0.1,0.1-0.2,0.1c-0.1,0-0.1,0.1-0.2,0.1c-0.1,0-0.1,0.1-0.2,0.1c-0.1,0-0.2,0-0.2,0.1c-1.9,0.6-5.7,1.3-13.5,1.4
		c-0.6,0-1.3,0-2.1,0c-5.5,0-8.7-0.4-10.6-0.9c-0.4-0.1-0.7-0.2-0.9-0.3c-0.1,0-0.2-0.1-0.2-0.1c-0.1,0-0.1-0.1-0.2-0.1
		c-0.1,0-0.1-0.1-0.2-0.1c0,0,0,0,0,0C116.7,116,116.6,116,116.5,115.8C116.5,115.9,116.5,115.9,116.5,115.8
		C116.5,115.8,116.5,115.8,116.5,115.8z M146.2,109.2c-0.1-0.4-0.2-0.8-0.5-1.1c-0.1-0.1-0.2-0.1-0.2-0.1
		c-1.9-1.7-12.9-1.8-14.3-1.8c-1.4,0-12.3,0.1-14.3,1.8h0c-0.1,0-0.2,0-0.3,0.1c-0.2,0.2-0.3,0.5-0.4,0.8
		c-0.6-6.3-0.7-17.2,4.3-23.5c2.6-3.2,6.2-4.9,10.8-5c4.5-0.1,8.1,1.4,10.6,4.4C147.2,91.2,146.9,102.8,146.2,109.2z M146.4,114.7
		c0,0,0.1-0.1,0.1-0.1c0,0.1,0,0.2,0,0.3c0,0,0,0,0,0.1C146.5,114.9,146.4,114.8,146.4,114.7z M174.1,53.9l-4.4,14.5
		c-0.5,0-0.9,0.2-1.3,0.5c-0.7-1.4-1.5-2.7-2.2-4.1c0,0,0-0.1,0-0.1c0-0.2,0-0.3,0-0.5c-0.1-0.7-0.6-1.2-1.1-1.6
		c-1.3-2.4-2.5-4.8-3.8-7.2c-0.1-0.2-0.4-0.4-0.6-0.4c-0.1,0-0.2,0-0.3,0.1c-0.7,0.4-1.5,0.7-2.2,1.1c-0.2,0-0.4-0.1-0.6-0.1
		c-1,0-1.9,0.6-2.2,1.5c-3.3,1.6-6.7,3.3-10.1,4.8l0.5-1.5c1.1-0.2,2-1.2,2-2.4c0-0.6-0.2-1.2-0.6-1.6l5.1-14.6
		c0.9-0.3,1.6-1.2,1.6-2.3h-0.8v0h0.8c0-0.5-0.1-0.9-0.4-1.3l1.6-4.6c0.1,1.2,1.2,2.2,2.4,2.2c1.4,0,2.5-1.1,2.5-2.5
		c0-0.2,0-0.3-0.1-0.5c4.8,1.6,9.6,3.2,14.5,4.7c-0.5,0.4-0.9,1.1-0.9,1.9h2.5h2.2l0,0H176h-2.5c0,1.4,1.1,2.5,2.5,2.5
		c0.6,0,1.2-0.3,1.7-0.7l-2.5,8.2c-1,0.3-1.7,1.2-1.7,2.3C173.6,53,173.8,53.5,174.1,53.9z M178.4,39.6c0,0,0-0.1,0-0.1
		c0,0,0,0,0.1,0L178.4,39.6z M155.9,32.2C155.9,32.2,156,32.2,155.9,32.2c0,0.1,0,0.1-0.1,0.1L155.9,32.2z M201.7,67
		c-0.1-0.2-0.4-0.3-0.6-0.3c-0.1,0-0.2,0-0.3,0.1c-4.8,2.9-9.7,5.7-14.5,8.4l8.4-31c7.6,2.1,15.3,4,23,5.7l-7,31.4
		C207.6,76.6,204.6,71.8,201.7,67z M284.7,81.2c-0.1-0.2-0.3-0.2-0.5-0.2c-0.2,0-0.3,0-0.4,0.2c-4.3,3.5-8.7,7-13.2,10.4l3.9-31.9
		c7.8,0.9,15.8,1.7,23.6,2.3l-2.5,32C291.8,89.8,288.2,85.5,284.7,81.2z M318.5,148.7c0.5,0.7,1.2,1.3,2,1.9c1.7,1.4,3.7,3.1,3.8,6
		c0,1.2,0.1,3.9,0.1,7.4c0,0.9,0,1.8,0,2.7c0,3.8,0.1,8.2,0.1,12.5c0,7.5-0.1,14.8-0.3,18.2v0c-0.6,8-14.9,8-19.6,8
		c-8.7,0-19.1-1.4-19.9-8.1c0,0,0-0.1,0-0.1c-0.6-8.1-0.2-35.8-0.1-40.6c0.1-2.8,2-4.4,3.7-5.8c0.8-0.7,1.6-1.4,2.1-2.1
		c0.3-0.5,0.4-1.3,0.4-2.2c2.6,0.8,7.1,1.2,13.6,1.3c0.6,0,1.3,0,2.2,0c5.5,0,9.3-0.4,11.6-1.2C318.1,147.4,318.2,148.3,318.5,148.7
		z M290.5,138.1c0,0,0.1-0.1,0.2-0.1c0.1-0.1,0.3-0.1,0.6-0.2c0.3-0.1,0.6-0.2,0.9-0.2c0.6-0.1,1.4-0.3,2.4-0.4
		c-0.6,0.1-1.1,0.2-1.4,0.4c-0.1,0.1-0.2,0.1-0.2,0.2c0,0,0,0,0,0.1c0,0.1-0.1,0.1-0.1,0.2c0,0.1,0,0.1,0,0.2c0,0,0,0,0,0
		c0,0.1,0,0.1,0.1,0.2c0.2,0.2,0.6,0.4,1.9,0.6c-1.7-0.2-2.9-0.4-3.6-0.6c-0.3-0.1-0.5-0.2-0.6-0.2
		C290.6,138.1,290.5,138.1,290.5,138.1z M317.7,137.9c0.1,0,0.2,0.1,0.2,0.1c0,0-0.1,0.1-0.1,0.1c-0.1,0.1-0.3,0.1-0.6,0.2
		c-1.7,0.5-6.2,1.1-13,1.1c-2.1,0-4-0.1-5.6-0.2c1.4,0.1,3.1,0.1,5.2,0.1c2.5,0,5-0.1,7-0.2c0.2,0,0.4-0.2,0.4-0.5
		c0-0.2-0.2-0.3-0.3-0.3c-0.1,0-0.1-0.1-0.2-0.1h0c-0.2,0-0.5,0-0.8,0.1c-1.8,0.1-3.9,0.2-6.1,0.2c-2.9,0-5-0.1-6.6-0.2
		c-1-0.1-1.8-0.1-2.3-0.2c-0.2,0-0.4-0.1-0.6-0.1c0.2,0,0.5-0.1,0.8-0.1c0.6-0.1,1.4-0.2,2.4-0.2c1.6-0.1,3.7-0.2,6.4-0.2
		c2.1,0,4.1,0.1,5.9,0.2c0.2,0,0.3-0.1,0.3-0.2c0-0.1,0.1-0.1,0.1-0.2c0-0.2-0.2-0.4-0.4-0.5c-1.8-0.1-3.8-0.2-5.9-0.2
		c-1.5,0-3.4,0-5.3,0.1c1.7-0.1,3.6-0.2,5.7-0.2c5.7,0,9.8,0.4,12,0.9c0.4,0.1,0.7,0.2,0.9,0.2C317.4,137.8,317.6,137.9,317.7,137.9
		z M304.2,140.4c1.3,0,12-0.1,14.2-1.7c0.1,0.5,0.1,1.3,0.1,2c0,0.8,0,1.6,0.1,2.3c-0.6,0.2-2.3,0.7-4.8,1c-2.7,0.3-5.8,0.5-8,0.6
		c-0.6,0-1.1,0-1.6,0c-1,0-2.4-0.1-4-0.2c-1.8-0.1-3.8-0.3-5.5-0.5c-2.6-0.3-4.4-0.8-5-1c0,0,0-0.1,0-0.2c0.1-0.2,0.1-0.4,0.2-0.7
		c2.7,0.8,12,1.2,13.7,1.2c0.4,0,0.6,0,0.7,0c0.9-0.2,1-0.7,1-0.9c0-0.5-0.5-0.9-1-1c-0.1,0-0.4,0-1.1,0c-7.7-0.3-12.2-0.8-13.3-1.4
		c0-0.5,0-0.9,0.1-1.3C292.4,140.3,302.9,140.4,304.2,140.4z M289.7,140.8C289.7,140.9,289.8,140.9,289.7,140.8
		c0.2,0.1,0.2,0.1,0.3,0.1c2.2,0.8,8.5,1.1,13.2,1.3c0.5,0,0.9,0,1,0c0.1,0,0.1,0,0.2,0.1c0,0-0.1,0-0.2,0c0,0-0.2,0-0.6,0
		c-3.1,0-12.1-0.7-13.6-1.2c-0.1,0-0.2-0.1-0.2-0.1c0,0,0,0,0,0c-0.1-0.1-0.2-0.2-0.2-0.2c0,0,0,0,0,0
		C289.6,140.9,289.6,140.9,289.7,140.8z M289,144.1c0,0.1,0,0.2-0.1,0.3c0,0,0,0,0-0.1c0-0.1,0-0.2,0-0.3
		C288.9,144.1,288.9,144.1,289,144.1z M318.8,145.4c0,0-0.1,0-0.1,0.1c0,0-0.1,0-0.1,0.1c-0.1,0-0.1,0.1-0.2,0.1
		c-0.1,0-0.1,0.1-0.2,0.1c-0.1,0-0.1,0.1-0.2,0.1c-0.3,0.1-0.6,0.2-0.9,0.3c-1.9,0.5-5.1,0.9-10.6,0.9c-0.8,0-1.6,0-2.1,0
		c-7.8-0.1-11.7-0.8-13.6-1.4c-0.1,0-0.2,0-0.2-0.1c-0.1,0-0.1-0.1-0.2-0.1c-0.1,0-0.1-0.1-0.2-0.1c-0.1,0-0.2-0.1-0.2-0.1
		c0,0-0.1,0-0.1,0c0,0,0.1-0.1,0.1-0.1c0,0,0,0,0,0c0-0.1,0-0.2,0.1-0.2c0,0,0-0.1,0-0.1c0,0,0.1,0,0.1,0.1c0.1,0,0.1,0.1,0.2,0.1
		c0.1,0,0.1,0.1,0.2,0.1c0.2,0.1,0.4,0.1,0.6,0.2c3.4,1,9.2,1.2,13.2,1.2l0.7,0c1.1,0,2.7,0,4.5-0.1c1.4-0.1,2.9-0.2,4.3-0.3
		c0.7-0.1,1.3-0.2,1.8-0.3c0.4-0.1,0.7-0.1,1-0.2c0.3-0.1,0.5-0.1,0.7-0.2c0.2-0.1,0.4-0.1,0.6-0.2c0.2-0.1,0.3-0.1,0.5-0.2
		c0.1,0,0.2-0.1,0.2-0.1c0,0,0,0.1,0.1,0.1c0,0.1,0.1,0.2,0.1,0.2C318.8,145.2,318.8,145.3,318.8,145.4
		C318.9,145.3,318.9,145.3,318.8,145.4C318.9,145.3,318.9,145.3,318.8,145.4C318.9,145.4,318.9,145.4,318.8,145.4z M319.2,138.4
		c-0.1-0.3-0.2-0.6-0.4-0.8c-0.1-0.1-0.2-0.1-0.3-0.1h0c-2-1.7-12.9-1.8-14.3-1.8c-1.4,0-12.4,0.1-14.3,1.8c-0.1,0-0.2,0-0.2,0.1
		c-0.3,0.3-0.4,0.6-0.5,1c-0.7-6.4-1-18.1,4.3-24.3c2.5-3,6.1-4.5,10.6-4.4c4.6,0.1,8.2,1.8,10.8,5
		C320,121.2,319.8,132.2,319.2,138.4z M419.4,64.7c0,1,0.6,1.8,1.4,2.2l1.1,7.7c-1.3,0-2.4,1.1-2.4,2.5c0,1.4,1.1,2.5,2.5,2.5
		c0.2,0,0.4,0,0.6-0.1l1.1,8.3c-0.5-0.5-1.1-0.8-1.8-0.8c-0.6,0-1.2,0.2-1.6,0.6c-1-0.8-2.1-1.5-3.1-2.3c0.6-0.4,1-1.2,1-2
		c0-1.4-1.1-2.5-2.5-2.5c-1.1,0-1.9,0.7-2.3,1.6c-0.9-0.7-1.9-1.4-2.8-2.2c-0.3-0.2-0.7-0.2-1,0.1c-3.5,4.3-7.1,8.7-10.7,13l-0.2-2
		c0.5-0.5,0.9-1.1,0.9-1.9c0-0.9-0.5-1.7-1.3-2.1l-0.7-7.7c1.1-0.2,2-1.2,2-2.4c0-1.4-1.1-2.4-2.4-2.5l-0.7-7.5
		c0.2,0.1,0.4,0.1,0.7,0.1c1.4,0,2.5-1.1,2.5-2.5c0-1.4-1.1-2.5-2.5-2.5c-0.4,0-0.8,0.1-1.1,0.3l-0.1-1.3c2-0.2,4-0.4,6-0.6
		c0.4,0.3,0.9,0.4,1.4,0.4c0.7,0,1.3-0.3,1.8-0.8c2.8-0.3,5.5-0.6,8.2-1c0.3,1,1.2,1.7,2.3,1.7c1.3,0,2.4-1,2.4-2.3
		c0.5-0.1,1-0.1,1.4-0.2l0.6,4.4C419.8,63.4,419.4,64,419.4,64.7z M367.8,83.5c-3.8,4.1-7.6,8.1-11.6,12.1l-0.7-32.1
		c7.9-0.2,15.9-0.5,23.7-1l1.9,29.9l0,0.2l0,0.2l0,0.2l0,0.2l0,0.2l0.1,1c-0.3-0.2-0.6-0.5-0.8-0.7c-0.1-0.1-0.1-0.1-0.2-0.2
		c-0.1-0.1-0.1-0.1-0.2-0.2c-0.1-0.1-0.1-0.1-0.2-0.2c-0.1-0.1-0.1-0.1-0.2-0.2c-0.1-0.1-0.1-0.1-0.2-0.2c-3.6-3.2-7.3-6.4-10.8-9.6
		C368.5,83.2,368,83.2,367.8,83.5z M366.3,141.9l0-0.6c0-0.5,0-1.1,0-1.5c0.1-2.9,2-4.5,3.8-6c0.2-0.2,0.4-0.3,0.6-0.5
		c0.6-0.5,1.1-0.9,1.4-1.4c0.3-0.4,0.4-1.3,0.5-2c2.3,0.8,6.1,1.2,11.6,1.2c0.8,0,1.6,0,2.2,0c6.5-0.1,11-0.5,13.6-1.3
		c0,0.9,0.2,1.8,0.4,2.2c0.5,0.8,1.3,1.4,2.1,2.1c1.7,1.4,3.6,3,3.7,5.8c0,0.7,0,1.4,0.1,2.1c0.1,4.2,0.3,10-0.2,16.5
		c0,0,0,0.1,0,0.1c-0.8,6.7-11.2,8.1-19.9,8.1c-4.7,0-19,0-19.6-8C365.9,152.1,366.1,146.2,366.3,141.9z M382.8,95.9l-0.2-2.7
		c1-0.2,2-0.3,3.1-0.3c0.1,0,0.3,0,0.4,0c4.6,0.1,8.2,1.8,10.8,5c5,6.3,4.9,16.9,4.4,23.2c-0.1-0.1-0.1-0.3-0.3-0.4
		c-0.1-0.1-0.2-0.1-0.2-0.1c-1.9-1.7-12.9-1.8-14.3-1.8c-1.4,0-12.3,0.1-14.3,1.8h0c-0.1,0-0.2,0-0.3,0.1c-0.4,0.4-0.5,1.2-0.5,2
		c-0.7-6.1-1.4-18.7,4.2-25.4c1-1.2,2.3-2.2,3.6-2.9c0.9,0.7,1.7,1.5,2.6,2.2c0.1,0.1,0.3,0.2,0.5,0.2c0.4,0,0.7-0.3,0.7-0.7
		C382.8,96.1,382.8,96,382.8,95.9z M372.2,123.8c0-0.7-0.1-1.5,0.1-2c2.2,1.6,12.8,1.7,14.2,1.7c1.3,0,11.8-0.1,14.1-1.7
		c0.1,0.3,0.1,0.8,0.1,1.3c-1.1,0.6-5.6,1.1-13.3,1.4c-0.7,0-1,0-1.1,0.1c-0.5,0.1-1,0.4-1,1c0,0.2,0.1,0.7,1,0.9c0.1,0,0.4,0,0.7,0
		h0c1.7,0,11-0.5,13.7-1.2c0,0,0,0,0,0c-0.1,0.3-0.1,0.6-0.1,0.7c-0.6,0.2-2.3,0.7-4.8,1c-3.4,0.4-7.5,0.6-9.6,0.6
		c-2.1,0-6.2-0.3-9.5-0.6c-2.2-0.2-3.8-0.7-4.6-0.9C372.2,125.4,372.2,124.6,372.2,123.8z M372.7,121.2c0,0,0.1-0.1,0.2-0.1
		c0.1-0.1,0.3-0.1,0.6-0.2c0.3-0.1,0.6-0.2,0.9-0.2c2.2-0.4,6.3-0.9,12-0.9c2.1,0,4,0.1,5.7,0.2c-1.8-0.1-3.8-0.1-5.3-0.1
		c-2.1,0-4.2,0.1-5.9,0.2c-0.2,0-0.4,0.2-0.4,0.5c0,0.1,0.1,0.1,0.1,0.2c0.1,0.1,0.2,0.2,0.4,0.2h0c1.7-0.1,3.8-0.2,5.9-0.2
		c2.7,0,4.8,0.1,6.4,0.2c1,0.1,1.7,0.1,2.3,0.2c0.3,0,0.5,0.1,0.7,0.1c-0.2,0-0.4,0.1-0.6,0.1c-0.5,0.1-1.3,0.2-2.2,0.2
		c-1.5,0.1-3.7,0.2-6.6,0.2c-2.2,0-4.3-0.1-6.1-0.2c-0.3,0-0.5,0-0.8-0.1c-0.1,0-0.1,0-0.1,0.1c-0.2,0.1-0.3,0.2-0.3,0.4
		c0,0.2,0.2,0.5,0.4,0.5c2,0.2,4.4,0.2,7,0.2c2,0,3.6,0,5-0.1c-1.6,0.1-3.4,0.1-5.4,0.1c-6.7,0-11.3-0.6-13-1.1
		c-0.3-0.1-0.5-0.2-0.6-0.2C372.8,121.3,372.7,121.2,372.7,121.2z M399.9,121.1c0.1,0,0.2,0.1,0.2,0.1c0,0-0.1,0.1-0.1,0.1
		c-0.1,0.1-0.3,0.1-0.6,0.2c-0.7,0.2-1.9,0.4-3.6,0.6c1.2-0.2,1.7-0.4,1.9-0.6c0.1-0.1,0.1-0.2,0.1-0.2c0,0,0,0,0,0
		c0-0.1,0-0.1,0-0.2c0-0.1,0-0.1-0.1-0.2c0,0,0,0,0-0.1c0-0.1-0.1-0.1-0.2-0.2c-0.3-0.2-0.8-0.3-1.4-0.4c1,0.1,1.8,0.2,2.4,0.4
		c0.4,0.1,0.7,0.2,0.9,0.2C399.6,121,399.8,121,399.9,121.1z M378.1,128.3c-0.6-0.1-1.1-0.1-1.6-0.2c-0.5-0.1-0.9-0.1-1.3-0.2
		c-0.1,0-0.2,0-0.3-0.1c0.1,0,0.2,0,0.3,0c0.4,0.1,0.9,0.1,1.4,0.2c0,0,0.1,0,0.1,0c0.6,0.1,1.2,0.1,1.8,0.2c0.7,0.1,1.3,0.1,2,0.2
		c0.1,0,0.3,0,0.4,0c-0.2,0-0.4,0-0.5,0C379.5,128.4,378.8,128.4,378.1,128.3z M400.8,124.3C400.8,124.3,400.8,124.3,400.8,124.3
		c-0.1,0.1-0.1,0.1-0.2,0.1c-1.5,0.6-10.5,1.2-13.6,1.2c-0.5,0-0.6,0-0.6,0c-0.1,0-0.1,0-0.2,0c0,0,0.1-0.1,0.2-0.1c0.1,0,0.5,0,1,0
		c4.7-0.2,11-0.5,13.2-1.3c0.1,0,0.2-0.1,0.2-0.1c0,0,0,0,0,0C400.9,124.1,400.9,124.2,400.8,124.3
		C400.9,124.3,400.9,124.3,400.8,124.3z M371.6,128.4c0-0.1,0.1-0.1,0.1-0.2c0-0.1,0.1-0.2,0.1-0.2c0,0,0-0.1,0-0.1
		c0.1,0.1,0.3,0.1,0.4,0.2c0.2,0.1,0.3,0.1,0.5,0.2c0.2,0.1,0.4,0.1,0.6,0.2c0.2,0.1,0.5,0.1,0.7,0.2c0.3,0.1,0.6,0.1,1,0.2
		c1.6,0.3,3.5,0.5,5.5,0.6c1.7,0.1,3.4,0.1,5,0.1c0.3,0,0.5,0,0.7,0c1.7,0,3.8-0.1,5.9-0.2c0,0,0,0,0.1,0c2.7-0.2,5.3-0.5,7.2-1
		c0.2-0.1,0.4-0.1,0.6-0.2c0.1,0,0.1-0.1,0.2-0.1c0.1,0,0.1-0.1,0.2-0.1c0,0,0.1,0,0.1,0c0,0,0,0.1,0,0.1c0,0.1,0.1,0.1,0.1,0.2
		c0,0,0,0,0,0c0,0,0.1,0.1,0.1,0.1c0,0-0.1,0-0.1,0c-0.1,0-0.1,0.1-0.2,0.1c-0.1,0-0.1,0.1-0.2,0.1c-0.1,0-0.1,0.1-0.2,0.1
		c-0.1,0-0.1,0-0.2,0.1c-1.9,0.6-5.7,1.3-13.6,1.4c-0.6,0-1.3,0-2.1,0c-5.5,0-8.7-0.4-10.6-0.9c-0.3-0.1-0.7-0.2-0.9-0.3
		c-0.1,0-0.2-0.1-0.2-0.1c-0.1,0-0.1-0.1-0.2-0.1c-0.1,0-0.1-0.1-0.2-0.1c0,0,0,0,0,0c-0.1,0-0.2-0.1-0.2-0.1
		C371.7,128.5,371.6,128.5,371.6,128.4C371.6,128.4,371.6,128.4,371.6,128.4z M401.7,127.6C401.7,127.6,401.7,127.6,401.7,127.6
		c0-0.1-0.1-0.2-0.1-0.3c0,0,0,0,0,0c0,0,0,0,0.1-0.1c0,0,0.1-0.1,0.1-0.1c0,0.1,0,0.2,0,0.3C401.7,127.5,401.7,127.6,401.7,127.6
		C401.7,127.6,401.7,127.6,401.7,127.6z M385.5,61.5v30.4c-1.1,0-2.1,0.1-3,0.3l-2-30.3C382.2,61.7,383.9,61.6,385.5,61.5z"/>
	<radialGradient id="SVGID_31_" cx="130.2729" cy="145.3085" r="16.0926" gradientUnits="userSpaceOnUse">
		<stop  offset="0" style="stop-color:#231F20"/>
		<stop  offset="1" style="stop-color:#0D0D0D"/>
	</radialGradient>
	<path class="st30" d="M118.4,145.7c0.2,0,0.3-0.1,0.3-0.2c0.1,0.1,0.2,0.2,0.4,0.2c0.2,0,0.4-0.2,0.4-0.4c0-1.8,0.2-3.5,0.5-5.2
		c1.4-7.3,5.6-12.4,10.2-12.4c4.2,0,8.1,4.1,9.8,10.5c0.6,2.2,0.9,4.6,0.9,7.1c0,0.2,0.2,0.4,0.4,0.4c0.1,0,0.2,0,0.2-0.1
		c-0.1,9.9-5.2,17.9-11.4,17.9c-5.2,0-9.8-5.7-11.1-13.9c0-0.2-0.2-0.4-0.4-0.4c0,0-0.1,0-0.1,0c-0.1,0-0.2,0.1-0.3,0.2
		c-0.1,0.1-0.1,0.2-0.1,0.3c1.3,8.6,6.2,14.6,11.9,14.6c6.8,0,12.3-8.6,12.3-19.2c0-1.1-0.1-2.3-0.2-3.4c-1-9.2-6.1-15.8-12.1-15.8
		c-6.8,0-12.3,8.6-12.3,19.2C118,145.6,118.2,145.7,118.4,145.7z"/>
	<radialGradient id="SVGID_32_" cx="304.3882" cy="176.4266" r="16.0925" gradientUnits="userSpaceOnUse">
		<stop  offset="0" style="stop-color:#231F20"/>
		<stop  offset="1" style="stop-color:#0D0D0D"/>
	</radialGradient>
	<path class="st31" d="M304.4,157.3c-6,0-11.1,6.6-12.1,15.8c-0.1,1.1-0.2,2.2-0.2,3.4c0,10.6,5.5,19.2,12.3,19.2
		c5.7,0,10.6-6,11.9-14.6c0-0.2-0.1-0.5-0.4-0.5c0,0,0,0-0.1,0c-0.2,0-0.4,0.2-0.4,0.4c-1.3,8.2-5.8,13.9-11.1,13.9
		c-6.2,0-11.3-8-11.4-17.9c0.1,0.1,0.2,0.1,0.2,0.1c0.2,0,0.4-0.2,0.4-0.4c0-2.5,0.3-4.8,0.9-7.1c1.7-6.4,5.6-10.5,9.8-10.5
		c4.6,0,8.8,5.1,10.2,12.4c0.3,1.7,0.5,3.4,0.5,5.2c0,0.2,0.2,0.4,0.4,0.4c0.2,0,0.3-0.1,0.4-0.2c0.1,0.1,0.2,0.2,0.3,0.2
		c0.2,0,0.4-0.2,0.4-0.4C316.7,165.9,311.2,157.3,304.4,157.3z"/>
</g>
</svg>
