<?xml version="1.0" encoding="utf-8"?>
<!-- Generator: Adobe Illustrator 21.1.0, SVG Export Plug-In . SVG Version: 6.00 Build 0)  -->
<svg version="1.1" id="Layer_1" xmlns="http://www.w3.org/2000/svg" xmlns:xlink="http://www.w3.org/1999/xlink" x="0px" y="0px"
	 viewBox="0 0 288 216" style="enable-background:new 0 0 288 216;" xml:space="preserve">
<style type="text/css">
	.st0{fill-rule:evenodd;clip-rule:evenodd;fill:#010101;}
</style>
<g>
	<path class="st0" d="M197.4,159.1c1.1,0.8,2.1,1.6,3.2,2.5c1-0.6,2.2-1.3,3.2-2c2.4-1.7,4.8-3.4,7.3-5.1c0.5-0.4,1.1-0.7,1.7-1.1
		c1.2-0.8,2.6-1,4-0.8c1.5,0.2,2.6,1,2.9,2.4c0.2,1.1,0.4,2.2,0.2,3.3c-0.4,3-1,5.9-1.6,8.8c-0.7,3.1-1.2,6.3-1.3,9.4
		c0,1,0.2,2.1,0.5,3c0.5,1.4,1.3,1.6,2.5,0.8c0.7-0.5,1.4-1.2,1.8-1.9c1.1-1.9,2.1-4,3.1-6c0.2-0.5,0.2-1,0.3-1.6
		c0.2-4.1,1.2-8,2.6-11.8c0.2-0.5,0.4-0.9,0.7-1.3c0.8-1.3,2.4-1.9,3.9-1.3c0.8,0.3,1.1,0.7,0.9,1.7c-0.2,1.3-0.4,2.7-0.7,4
		c-0.9,3.5-1.7,7-1.8,10.6c-0.1,1.9,0.2,3.7,0.4,5.6c0.1,0.7,0.5,1.4,1.1,2c1.4-0.7,2.4-1.8,3.1-3.1c1.2-1.9,2.3-3.9,3.3-5.8
		c0.8-1.4,1.4-2.9,2.2-4.3c0.3-0.6,0.4-1.2,0.3-1.8c-0.5-3.2-0.8-6.4-0.5-9.6c0.3-3.9,0.8-7.7,1.2-11.6c0.1-0.7,0.2-1.3,0.3-2.2
		c-0.6,0.1-1.1,0.2-1.5,0.4c-6.7,1.8-13.2,1.4-19.6-1.4c-1.5-0.7-2.9-1.6-4.3-2.5c-0.5-0.3-0.9-0.8-1.3-1.4
		c-0.5-0.8-0.3-1.4,0.6-1.7c1.5-0.5,2.9-0.3,4.1,0.9c1.7,1.7,3.7,3,6,4c5.2,2.1,10.3,1.8,15.5,0.1c0.7-0.2,0.9-0.6,1-1.3
		c1.7-9,4.3-17.6,7.3-26.2c1.9-5.5,4.3-10.7,7.9-15.3c1.6-2,3.2-3.8,5.2-5.4c2.3-1.9,4.9-3.1,7.9-3.5c5.1-0.6,8.9,2.3,9.6,7.4
		c0.4,3-0.2,5.8-1.2,8.6c-1.2,3.3-2.9,6.3-4.8,9.3c-5.3,8.2-11.7,15.5-19.7,21.3c-0.9,0.7-1.9,1.3-2.9,2c-0.5,0.3-0.8,0.7-0.9,1.4
		c-1.4,7.2-2.5,14.5-2.1,21.9c0.2,4.9,0.9,9.7,2.9,14.3c1,2.2,2.5,3.8,4.9,4.4c1.2,0.3,2.3,0.3,3.4,0c1.9-0.5,3.6-1.4,5.1-2.6
		c2.6-2.1,4.7-4.5,6.5-7.3c3.8-5.8,7.6-11.7,11.3-17.6c0.2-0.3,0.4-0.7,0.6-1c0.4-0.6,1-0.7,1.7-0.3c-0.1,0.3-0.1,0.6-0.3,0.8
		c-0.9,1.6-1.8,3.2-2.8,4.8c-2.6,4.2-5.3,8.4-8,12.6c-1.8,2.8-3.8,5.5-6.2,7.9c-0.7,0.7-1.4,1.4-2.2,1.9c-3.4,2.6-7.2,3.4-11.4,2.6
		c-0.6-0.1-1.2-0.2-1.8-0.4c-3.5-0.9-6.4-2.9-8.2-6c-0.9-1.6-1.7-3.3-2.6-5.1c-0.2,0.3-0.4,0.7-0.6,1c-1.2,2.4-2.4,4.8-3.8,7.1
		c-0.6,1-1.3,2-2.1,2.9c-2,2.1-4.8,2.3-7.1,0.4c-1-0.8-1.7-1.7-2.1-2.9c-0.2-0.4-0.3-0.8-0.5-1.4c-0.2,0.3-0.4,0.6-0.5,0.8
		c-0.2,0.4-0.4,0.8-0.6,1.2c-1.8,4.3-5.7,4.9-9.3,4c-2.8-0.8-4.3-2.7-4.5-5.8c-0.2-3.2,0.2-6.4,0.9-9.6c0.8-3.4,1.6-6.8,2.3-10.2
		c0.1-0.5,0.1-1,0.2-1.7c-0.5,0.2-0.8,0.2-1.1,0.4c-1.3,0.8-2.7,1.6-4,2.5c-2.4,1.6-4.8,3.3-7.3,5c0,0,0,0.2,0.1,0.3
		c1.7,2.5,2.6,5.3,2.9,8.3c0.3,2.9,0.4,5.8,0.4,8.7c0,5.8-1,11.4-2.2,17c-0.7,3.1-1.9,6.1-3.3,8.9c-0.2,0.3-0.4,0.6-0.5,0.9
		c-1.4,2.7-5.6,2.3-7.1,0.5c-1.5-1.9-2.5-3.9-2.8-6.3c-0.2-2.1-0.5-4.2-0.5-6.3c0-5.3,0.1-10.6,0.2-15.8c0.1-2.3,0.3-4.6,0.4-7
		c0-0.2,0-0.5-0.2-0.8c-0.2,0.4-0.4,0.7-0.6,1.1c-0.8,1.6-1.6,3.2-2.6,4.7c-0.9,1.4-2,2.6-3.1,3.9c-1.1,1.2-2.6,1.5-4.2,1.4
		c-2.4-0.2-4.6-1-6.5-2.5c-0.1-0.1-0.3-0.2-0.6-0.4c-0.5,1.4-0.9,2.7-1.4,3.9c-0.6,1.5-1.1,3-1.8,4.5c-1.6,3.1-4.5,4-7.5,2.2
		c-2.3-1.3-3.9-3.5-5.1-5.8c-1.1-2-1.7-4.2-2.1-6.5c0-0.2-0.1-0.4-0.1-0.7c0-0.1-0.1-0.1-0.2-0.3c-0.7,0.9-1.4,1.8-2.2,2.7
		c-0.6,0.7-1.2,1.3-1.9,1.9c-2.3,1.7-4.9,1.5-7-0.4c-1.6-1.5-2.4-3.4-2.7-5.6c-0.2-1.5-0.3-3-0.4-4.5c0-0.3,0-0.6,0-1.2
		c-0.4,0.4-0.6,0.6-0.8,0.9c-1.1,1.4-2.1,2.8-3.2,4.2c-1.5,1.9-3.4,2.5-5.7,2.1c-2.2-0.4-3.7-1.7-4.4-3.8c-0.8-2.2-0.7-4.5-0.4-6.8
		c0.4-3.6,1.1-7.2,1.5-10.8c0.2-2,0.1-4,0-6c0-0.5-0.2-0.9-0.4-1.6c-0.5,0.4-1,0.7-1.3,1.1c-1,1.3-2,2.6-2.7,4c-2,3.6-3,7.6-4,11.7
		c-1,4-2,8-3.7,11.8c-0.4,0.8-0.7,1.5-1.2,2.2c-1.8,2.7-4.3,3.3-7.3,2.2c-2.4-1-4-2.9-4.7-5.3c-0.3-0.9-0.5-1.9-0.8-3
		c-0.3,0.4-0.5,0.7-0.7,0.9c-0.8,1.2-1.7,2.4-2.5,3.7c-2.8,4.5-10.1,4-12.4-0.6c-0.4-0.8-0.8-1.6-1.2-2.6c-0.4,0.6-0.7,1.1-1.1,1.7
		c-0.8,1.4-1.9,2.5-3.2,3.6c-3,2.6-8.5,1.7-10.7-2.2c-1.4-2.4-2-5-2-7.7c0-1.8,0.2-3.6,0.2-5.4c0-0.3,0-0.5,0-0.9
		c-1.7,0.7-3.3,1.3-5,1.9c0,0.4-0.1,0.9-0.1,1.3c-0.5,4.7-1.6,9.1-4.3,13.1c-2.1,3.2-4.9,5.4-8.6,6.5c-1.4,0.4-2.8,0.6-4.2,0.4
		c-2.1-0.3-3.6-1.7-3.9-3.8c-0.5-3.5,0.8-6.5,3-9.1c1.9-2.3,4.3-3.9,6.9-5.3c0.9-0.5,1.9-1,2.9-1.4c0.6-0.2,0.8-0.6,0.9-1.2
		c0.2-3.3,0.2-6.5-0.3-9.8c-0.3-2.1-0.9-4.1-1.5-6.1c-0.3-1.2-1-2.3-2-3.1c-0.6-0.4-1.2-0.6-1.9-0.3c-1.2,0.5-2.3,1.2-3.2,2.1
		c-1.5,1.5-2.8,3.2-3.9,5.1c-3.6,6.5-5.4,13.5-5.7,20.9c0,0.8,0,1.7,0,2.5c0,0.8-0.5,1.2-1.1,1.5c-1.7,0.7-3.3,0.7-5,0
		c-0.7-0.3-1.1-0.8-1.2-1.5c-0.1-0.4-0.1-0.9-0.1-1.3c-0.2-3.7-0.4-7.3-0.5-11c-0.2-5.2-0.4-10.4-0.4-15.6c0-6.2,0.2-12.4,0.4-18.7
		c0-0.3,0-0.5-0.1-0.8c-1.5,0.1-2.8,0.2-4.2,0.2c-5.8,0-10.6-2.4-14.2-6.8c-2.1-2.6-3.6-5.5-4.4-8.8c-0.4-1.7-0.5-3.5-0.2-5.2
		c0.3-1.7,1.7-2.5,3.3-1.7c0.7,0.3,0.9,1,1,1.6c0.1,1.4,0.2,2.9,0.4,4.3c0.4,2.8,1.1,5.4,2.4,7.9c2.2,4.1,5.6,6.7,10.2,7.6
		c2,0.4,3.9,0.3,5.9-0.4c0-0.5,0.1-0.9,0.1-1.4c0.2-7.1,0.4-14.1,1.4-21.2c0.7-5.5,1.8-11,4.2-16c1.2-2.5,2.7-4.9,4.7-6.8
		c1.2-1.1,2.6-2,4.3-2.2c2.7-0.3,4.8,0.7,6.4,2.8c1.6,2.2,2.5,4.6,2.8,7.3c0.4,2.7,0.1,5.4-0.5,8c-2,8.2-5.3,15.8-10.8,22.3
		c-1.3,1.6-2.9,2.9-4.4,4.3c-0.5,0.5-0.8,0.9-0.8,1.6c0,10.3,0,20.6,0,30.9c0,1.5,0.1,3.1,0.4,4.7c0.2-0.4,0.3-0.8,0.5-1.2
		c1.2-3.4,2.5-6.7,4.4-9.8c1-1.6,2.1-3.2,3.4-4.7c3.9-4.6,12.3-3.8,15.4,1.8c1.5,2.7,2.3,5.6,2.5,8.6c0.1,1.9,0.2,3.8,0.3,5.8
		c0,0.2,0.1,0.3,0.1,0.6c1.7-0.5,3.3-1.2,4.8-2.1c0.3-0.2,0.4-0.7,0.6-1.1c1-2.8,1.8-5.6,2.9-8.4c1-2.5,2.5-4.7,4.3-6.8
		c2.3-2.6,5.3-3.9,8.8-3.7c0.5,0,1.1,0.1,1.6,0.3c1.9,0.5,2.9,1.9,2.8,3.9c-0.1,1.4-0.6,2.7-1.4,3.9c-1.6,2.6-3.8,4.6-6.3,6.3
		c-1.2,0.8-2.5,1.5-3.8,2.2c-0.4,0.3-0.8,0.5-0.9,1c-1,5.1-1.9,10.2-1.6,15.4c0.1,1.1,0.4,2.2,0.8,3.2c0.5,1.3,1.2,1.5,2.3,0.8
		c1.1-0.6,2.1-1.4,2.9-2.3c1.1-1.3,2-2.8,2.9-4.3c0.2-0.4,0.2-0.9,0.2-1.4c0-8.2,3.1-14.9,10.1-19.5c1.8-1.2,3.7-1.7,5.8-1.7
		c2.6,0.1,4.6,0.9,5.5,3.6c0,0.1,0.1,0.1,0.2,0.2c0.5-0.7,0.9-1.5,1.4-2.2c1-1.3,2.2-2.1,3.9-2.1c1.6,0.1,2.1,0.6,1.6,2.1
		c-0.5,1.8-1.2,3.6-1.7,5.4c-1.4,4.4-2.5,8.9-3,13.5c-0.3,2.8-0.1,5.6,1.1,8.2c0.8,1.7,1.4,1.9,2.7,0.5c0.6-0.6,1-1.2,1.5-1.9
		c1.9-3,2.9-6.3,3.8-9.7c0.9-3.3,1.8-6.7,2.8-9.9c1-3.2,2.3-6.2,4.2-8.9c1.5-2.2,3.3-2.9,5.8-2.4c2.2,0.5,3.9,2.2,4.3,4.6
		c0.3,1.8,0.1,3.5-0.1,5.2c-0.6,4.1-1.2,8.2-1.7,12.2c-0.2,1.6-0.3,3.1-0.3,4.7c-0.1,1.3,0.1,1.8,0.7,2.7c0.8,0,1.4-0.6,1.9-1.1
		c2.3-2.4,4.3-5,6-7.8c0.3-0.5,0.3-1.1,0.4-1.7c0.3-2.4,0.6-4.8,1-7.2c0.3-1.8,1-3.4,2-4.9c0.9-1.4,2.2-1.7,3.8-1.4
		c0.8,0.1,1.4,0.6,1.6,1.4c0.4,1.7,0.3,3.4,0.1,5.1c-0.6,3.9-1.4,7.8-1.9,11.8c-0.4,2.8-0.9,5.7-0.4,8.5c0.1,0.8,0.3,1.6,0.5,2.4
		c0.3,1.1,0.7,1.3,1.8,0.6c0.5-0.3,1-0.7,1.3-1.1c1.3-1.6,2.6-3.2,3.8-4.9c0.3-0.4,0.5-1.1,0.4-1.6c-0.1-6.8,0.5-13.5,1.5-20.2
		c0.4-3,0.9-6,1.4-9c0-0.2,0-0.4,0-0.7c-0.9-0.2-1.9-0.4-2.8-0.6c-6-1.7-12-3.2-18-5c-7.2-2.2-14.6-3.5-22.1-4.3
		c-5.6-0.6-11.2-0.9-16.8-0.8c-4.3,0.1-8.5,0.6-12.6,1.5c-1.2,0.3-2.4,0.6-3.3,1.7c-0.3,0.4-0.5,0.3-1.5,0c-0.2-1.2,0.3-2.1,1.4-2.4
		c1.6-0.5,3.2-1,4.9-1.3c4.1-0.8,8.4-1,12.6-1c9.4-0.1,18.8,0.9,28,2.6c4.9,0.9,9.7,2.5,14.5,3.9c4.8,1.4,9.6,2.7,14.4,4
		c0.5,0.1,1,0.2,1.5,0.3c0.1-0.4,0.2-0.7,0.3-1c0.6-2.2,1.1-4.4,1.7-6.6c0.2-0.8,0.6-1.5,1-2.2c1.1-1.8,3.4-2.5,5.4-1.7
		c0.9,0.4,1.3,1.1,1.2,2c-0.2,2-0.3,3.9-0.6,5.9c-0.2,1.5-0.6,3.1-0.9,4.7c1.3,0.1,2.5,0.3,3.7,0.3c6.2,0.3,12.3-0.1,18.3-1.4
		c2.2-0.5,4.3-1.1,6.5-1.6c0.8-0.2,1.2-0.7,1.5-1.5c0.9-3.3,2-6.6,3.6-9.7c0.8-1.5,1.6-3,2.6-4.4c0.9-1.2,2-2.2,3.1-3.1
		c1.6-1.3,3.5-1.4,5.4-1.1c2.2,0.4,3.5,2.3,3,4.5c-0.2,1-0.6,2-1,2.9c-2.2,4.3-5.3,7.9-9.6,10.2c-0.8,0.4-1.2,1-1.3,1.9
		c-0.8,5.5-1.6,11-2.4,16.5C197.6,157.5,197.5,158.3,197.4,159.1z M190.9,157.5c0.9-5.2,1.8-10.4,2.7-15.6c-0.1,0-0.2-0.1-0.3-0.1
		c-0.3,0.1-0.6,0.2-0.9,0.2c-6.3,1.8-12.7,2.6-19.2,2.8c-2.4,0-4.8-0.2-7.2-0.3c-0.6,0-1.1,0-1.7,0c-0.4,2.5-0.8,4.8-1.1,7.2
		c-0.6,5.3-1.2,10.6-1.7,15.9c-0.4,3.8-0.6,7.6-0.4,11.4c0.2,2.8,0.6,5.6,1.8,8.2c0.3,0.7,0.7,1.5,1.4,1.9c1-0.6,1.7-1.4,2.1-2.4
		c1.1-2.4,2.2-4.8,3.2-7.2c0.6-1.4,0.8-2.8,0.7-4.4c-0.4-5.4,0.5-10.7,1.9-15.9c0.4-1.3,0.8-2.6,1.4-3.8c1-2,3-2.7,5.1-2
		c0.9,0.3,1.4,0.9,1.3,1.8c0,0.8-0.1,1.5-0.2,2.3c-0.6,4.1-1.3,8.1-1.9,12.2c-0.3,2.3-0.5,4.6-0.6,6.9c0,0.8,0.1,1.6,0.4,2.4
		c0.7,1.6,2,1.9,3.3,0.8c1.5-1.3,2.9-2.8,3.9-4.6c1.5-2.8,3.1-5.6,4.6-8.5c0.2-0.3,0.3-0.6,0.4-1.1c-0.5-0.1-1-0.1-1.4-0.3
		c-1-0.3-2.1-0.5-3-1.1c-1.6-0.9-1.9-2.5-0.8-4c0.8-1.1,1.9-1.9,3.2-2.2C188.9,157.8,189.9,157.7,190.9,157.5z M251.7,134.7
		c0.1,0.1,0.2,0.1,0.3,0.2c0.4-0.3,0.9-0.6,1.3-0.9c8-5.8,14.4-13.1,19.6-21.5c1.7-2.7,3.1-5.5,4.2-8.5c0.7-2.2,1.2-4.4,1-6.7
		c-0.2-2.8-1.6-4.9-3.8-6.4c-0.8-0.6-1.7-0.7-2.5-0.2c-1,0.6-1.9,1.2-2.7,1.9c-1.7,1.5-3.1,3.3-4.1,5.2c-1.6,3-3.1,6-4.5,9.2
		c-3.2,7.5-5.4,15.3-7.6,23.2C252.4,131.7,252,133.2,251.7,134.7z M34.8,123.9c0.4-0.2,0.6-0.3,0.7-0.4c0.6-0.6,1.2-1.1,1.7-1.7
		c6.8-7.5,10.9-16.4,12.4-26.4c0.5-3.3,0.1-6.6-1.6-9.6c-0.7-1.2-1.4-2.3-2.5-3.1c-1.7-1.3-2.5-1.2-3.7,0.5c-1,1.5-1.9,3.1-2.6,4.7
		c-2.1,4.8-2.9,9.8-3.5,15c-0.7,6.5-0.9,13-0.9,19.4C34.8,122.8,34.8,123.2,34.8,123.9z M195.5,207.5c0.9-0.6,1.3-1.3,1.8-2.1
		c1.6-2.7,2.6-5.6,3.3-8.6c1.2-4.7,1.9-9.5,2.2-14.4c0.2-3.4,0.3-6.7,0-10c-0.3-2.6-0.9-5.1-2.1-7.4c-0.3-0.5-0.6-0.9-0.9-1.4
		c-1.1,0.4-2,0.7-2.9,1.1c-0.1,0.5-0.2,0.9-0.2,1.4c-0.3,3.4-0.6,6.8-0.8,10.2c-0.3,4.7-0.6,9.5-0.8,14.2c-0.2,4.8-0.3,9.7-0.4,14.5
		C194.7,205.7,194.9,206.6,195.5,207.5z M91.4,178.1c1.5-0.6,2.3-1,3-2c1.8-2.4,3.5-4.9,5.2-7.4c0.1-0.2,0.2-0.5,0.3-0.7
		c0.2-3.2,1.1-6.3,2.1-9.4c0.1-0.3,0.1-0.6,0.1-0.9c0-0.4-0.1-0.8-0.1-1.3c0-0.7,0.1-1.3,0.1-2c-0.1-1.5-0.9-2.5-2.2-3.1
		c-1.2-0.6-2.3,0-3.2,0.8c-0.8,0.8-1.7,1.6-2.3,2.6c-3,4.4-4.8,9.2-5.1,14.5c-0.2,2.1,0,4.2,0.6,6.2
		C90.1,176.4,90.5,177.4,91.4,178.1z M53.6,167.8c-0.4,0.1-0.6,0.2-0.8,0.3c-2.2,1.1-4.3,2.4-6.1,4.1c-1.6,1.4-2.8,3-3.6,4.9
		c-0.7,1.6-0.9,3.4-0.6,5.1c0.4,2.5,2,3.3,4.3,2.3c3-1.3,4.9-3.7,5.6-6.9c0.5-2.5,0.8-5.1,1.1-7.7C53.5,169.2,53.6,168.6,53.6,167.8
		z M75.8,156.5c1.4-0.9,2.8-1.7,4.1-2.7c1.7-1.3,3.2-2.8,4.3-4.7c0.4-0.8,0.7-1.7,0.9-2.6c0.1-0.5,0-1.2-0.2-1.7
		c-0.4-1.4-1.8-1.9-3.1-1.2c-1.1,0.6-1.8,1.6-2.4,2.6c-1.8,3-2.8,6.3-3.7,9.7C75.7,156,75.8,156.2,75.8,156.5z M200.9,136.6
		c0.4-0.1,0.5-0.1,0.5-0.1c3.4-2.4,6-5.4,7.5-9.2c0.4-0.9,0.5-1.9,0.5-2.9c0-0.5-0.3-1.1-0.7-1.5c-0.4-0.6-0.8-0.6-1.3-0.1
		c-0.6,0.6-1.2,1.3-1.7,2.1c-1.5,2.2-2.5,4.7-3.4,7.3C201.9,133.5,201.5,135,200.9,136.6z M190.7,158.9c-1.8-0.1-3.5,0.9-4.1,2.4
		c-0.4,0.9-0.2,1.7,0.6,2.2c0.8,0.5,1.7,0.9,2.9,0.8C190.3,162.5,190.5,160.7,190.7,158.9z M197.5,161c-0.1,0-0.2,0.1-0.3,0.1
		c0.2,0.6-0.3,1.2,0.1,2c0.6-0.2,1.1-0.4,1.7-0.7C198.4,161.8,197.9,161.4,197.5,161z"/>
	<path class="st0" d="M98.9,89c2.1-0.7,4.3-0.8,6.4-0.7c3.8,0.2,7.3,1.4,10.5,3.3c0.2,0.1,0.4,0.3,0.5,0.4c0.4,0.4,0.3,0.8-0.2,1.1
		c-1.1,0.7-3,0.3-3.8-0.6c-0.4-0.5-1-1-1.5-1.2c-3.9-1.8-8-2.2-12.2-0.7c-0.2,1.5-0.4,3.1-0.5,4.6c-0.6,5.6-1.5,11.1-3.5,16.4
		c-1.8,4.5-4.3,8.6-8.1,11.6c-1,0.8-2,1.5-3.1,2.1c-1.4,0.8-3,1.2-4.6,1.2c-4.3,0.1-7.3-2.8-7.4-7.1c-0.1-2.6,0.6-5,1.7-7.2
		c3.1-6.4,7.5-11.9,13-16.4c1.1-0.9,2.2-1.7,3.4-2.5c0.6-0.4,0.9-0.8,1-1.6c0.4-3.9,0.8-7.8,1.3-11.7c0.1-0.9,0.2-1.8,0.1-2.8
		c-0.2,0.4-0.4,0.7-0.5,1.1c-1.2,2.6-2.3,5.2-3.5,7.8c-0.7,1.4-1.4,2.8-2.2,4.1c-1.7,2.7-5.2,3.3-7.6,1.2c-0.8-0.7-1.5-1.6-2-2.5
		c-1.2-1.9-1.6-4.1-1.9-6.2c-0.5-3-0.3-6.1,0.2-9.1c1-6.9,2.2-13.9,3.2-20.8c0.3-2.1,0.4-4.3,0.6-6.4c0-0.6-0.1-1.3-0.2-1.9
		c-0.3-0.9-0.6-1.1-1.5-0.7c-0.9,0.5-1.8,1-2.6,1.6c-3.1,2.4-5.3,5.4-7,8.9c-2.1,4.3-3.3,8.8-3.4,13.5c0,1.7,0.1,3.4,0.6,5
		c0.5,1.5,1.4,2.6,2.8,3.3c0.1,0.1,0.3,0.1,0.4,0.2c0.2,0.2,0.4,0.5,0.4,0.7c0,0.1-0.4,0.4-0.6,0.5c-1.4,0.2-2.8,0.1-3.8-1.2
		c-1.1-1.4-1.7-3.1-1.8-4.8c-0.5-9.1,1.9-17.4,7.9-24.4c1.4-1.7,3.1-3.1,5-4.3c1.8-1.1,3.7-1.3,5.7-0.8c2.3,0.6,3.8,2,4.5,4.4
		c0.6,2.4,0.9,4.8,0.8,7.3c-0.1,3.4-0.6,6.8-1.1,10.1c-1.2,7.2-2.1,14.3-2.3,21.6c0,1.4,0.2,2.9,0.3,4.3c0,0.2,0.2,0.5,0.3,1
		c0.5-0.6,0.9-0.9,1.2-1.4c1.1-1.9,2.3-3.7,3.3-5.7c2.1-4.4,4.2-8.8,6.2-13.3c0.5-1.1,0.6-2.4,0.9-3.6c0.6-3.2,1.1-6.4,1.6-9.5
		c0.1-0.7,0.3-1.3,0.6-1.9c0.6-1.5,1.6-2.1,3.4-1.8c1.4,0.2,2,0.9,2.1,2.5c0.1,1.7,0.1,3.5-0.1,5.2c-0.4,4.7-1,9.4-1.4,14.2
		c-0.4,4.3-0.7,8.7-1,13C98.7,88.5,98.8,88.7,98.9,89z M89.9,95.2c-0.2,0-0.3,0-0.4,0.1c-0.4,0.3-0.8,0.5-1.2,0.8
		c-4.2,3.2-7.8,7.1-10.7,11.6c-1.5,2.4-2.8,4.8-3.6,7.5c-0.5,1.6-0.7,3.3-0.5,5c0.2,1.8,1,3.2,2.4,4.3c1.2,0.9,2.6,1,3.9,0.2
		c0.7-0.4,1.3-0.9,1.9-1.5c2.7-2.7,4.7-5.8,5.5-9.5C88.5,107.6,89.3,101.5,89.9,95.2z"/>
	<path class="st0" d="M203.4,48.8c-2.2-0.2-4.1-1.1-6-2.4c-0.2,0.4-0.4,0.7-0.6,1.1c-2.3,5.1-4.9,10-7.9,14.6
		c-0.4,0.6-0.8,1.2-1.2,1.8c-0.6,0.8-1.7,1-2.6,0.7c-0.8-0.3-0.9-0.7-0.4-1.4c1-1.2,2-2.4,3-3.6c3.1-4.1,5.5-8.7,7.7-13.3
		c0.3-0.7,0.3-1.2-0.2-1.8c-1.6-1.9-2.5-4.2-3.3-6.6c-1.2-3.5-1.4-7.2-1-10.9c0.4-4,1.2-7.9,2.9-11.5c0.8-1.7,1.8-3.3,3.2-4.6
		c1.7-1.5,3.6-2.3,5.9-2.2c1.9,0.1,2.6,0.7,3.1,2.5c0.8,3,0.6,5.9,0,8.9c-1,5.8-2.7,11.4-5,16.8c-1.1,2.6-1,5,0,7.5
		c0.3,0.8,0.8,1.5,1.4,2.1c0.8,0.9,1.8,1.2,3.1,0.9c0.7-0.2,1.5-0.3,2.2-0.3c1.7,0.1,2.4,1,2,2.7c-0.2,1-0.6,1.9-1,2.9
		c-1.4,3.6-2.9,7.2-4.2,10.9c-1.9,5.2-2.7,10.7-3.6,16.1c-0.1,0.9-0.3,1.8,0.2,2.9c0.4-0.2,0.8-0.3,1.1-0.5c2.3-1.5,4.4-3.2,6.3-5.2
		c0.5-0.6,0.8-1.2,0.7-2.1c-0.3-5.6,1.3-10.7,4.2-15.4c1.9-3,4.6-5.2,8.1-5.9c1.1-0.2,2.3-0.3,3.5-0.1c3,0.4,4.9,3.5,4.1,6.5
		c-0.6,2.4-1.9,4.4-3.6,6.2c-2.3,2.5-5.2,4.4-8.2,5.9c-0.7,0.4-1.1,0.8-1.1,1.6c-0.1,2.2-0.5,4.4,0.3,6.5c0.1,0.4,0.3,0.9,0.5,1.3
		c0.7,1.5,1.7,1.9,3.3,1.4c2.1-0.7,4-1.8,5.8-3.1c1.7-1.2,3.2-2.5,4.8-3.9c0.6-0.5,1.1-0.7,1.9-0.2c-0.2,0.3-0.3,0.6-0.6,0.9
		c-2.5,2.2-4.9,4.4-7.8,6.1c-1.8,1.1-3.7,1.9-5.9,1.9c-3.3,0-5.7-1.5-7.4-4.2c-0.4-0.6-0.7-1.3-1.1-2.1c-0.3,0.3-0.6,0.6-0.9,0.8
		c-1.6,1.4-3.3,2.7-4.9,4.2c-2.7,2.5-8.8,1.2-9.9-3.5c-0.5-2.3-0.5-4.6-0.1-6.9c1.1-7.2,3.5-13.9,7-20.3
		C201.7,51.2,202.6,50.1,203.4,48.8z M216.6,70.8c0.2,0,0.3,0.1,0.4,0c2.9-1.5,5.6-3.3,7.8-5.9c1.1-1.3,1.9-2.7,2.4-4.3
		c0.6-1.8,0.3-3.4-1.2-4.8c-1.2-1.1-2.1-1.1-3.3-0.1c-1.2,1.1-2.2,2.3-2.9,3.8c-1.1,2.3-1.9,4.7-2.5,7.2
		C217,68.1,216.8,69.5,216.6,70.8z M199.5,36.3c0.2-0.5,0.3-0.6,0.4-0.8c1.6-4.3,3-8.7,4-13.2c0.5-2.6,0.8-5.3,0.3-8
		c-0.1-0.7-0.4-1.3-0.7-2.1C200.5,15.8,198.2,29.7,199.5,36.3z"/>
	<path class="st0" d="M156.4,75.7c-0.3,0.3-0.5,0.6-0.7,0.9c-1.6,2-3.3,3.9-4.8,6c-2.2,3.2-7.2,2-8.8-0.3c-1.1-1.6-1.6-3.3-1.6-5.2
		c-0.1-3,0.3-5.9,0.9-8.8c0.9-4.1,1.8-8.2,2.7-12.3c0.1-0.3,0.1-0.6,0.1-1.2c-0.6,0.7-1,1.1-1.3,1.5c-2.3,2.8-4.7,5.6-7.6,7.9
		c-0.4,0.3-0.7,0.9-0.9,1.4c-1.6,4.3-3.8,8.2-6.6,11.8c-1,1.3-2.1,2.4-3.6,3.2c-2.6,1.5-5.3,1.8-8.1,0.6c-3.4-1.5-4.9-4.3-5.2-7.9
		c-0.3-3.4,0.2-6.7,1.3-9.9c0.2-0.6,0.2-1.1-0.2-1.7c-2.1-3.2-2.6-6.7-1.7-10.4c0.9-4,3-7.5,6.2-10.1c5.5-4.5,13.6-3.6,17.6,3
		c2,3.3,2.8,7,2.5,10.8c-0.1,1.9-0.5,3.7-0.8,5.6c0,0.3-0.1,0.7-0.2,1.3c0.5-0.5,0.9-0.7,1.1-1.1c2.8-3.4,5.6-6.7,8.4-10.1
		c0.6-0.7,1.1-1.1,2-1.1c0.4,0,0.9,0,1.3,0c1.8,0.2,2.8,1.1,2.9,2.9c0.1,1.5-0.1,3.1-0.3,4.7c-0.9,4.9-2,9.7-2.9,14.6
		c-0.4,2.3-0.7,4.7-1,7c-0.1,1.1-0.2,2.2,0.4,3.5c0.4-0.4,0.8-0.6,1.1-1c2.6-3.2,5.2-6.4,7.8-9.6c0.3-0.3,0.4-0.8,0.4-1.2
		c0.4-5.1,1.4-10,2.8-14.9c0.2-0.7,0.5-1.4,0.8-2.2c0.3-0.9,1-1.4,1.9-1.5c0.8-0.1,1.6-0.1,2.4,0c1.2,0.2,1.7,0.7,1.7,1.9
		c0,1.4,0,2.9-0.2,4.3c-0.5,3.1-1.1,6.3-1.5,9.4c-0.4,3.3-0.8,6.7-1,10c-0.2,2.9-0.3,5.7-0.3,8.6c0,1,0.1,2,0.7,3.1
		c0.5-0.5,1-1,1.4-1.5c2.1-2.5,4-5.3,5.5-8.2c0.6-1.2,1.2-2.4,1.8-3.6c0.6-1.1,0.8-1.2,2.2-0.8c0,0.2,0,0.5-0.1,0.8
		c-2,5-4.5,9.6-8,13.8c-1.1,1.3-2.4,2-4.1,1.8c-1.5-0.2-2.7-0.8-3.5-2c-0.5-0.8-1-1.7-1.3-2.6c-1-3.1-1.3-6.3-1.3-9.5
		c0-0.5,0-1,0-1.5C156.6,75.7,156.5,75.7,156.4,75.7z M118.3,65.5c0.4,0.2,0.5,0.4,0.7,0.4c4.4,2.4,8.7,1.9,12.8-0.8
		c0.4-0.3,0.7-0.8,0.9-1.3c1.1-3.1,1.8-6.4,1.9-9.7c0.1-3.8-0.7-7.4-3-10.5c-3.4-4.8-8.7-5.5-13.3-1.7c-0.2,0.1-0.3,0.3-0.5,0.4
		c-2.3,2.2-3.9,4.7-4.9,7.7c-0.8,2.4-1.1,4.8-0.5,7.3c0.2,1,0.4,2,1.1,2.9c0.4-0.8,0.8-1.5,1.2-2.2c0.8-1.3,1.7-2.7,2.6-3.9
		c1.1-1.4,2.6-1.8,4.3-1.6c1.3,0.2,1.8,0.9,1.3,2.2c-0.1,0.2-0.1,0.3-0.2,0.5c-0.8,1.8-1.7,3.6-2.5,5.5
		C119.5,62.3,118.9,63.9,118.3,65.5z M131.3,66.9c-4.6,2-8.9,2.1-13.4,0c-0.9,3.7-1.5,7.2-0.2,10.8c0.2,0.5,0.5,1,0.8,1.4
		c0.9,1.2,1.5,1.3,2.9,0.8c1.5-0.6,2.8-1.6,3.8-2.9c2.4-2.8,4.3-6,5.9-9.3C131.2,67.6,131.2,67.4,131.3,66.9z"/>
	<path class="st0" d="M172.3,109.1c-0.1,2.6-0.4,5.1-1.2,7.6c-0.3,0.9-0.7,1.9-1.1,2.7c-1.3,2.4-4.2,3.4-6.7,2.3
		c-1.3-0.5-2.5-1.4-3.5-2.4c-1-1.1-1.6-2.3-1.6-3.7c-0.1-4.3,0.4-8.6,2.1-12.6c1-2.2,2.7-3.5,5.1-3.5c2.9,0,5.9,1.6,6.4,5.3
		C172.1,106.2,172.1,107.6,172.3,109.1z M169.3,107c-0.1-1-0.2-2.3-0.4-3.7c-0.1-1.2-0.8-2-1.8-2.5c-1.4-0.8-2.4-0.5-3.2,0.9
		c-0.1,0.2-0.2,0.4-0.3,0.6c-1.4,4.3-2.2,8.8-2.4,13.3c-0.1,2.1,0.8,3.9,2.7,5.1c1,0.6,1.7,0.6,2.5-0.4c0.5-0.7,1-1.5,1.3-2.3
		C169,114.5,169.1,110.9,169.3,107z"/>
	<path class="st0" d="M152.9,104.3c-0.6,0.4-0.9,0.1-1.2-0.3c-0.6-0.6-1.3-1.3-2-1.7c-1.1-0.6-2-0.3-2.7,0.7
		c-1.2,1.6-1.6,3.5-1.6,5.4c0,0.9,0.6,1.5,1.4,1.8c0.9,0.3,1.9,0.6,2.8,0.8c3.3,0.7,3.9,1.6,4,4.9c0,3.4-2.9,6.5-6.9,6.5
		c-2.4,0-4.1-1-5.3-3c-0.1-0.2-0.2-0.4-0.3-0.6c0.7-0.4,1.2-0.3,1.7,0.2c0.4,0.4,0.7,0.8,1.1,1.2c1.6,1.8,4.3,1.5,5.4-0.7
		c0.4-0.7,0.7-1.6,0.8-2.4c0.2-1.4,0.1-2.8,0.1-4.2c0-0.7-0.4-1.1-1-1.2c-1-0.2-1.9-0.3-2.9-0.5c-1.3-0.2-2.5-0.7-3.4-1.7
		c-0.8-0.9-1.2-1.9-1-3.1c0.1-1.2,0.4-2.3,1.1-3.3c1-1.5,2.5-2.3,4.3-2.2c1.6,0.1,3.1,0.4,4.4,1.4
		C152.3,102.9,152.8,103.5,152.9,104.3z"/>
	<path class="st0" d="M179.4,49.4c-0.1,3.4-0.8,6.6-2.2,9.6c-0.1,0.2-0.2,0.4-0.3,0.6c-0.4,0.4-0.9,0.5-1.3,0.2
		c-0.3-0.2-0.4-0.7-0.4-1c0-0.3,0.1-0.6,0.2-0.9c0.9-2.7,1-5.4,0.8-8.2c0-0.4-0.1-0.7-0.1-1.1c-0.1-0.6-0.2-1.4,0.5-1.6
		c0.6-0.2,1.4-0.1,2.1,0c0.3,0.1,0.5,0.6,0.6,0.9C179.4,48.4,179.4,48.9,179.4,49.4z"/>
	<path class="st0" d="M194.2,109.3c-0.4,0.1-0.7,0.3-0.9,0.3c-5.1,0.2-10.2,0.3-15.4,0.4c-0.1,0-0.3-0.2-0.5-0.3
		c0.3-0.7,0.9-0.7,1.5-0.7c2.8-0.1,5.5-0.2,8.3-0.3c1.7,0,3.4-0.1,5.1-0.1C192.9,108.7,193.6,108.6,194.2,109.3z"/>
	<path class="st0" d="M120.8,112.5c0.2-0.2,0.4-0.4,0.7-0.4c0.7-0.1,1.4-0.2,2.1-0.3c3.6-0.1,7.1-0.2,10.7-0.2
		c0.6,0,1.2-0.1,1.9,0.5c-0.4,0.2-0.7,0.3-1,0.4c-1.9,0.1-3.7,0.3-5.6,0.3c-2.5,0.1-5,0.1-7.5,0.1c-0.4,0-0.8-0.1-1.2-0.2
		C120.9,112.7,120.9,112.6,120.8,112.5z"/>
	<path class="st0" d="M176.8,150.7c-0.8-0.2-1.6-0.3-2.3-0.7c-0.7-0.3-0.7-0.7-0.5-1.4c0.2-0.7,0.7-1.2,1.4-1.4
		c1.3-0.4,2.7-0.4,3.9,0.2c1.2,0.6,1.3,1.4,0.3,2.3C178.9,150.3,178.3,150.5,176.8,150.7z"/>
</g>
</svg>
