<?xml version="1.0" encoding="utf-8"?>
<!-- Generator: Adobe Illustrator 21.1.0, SVG Export Plug-In . SVG Version: 6.00 Build 0)  -->
<svg version="1.1" id="Layer_1" xmlns="http://www.w3.org/2000/svg" xmlns:xlink="http://www.w3.org/1999/xlink" x="0px" y="0px"
	 viewBox="0 0 288 216" style="enable-background:new 0 0 288 216;" xml:space="preserve">
<style type="text/css">
	.st0{fill-rule:evenodd;clip-rule:evenodd;fill:#010101;}
</style>
<g>
	<path class="st0" d="M129.5,173.8c-0.4,1.1-0.8,2.2-1.3,3.2c-0.9,2.2-1.9,4.4-3.3,6.4c-0.2,0.4-0.5,0.7-0.8,1
		c-3.1,4.4-9,2.6-11-0.6c-1.1-1.7-1.7-3.6-1.9-5.6c-0.3-2-0.4-4.1-0.6-6.1c-0.1,0.2-0.3,0.4-0.4,0.6c-1.4,2.2-2.7,4.5-4.1,6.7
		c-0.5,0.7-1,1.4-1.7,2c-3,2.8-7.5,2.3-9.8-1.1c-1.4-1.9-2.1-4.1-2.5-6.4c-0.1-0.6-0.2-1.2-0.3-2c-0.2,0.4-0.4,0.6-0.5,0.9
		c-1,2.3-1.9,4.7-2.9,7c-0.6,1.4-1.4,2.8-2.2,4.2c-0.7,1.2-1.8,2.1-3,2.7c-1.8,0.9-4.3,0.5-5.8-1.5c-1-1.3-1.7-2.7-2.2-4.3
		c-0.8-2.8-0.9-5.7-0.9-8.6c0.1-5.2,0.7-10.4,1.2-15.6c0.3-2.7,0.4-5.3,0.5-8c0-0.4,0-0.8-0.1-1.2c-0.1,0-0.1-0.1-0.2-0.1
		c-0.3,0.4-0.6,0.7-0.8,1.1c-1.8,2.8-3.3,5.8-4.6,8.8c-2.6,5.9-4.5,12-6,18.3c-0.4,1.8-0.9,3.5-1.3,5.3c-0.2,0.7-0.2,1.5-0.3,2.3
		c-0.1,0.3-0.3,0.7-0.5,0.8c-1.3,0.6-2.6,0.7-3.9,0.3c-0.9-0.3-1.5-0.9-1.6-1.8c-0.6-3.3-1.2-6.6-1.8-9.9c-0.8-4.7-1.2-9.4-1.4-14.1
		c0-0.1,0-0.2-0.1-0.5c-0.4,0.2-0.7,0.4-1,0.5c-4.4,2.5-9.2,4.3-14.2,5.1c-5.7,0.9-11.1-0.2-16.2-2.8c-2.7-1.4-5.1-3.1-7.1-5.4
		c-0.8-0.9-1.5-1.9-2-3.1c-0.6-1.7,0-2.5,1.8-2.4c1.1,0,1.8,0.6,2.3,1.5c2.3,3.8,5.4,6.6,9.3,8.7c3.3,1.8,6.8,2.7,10.5,2.3
		c3.9-0.5,7.6-1.6,11.1-3.3c1.6-0.8,3.1-1.7,4.7-2.5c0.5-0.3,0.7-0.7,0.7-1.3c0-3.6-0.1-7.2,0-10.8c0.2-5.6,1-11.2,2.9-16.6
		c0.9-2.5,2.1-4.8,3.9-6.8c1.7-2,3.8-3.4,6.4-3.9c1-0.2,2.1-0.2,3.2-0.1c1.3,0.1,2.4,0.9,3.1,2c1,1.6,1.5,3.3,1.6,5.2
		c0.2,4.3-0.9,8.4-2.5,12.3c-2.6,6-6.3,11.2-11.1,15.6c-0.7,0.6-0.9,1.2-0.8,2.1c0.2,1.9,0.2,3.8,0.4,5.7c0.3,3.1,0.6,6.2,0.9,9.3
		c0.2,2,0.5,4,0.7,6c0,0.4,0.1,0.7,0.3,1.1c0.1-0.3,0.2-0.6,0.3-0.9c1.3-4.3,2.5-8.7,4-13.1c1.7-5.1,4-10,6.6-14.7
		c0.3-0.6,0.7-1.1,1.1-1.7c0.6-0.8,1.4-1.2,2.3-1.2c1.3-0.1,2.5,0.3,3.5,1.3c1.1,1,1.7,2.4,1.9,3.9c0.2,1.5,0.4,3,0.4,4.5
		c0.1,4.7,0,9.3-0.3,14c-0.3,3.9-0.6,7.7-0.9,11.6c-0.1,1.4,0.1,2.9,0.2,4.3c0,0.3,0.2,0.6,0.3,1c1-0.3,1.7-0.9,2.2-1.6
		c0.8-1.1,1.6-2.3,2.2-3.6c1.2-2.4,2.2-4.8,3.2-7.2c0.6-1.3,1.1-2.7,1.7-4.1c0.4-0.9,0.6-1.8,0.7-2.7c0.3-3.3,1-6.5,2.2-9.7
		c1.4-3.5,3.8-6.1,7.2-7.8c2.6-1.3,5.4-1.5,8.2-0.6c2.7,0.9,3.9,3.3,3.7,6.1c-0.1,0.6-0.2,1.3-0.4,1.9c-0.1,0.5-0.5,0.6-1,0.5
		c-0.5-0.1-0.5-0.5-0.5-0.8c0.2-1.1,0.3-2.2-0.1-3.3c-0.4-1.3-1.2-2.4-2.5-3c-1.3-0.6-2.4-0.4-3.4,0.6c-1.5,1.5-2.7,3.2-3.6,5.2
		c-1.2,2.6-1.9,5.3-2.5,8c-0.7,3.4-1.2,6.9-1,10.4c0.1,1.9,0.3,3.9,0.8,5.8c0.1,0.3,0.1,0.5,0.2,0.8c0.6,1.5,1.4,1.8,2.7,0.9
		c0.9-0.6,1.8-1.4,2.4-2.2c2.9-3.8,5.2-7.8,6.9-12.2c0.4-1.1,0.4-2.4,0.7-3.5c0.7-3.8,1.4-7.7,2.8-11.3c0.5-1.2,1.1-2.3,1.8-3.3
		c0.7-1.1,1.9-1.4,3.1-1.1c0.8,0.2,1.1,0.5,1.1,1.3c0,1.2-0.1,2.3-0.3,3.5c-0.7,4.4-1.6,8.7-2.2,13.1c-0.5,3.3-0.7,6.6-0.8,9.9
		c-0.1,2.4,0,4.9,0.7,7.3c0.5,1.5,0.8,2.1,1.7,2.8c0.6-0.2,1.1-0.6,1.6-1.1c1.4-1.3,2.4-2.8,3.3-4.5c1.6-2.9,2.8-6.1,4-9.2
		c0.3-0.8,0.5-1.6,0.8-2.4c1.4-3.5,1.9-7.2,2.2-10.9c0.5-4.7,1-9.3,1.5-14c0.3-2.3,0.4-4.7,0.7-7c0.2-2.3,0.6-4.6,1.4-6.8
		c0.2-0.4,0.3-0.9,0.6-1.3c0.6-1.1,1.5-1.5,2.7-1.2c0.6,0.2,1.1,0.6,1.2,1.2c0.2,0.9,0.3,1.7,0.3,2.6c0,2.4-0.1,4.8-0.2,7.1
		c-0.1,2.3-0.3,4.6-0.5,6.9c-0.1,1.4-0.2,2.8-0.4,4.2c0,0.3,0,0.6,0,1.2c0.2-0.5,0.4-0.7,0.5-1c1-2.1,2.2-4.1,3.7-5.8
		c0.9-1,1.8-1.9,2.9-2.6c2.6-1.8,6-1.1,7.8,1.5c1.1,1.6,1.5,3.4,1.8,5.3c0.2,1.7,0.4,3.3,0.6,5.1c0.2-0.1,0.4-0.2,0.5-0.4
		c1.4-1.3,2.7-2.6,4.1-3.8c0.3-0.3,0.5-0.6,0.5-1c0.2-2.3,0.4-4.6,0.8-6.9c0.5-3.7,1.2-7.3,1.8-11c0-0.2,0.1-0.5,0.2-0.7
		c0.2-0.9,0.6-1.7,1.6-1.9c1.2-0.4,2.3-0.4,3.4,0.3c0.3,0.2,0.6,0.6,0.6,1c0.2,0.8,0.3,1.6,0.3,2.4c0.1,3.1-0.3,6.2-0.7,9.2
		c-0.4,3.1-0.8,6.2-1.1,9.4c-0.1,1-0.2,2-0.2,3c0.1-0.3,0.3-0.6,0.4-0.9c1.4-3.7,3.2-7.1,5.5-10.4c0.9-1.3,1.9-2.4,2.9-3.6
		c2.2-2.5,8.3-2.3,10.3,1.5c0.9,1.7,1.5,3.5,1.8,5.3c0.2,1.3,0.3,2.7,0.5,4c0,0.2,0,0.3,0.1,0.6c0.3-0.2,0.5-0.3,0.6-0.5
		c1.3-1.3,2.6-2.7,3.9-4c0.4-0.4,0.7-1,0.9-1.5c0.6-2,1.2-4,2-5.9c0.4-1.1,1.1-2.1,1.8-3.2c0.9-1.3,2.2-1.6,3.6-1.3
		c0.8,0.2,1.1,0.5,1,1.3c-0.2,1.5-0.4,3-0.8,4.5c-0.6,2.7-1.3,5.5-1.9,8.2c-0.7,2.9-1,5.9-1.2,9c-0.2,2.2-0.2,4.4,0.3,6.6
		c0.1,0.7,0.4,1.5,0.6,2.2c0.2,0.4,0.5,0.8,0.7,1.2c0.9-0.2,1.5-0.6,2-1.1c1.2-1,2.3-2.2,3-3.6c2.2-3.9,4.4-7.7,6.6-11.6
		c0.2-0.3,0.2-0.8,0.2-1.1c0-2,0-4.1,0-6.1c0.1-1.4,0.2-2.7,0.5-4.1c0.4-1.6,1.1-2.1,2.7-2.1c0.4,0,0.8,0.1,1.2,0.1
		c0.7,0.1,1.3,0.6,1.5,1.3c0.2,0.9,0.4,1.8,0.6,2.7c0.1,0.7,0.2,1.4,0.2,2.1c0,3.5,0,6.9-0.1,10.4c0,2-0.2,3.9-0.3,5.9
		c-0.1,1.6-0.2,3.1-0.3,4.7c0,0.4,0,0.7,0,1.2c0.4-0.2,0.7-0.3,1-0.4c3.8-1.9,7.8-3.3,11.9-4.1c5.1-1,10.1-0.8,15.1,0.9
		c3.7,1.3,6.8,3.5,9.5,6.3c0,0.1,0.1,0.1,0.1,0.2c0.7,0.8,0.5,1.6-0.6,1.9c-1.6,0.4-3.1,0.2-4.4-0.8c-0.6-0.5-1.1-1-1.7-1.5
		c-1.6-1.5-3.4-2.7-5.4-3.6c-3.6-1.7-7.4-2-11.3-1.3c-5,0.9-9.6,2.6-14.1,4.9c-0.5,0.3-0.7,0.6-0.8,1.1c-0.5,3.3-1,6.6-1.7,9.9
		c-1.2,5.3-2.7,10.6-5,15.5c-1.3,2.7-2.9,5.2-5,7.2c-3.5,3.3-7.6,5.1-12.4,5.1c-4.4,0-7.4-3.6-6.7-8c0.3-2.3,1.2-4.4,2.2-6.4
		c1.9-3.5,4.3-6.6,6.9-9.5c4.3-4.7,9.1-8.7,14.2-12.4c0.6-0.5,1-1,1-1.7c0.2-2.5,0.5-5.1,0.7-7.6c0.1-1.9,0.2-3.9,0.3-5.8
		c0-0.5,0-0.9,0-1.6c-0.3,0.4-0.4,0.6-0.6,0.9c-1.5,2.6-2.9,5.3-4.3,7.9c-0.8,1.5-1.8,2.9-3.1,4.1c-1.6,1.5-3.6,2-5.8,1.7
		c-1.9-0.3-3.1-1.5-4.1-3c-0.9-1.4-1.3-3-1.5-4.7c-0.5-4-0.2-8,0.3-12c0-0.1,0-0.2,0-0.5c-0.3,0.3-0.5,0.4-0.7,0.6
		c-1.1,1.2-2.2,2.4-3.3,3.5c-0.4,0.4-0.6,0.9-0.6,1.5c-0.2,3.7-0.5,7.4-1.4,11c-0.8,3.5-2,6.9-4,10c-0.7,1-1.5,2-2.4,2.9
		c-1.3,1.3-3,2-4.9,1.9c-1.5-0.1-2.6-0.9-3-2.4c-0.4-1.3-0.4-2.6,0-4c0.5-2.1,1.4-4.1,2.4-6c1.3-2.5,2.9-4.9,4.7-7.2
		c0.4-0.5,0.6-1,0.6-1.5c0.5-4.8,0.8-9.7,0.4-14.5c-0.1-1.2-0.4-2.4-0.6-3.6c-0.1-0.3-0.2-0.6-0.3-0.8c-0.3-0.5-0.5-0.6-1-0.3
		c-0.6,0.4-1.2,0.7-1.7,1.2c-0.9,1-1.7,2-2.5,3c-2.1,3.2-3.6,6.6-5,10.2c-1.6,4.2-2.8,8.5-3.9,12.8c-0.2,0.7-0.2,1.4-0.3,2.1
		c-0.2,3.7-0.5,7.5-0.7,11.2c-0.2,3.8-0.4,7.7-0.6,11.5c-0.2,3.2-0.3,6.5-0.6,9.7c-0.1,1.6-0.8,2.2-2.4,2.3c-0.3,0-0.6,0-0.9,0
		c-1.6-0.1-2.5-0.5-2.5-2.6c0-2.1,0-4.2,0-6.3c0-2.1,0.1-4.3,0.1-6.4c0.1-4.1,0.2-8.2,0.4-12.4c0.3-4.9,0.6-9.8,1-14.6
		c0.2-2.8,0.5-5.6,0.7-8.4c0-0.2,0-0.5,0-0.8c-0.2,0.1-0.4,0.2-0.5,0.3c-1.4,1.3-2.7,2.7-4.1,4c-0.4,0.4-0.4,0.9-0.4,1.4
		c-0.1,3.5-0.6,6.9-1.6,10.3c-1.2,3.8-3,7.2-5.9,10c-1.3,1.2-2.7,2-4.5,2c-2.3,0-3.3-1.3-3.2-3.5c0.1-1.4,0.5-2.8,1-4.1
		c1.5-3.6,3.7-6.7,6.2-9.7c0.5-0.6,0.8-1.3,0.9-2.1c0.5-3.6,0.9-7.3,0.9-10.9c0-1.6-0.1-3.3-0.3-4.9c-0.1-0.9-0.3-1.1-1-1.8
		c-0.3,0.2-0.7,0.4-1.1,0.6c-1.5,1-2.7,2.3-3.8,3.7c-1.6,2.1-2.8,4.5-3.9,6.9c-1.9,4.4-1.9,4.4-2.4,9.2c-0.5,4.3-1,8.6-1.5,13
		c-0.4,3.3-0.7,6.7-1.1,10c-0.4,4.3-0.8,8.5-1.2,12.8c-0.1,1.6-0.3,3.2-0.5,4.8c-0.2,1.2-0.4,2.4-0.7,3.6c-0.1,0.3-0.4,0.7-0.7,0.9
		c-1.2,0.6-2.5,0.5-3.8,0c-0.6-0.2-0.8-0.6-0.8-1.3c-0.1-3.4,0-6.8,0.3-10.2c0.2-2.4,0.3-4.9,0.5-7.3c0.4-4.4,0.9-8.7,1.3-13.1
		c0-0.4,0.1-0.8,0.1-1.2C129.7,173.9,129.6,173.9,129.5,173.8z M211.4,171.6c-0.4,0.2-0.6,0.4-0.8,0.5c-4.9,3.6-9.3,7.6-13.4,12.2
		c-2.4,2.7-4.6,5.6-6,9c-0.6,1.4-1,2.8-1.2,4.2c-0.2,1.8,0.1,3.5,1.3,4.9c1,1.3,2.4,1.8,4,1.5c1.2-0.2,2.3-0.6,3.4-1.2
		c1.9-1.1,3.4-2.7,4.6-4.5c1.3-1.9,2.2-4,3-6.1c1.9-5.1,3.2-10.3,4.2-15.6C210.8,174.9,211.1,173.4,211.4,171.6z M60,150.9
		c0.3-0.2,0.4-0.3,0.6-0.4c4.5-4.5,8-9.7,10.2-15.7c1.2-3.3,1.9-6.7,1.4-10.2c-0.3-2-1-3.7-2.5-5c-0.6-0.5-0.8-0.6-1.4-0.1
		c-0.7,0.5-1.4,1-1.9,1.7c-0.8,1.2-1.6,2.5-2.2,3.8c-1.6,3.5-2.4,7.3-3,11.1c-0.6,3.9-1,7.9-1.2,11.9C59.9,148.8,60,149.8,60,150.9z
		 M180.7,162.5c-0.3,0.2-0.4,0.2-0.4,0.2c-1.7,2.5-3.2,5.1-4.1,8c-0.3,1.1-0.5,2.2-0.4,3.4c0.1,0.9,0.3,1.8,1.1,2.4
		c0.5-0.3,0.9-0.8,1.1-1.3c0.3-0.8,0.7-1.6,0.8-2.5C179.4,169.4,180,166,180.7,162.5z M144.1,176.9c0.2-0.1,0.4-0.2,0.5-0.4
		c0.4-0.8,1-1.6,1.2-2.4c0.8-2.9,1.6-5.9,2.4-8.8c0.1-0.2,0-0.4,0.1-0.7c-0.1,0.1-0.2,0.1-0.2,0.1c-1.7,2.4-3.2,4.8-4,7.6
		c-0.3,1-0.3,2-0.4,3.1C143.5,175.9,143.7,176.4,144.1,176.9z"/>
	<path class="st0" d="M220.2,40.3c-1-0.1-1.9-0.1-2.9-0.2c-4-0.2-7.8-1-11.7-2c-5-1.3-10-2.8-15-4.2c-3.7-1-7.4-1.8-11.1-2
		c-3.9-0.3-7.8,0.2-11.6,1.2c-3.5,0.9-6.9,2.1-9.9,4c-0.6,0.4-1.2,0.6-1.9,0.6c-0.4,0-0.9-0.1-1-0.5c-0.1-0.3,0-0.8,0.2-1.1
		c0.3-0.4,0.8-0.9,1.3-1.1c1.1-0.6,2.2-1.2,3.4-1.7c4.1-1.7,8.4-2.6,12.9-3c5.8-0.5,11.5,0.3,17.1,1.8c5.1,1.4,10.1,2.9,15.1,4.4
		c3.8,1.1,7.6,2,11.6,2.4c1.3,0.1,2.6,0.1,3.9,0.2c0.3-1.2,0.6-2.3,0.8-3.3c1.2-4.9,2.7-9.7,4.9-14.2c1.7-3.4,3.8-6.5,6.7-9.1
		c1.5-1.3,3.1-2.4,5-3.1c1.8-0.7,3.7-0.9,5.6-0.5c2,0.4,3.4,1.5,4.2,3.4c1,2.2,1,4.6,0.4,6.9c-1.3,5.6-4.3,10.2-8.6,14
		c-3,2.6-6.4,4.5-10.2,5.8c-0.4,0.1-0.8,0.3-1.2,0.4c-1.5,6.8-2.7,13.7-3.7,20.7c0.1,0,0.1,0,0.2,0.1c0.2-0.3,0.3-0.6,0.5-0.9
		c2.2-4.4,4.9-8.5,8.6-11.8c0.8-0.7,1.7-1.4,2.6-2c1.8-1.2,3.7-1.3,5.7-0.7c1.9,0.6,3,2.1,3.2,4.1c0.1,1.7-0.2,3.3-0.8,4.8
		c-2.7,7.7-7.9,13.1-15.4,16.5c-0.6,0.3-1.2,0.5-1.7,0.7c0.6,1.2,1.3,2.4,1.8,3.6c0.9,2.1,1.6,4.2,2.5,6.2c1,2.4,2.1,4.8,3.3,7.2
		c0.4,0.8,0.9,1.6,1.6,2.2c1.9,1.8,3.7,2,5.8,0.5c1.5-1.1,2.7-2.5,3.7-4.1c1.5-2.4,2.7-5,3.8-7.5c0.3-0.6,0.5-1.2,0.8-1.9
		c-0.9-1.2-1.6-2.5-2-4c-0.5-2.1-0.4-4.1-0.1-6.2c0.8-5.8,3.3-10.8,7.1-15.2c1.5-1.7,3.2-3.1,5.2-4.2c2-1.1,4.2-1.4,6.4-1
		c0.2,0,0.4,0.1,0.6,0.1c2.7,0.8,4,2.9,3.4,5.7c-0.2,0.9-0.5,1.9-0.9,2.7c-1.4,2.9-3.3,5.4-5.7,7.6c-2.4,2.1-5.1,3.5-8.4,4
		c-0.1,0.7-0.2,1.4-0.3,2.2c-0.1,2.3,0,4.6,0.6,6.9c0.1,0.4,0.2,0.8,0.4,1.1c0.7,1.4,1.7,2.1,3.4,1.4c1.4-0.5,2.7-1.2,3.7-2.3
		c2.5-2.7,5-5.3,7.5-8c0.7-0.7,0.9-0.8,1.9-0.3c-0.2,0.3-0.4,0.6-0.6,0.9c-1.9,2.2-3.9,4.4-5.8,6.5c-0.3,0.4-0.6,0.7-0.9,1.1
		c-1.7,2.2-4.1,3.3-6.8,3.8c-2.2,0.4-4.3-0.2-6.3-1.2c-0.3-0.2-0.6-0.4-1-0.6c-0.2,0.4-0.3,0.7-0.5,1c-1,2.1-1.9,4.2-2.9,6.3
		c-0.9,1.9-2.1,3.5-3.6,5c-2.1,2.1-4.6,2.7-7.4,2.2c-4.5-0.7-8.1-3.1-10.5-7c-1.8-3-3-6.2-3.8-9.6c-0.1-0.2-0.1-0.5-0.3-0.7
		c-0.1,0.9-0.2,1.8-0.2,2.7c-0.3,3.1-0.5,6.3-0.8,9.4c-0.2,1.7-1.4,2.8-3.1,3c-1.6,0.2-2.7-0.5-3.5-1.8c-0.2-0.3-0.3-0.7-0.2-1.1
		c0-3.4,0.1-6.8,0.2-10.2c0-1.2,0.1-2.5,0.1-3.7c-0.1,0.3-0.3,0.7-0.4,1c-0.6,1.3-1.1,2.6-1.8,3.9c-0.9,1.7-2.1,3.1-3.7,4.2
		c-2.2,1.7-4.6,1.9-6.9,0.6c-1.6-0.9-2.4-2.3-2.9-4c-0.3-1.1-0.5-2.2-0.5-3.4c-0.1-1.5,0-3.1,0-4.7c-0.2,0.2-0.4,0.4-0.5,0.5
		c-0.8,1-1.6,2-2.5,3c-0.5,0.6-1,1.1-1.5,1.6c-2.4,2.4-6.6,1.6-8.4-0.9c-0.2-0.3-0.4-0.6-0.6-0.9c-0.2,0.4-0.4,0.6-0.5,0.9
		c-1.6,3.1-3.1,6.1-4.7,9.2c-0.8,1.6-1.8,3-3.1,4.2c-1.9,1.7-4.2,1.5-5.8-0.4c-1.2-1.5-1.7-3.2-1.8-5.1c-0.3-4.1,0.4-8,1.4-11.9
		c1.3-5.4,2.8-10.8,4.2-16.2c0.5-1.8,0.9-3.7,1.2-5.6c0.3-1.4,0.3-2.7,0-4.1c-0.1-0.5-0.3-1-1-1.3c-0.6,0.5-1.3,0.9-2,1.5
		c-1.6,1.3-2.8,3-3.9,4.7c-2.3,3.4-4.2,7-5.5,10.9c-0.5,1.3-0.5,2.8-0.8,4.2c-0.5,3.4-1,6.8-1.6,10.2c-0.5,3.1-3.2,3.6-5.6,2.7
		c-0.7-0.3-1.3-1.5-1.2-2.5c0.6-4.1,1.1-8.2,1.8-12.3c0.7-4.3,1.5-8.5,2.2-12.8c0.3-1.8,0.5-3.7,0.1-5.5c-0.1-0.3-0.2-0.7-0.3-1.2
		c-0.5,0.4-0.9,0.7-1.3,1c-1.3,1.2-2.4,2.6-3.2,4.1c-1.2,2.2-2.3,4.4-3.3,6.6c-0.3,0.7-0.4,1.5-0.5,2.2c-0.4,4.2-0.7,8.5-1.1,12.7
		c0,0.4-0.2,0.8-0.5,1c-1,0.7-2.1,1.3-3.4,1.3c-1.3,0-2.3-0.6-3.3-1.3c-0.4-0.3-0.5-0.8-0.4-1.3c0.2-1.8,0.3-3.7,0.5-5.5
		c0.2-2.5,0.4-5,0.6-7.5c0.2-2.9,0.3-5.8,0.5-8.6c0.2-3.1-0.1-6.2-0.6-9.3c-0.1-1-0.3-1.9-0.6-2.9c-0.2-0.6-0.5-1.1-0.7-1.6
		c-1.2,0.3-2,1-2.8,1.7c-2.2,2-4.2,4.3-5.5,7c-1.5,3-2.8,6.1-3.2,9.5c-0.2,1.4-0.2,2.9-0.3,4.3c0,0.5,0,1-0.1,1.5
		c-0.1,0.7-0.2,0.8-0.9,0.8c-0.6,0-0.8-0.2-0.8-0.9c0-1.1,0.1-2.3,0.1-3.4c0.2-5.2,2.1-9.9,4.6-14.4c1.2-2.3,2.8-4.3,4.7-6.1
		c2-1.8,4.3-2.4,6.9-1.9c2.4,0.4,4.1,2,5.3,4.1c0.8,1.5,1.1,3.1,1.4,4.7c0.4,2.8,0.5,5.5,0.3,8.3c0,0.2,0,0.3,0.1,0.6
		c0.1-0.2,0.3-0.5,0.4-0.7c1-2.1,2.2-4,3.8-5.8c1.4-1.5,3.2-2,5.2-1.7c1.7,0.3,2.8,1.2,3.4,2.8c0.5,1.3,0.8,2.6,0.9,3.9
		c0,1.5,0,3,0,4.5c0,0.2,0,0.4,0.1,0.7c0.1-0.2,0.2-0.4,0.4-0.6c1.3-2.1,2.5-4.3,3.9-6.3c0.9-1.5,2.2-2.7,3.6-3.8
		c2-1.6,4.8-1.2,6.3-0.4c0.7,0.4,1.2,1,1.6,1.8c0.5,1,0.7,2.1,0.8,3.2c0.2,2.4-0.1,4.7-0.5,7c-1.2,6.9-2.5,13.8-3.8,20.7
		c-0.5,2.8-1,5.7-1.4,8.5c-0.1,0.9-0.2,1.9,0,3.1c0.4-0.4,0.7-0.6,0.9-0.8c0.7-0.9,1.5-1.8,2-2.9c2-3.7,4-7.4,6-11.2
		c0.2-0.3,0.2-0.8,0.2-1.1c-0.6-4.4,0-8.6,1.7-12.7c0.9-2.3,2.1-4.5,3.7-6.4c1.6-1.9,3.4-3.3,5.8-3.9c1.4-0.3,2.8-0.3,4.2,0.1
		c1.5,0.5,2.3,1.4,2.6,3c0.3,1.8-0.2,3.5-0.7,5.2c-0.2,0.6-0.6,0.6-1.6,0.2c0.1-0.6,0.2-1.2,0.3-1.8c0.2-1.1,0.4-2.2,0.1-3.3
		c-0.2-0.8-0.5-1.5-1.2-1.9c-0.7-0.4-1.3-0.4-2,0c-0.9,0.7-1.7,1.5-2.3,2.5c-1.8,3.4-3.3,7-3.8,10.8c-0.2,1.4-0.5,2.8-0.7,4.2
		c-0.3,2-0.2,4.1,0.1,6.1c0.1,0.6,0.4,1.2,0.6,1.9c1-0.5,1.9-1.2,2.6-1.9c1.2-1.3,2.3-2.7,3.5-4c1.6-1.8,2.5-3.7,3-6.1
		c0.9-4.1,2.4-8.1,4.1-11.9c0.3-0.6,0.7-1.2,1.1-1.8c0.6-0.9,1.5-1.2,2.6-1c0.8,0.1,1.1,0.4,1,1.2c0,0.6-0.1,1.3-0.3,1.9
		c-0.8,2.7-1.5,5.5-2.3,8.2c-1.1,3.7-1.8,7.5-2.2,11.3c-0.2,2-0.3,3.9-0.4,5.9c0,1.1,0.2,2.2,0.4,3.3c0.1,0.7,0.6,1.3,1.3,1.8
		c0.4-0.3,1-0.5,1.4-0.8c1.7-1.2,3.1-2.9,4.2-4.7c1.3-2.3,2.2-4.9,3.3-7.3c1-2.2,1.4-4.6,1.7-7c0.6-4.7,1.4-9.4,2.1-14.1
		c0.4-2.6,1-5.1,1.5-7.7C220.2,40.7,220.2,40.6,220.2,40.3z M228.7,37.3c0.2,0,0.3,0,0.4,0c0.5-0.2,0.9-0.4,1.4-0.6
		c6.3-2.8,11.1-7.1,14-13.5c1.1-2.4,1.7-4.9,1.5-7.5c-0.1-1.8-0.7-3.3-2.1-4.6c-1-0.9-1.6-1-2.8-0.3c-1.3,0.8-2.4,1.8-3.3,3
		c-1.7,2-2.9,4.4-4,6.8C231.3,26,230,31.6,228.7,37.3z M223.5,70c1.1-0.1,2-0.4,2.9-1c2.5-1.6,4.5-3.7,6.2-6.1
		c1.7-2.6,3.2-5.2,4.8-7.9c0.7-1.3,1.3-2.6,1.9-4c0.5-1.2,0.8-2.5,0.7-3.9c0-0.5-0.1-1-0.6-1.4c-0.3,0.2-0.8,0.3-1.1,0.5
		c-0.8,0.5-1.6,1.1-2.4,1.7c-3.2,2.6-5.7,5.7-7.6,9.3c-1.5,2.8-2.7,5.7-4.1,8.5C223.5,67.1,223.7,68.5,223.5,70z M256.6,65.3
		c0.6-0.2,1.2-0.3,1.7-0.5c4.9-2,8.1-5.6,10.2-10.4c0.4-0.9,0.5-1.9,0.5-2.9c0.1-1.3-0.6-2.4-1.8-3.1c-0.7-0.4-1.4-0.4-2,0.1
		c-1.1,0.8-2,1.8-2.8,2.9c-2.7,4-4.8,8.3-5.7,13C256.6,64.7,256.6,64.9,256.6,65.3z"/>
	<path class="st0" d="M62.3,67.3c-0.2,0.1-0.3,0.2-0.3,0.2c-2.4,2.5-4.7,5-7.1,7.5c-0.5,0.5-0.6,1-0.7,1.7c0,3.5,0,6.9-0.2,10.4
		c-0.3,6.9-1.1,13.8-3.2,20.5c-1.1,3.6-2.6,6.9-5,9.9c-1.2,1.4-2.5,2.7-4.1,3.7c-2.9,1.8-5.9,2.2-9.2,1.3c-3.2-0.8-5.2-3.4-5.3-6.8
		c0-2.6,0.6-5,1.5-7.4c2-5.2,4.7-10,7.8-14.6c3-4.5,6.3-8.7,9.8-12.8c0.6-0.6,0.7-1.3,0.6-2.1c-0.2-2.2-0.2-4.3-0.3-6.5
		c-0.1-2.3-0.3-4.7-0.4-7c0-0.2-0.1-0.3-0.2-0.7c-0.2,0.4-0.3,0.7-0.4,1c-1,3-2,6-3,9c-0.4,1.2-1,2.4-1.6,3.6
		c-1.2,2.3-3.3,3-5.9,2.4c-2.1-0.5-3.6-1.8-4.7-3.6c-1.3-2.2-2-4.5-2.2-7c-0.1-1.2-0.1-2.3-0.1-3.5c0.1-4,0.2-8,0.3-12
		c0.1-4.5,0.3-9,0.4-13.5c0-1.8-0.2-3.5-0.4-5.3c-0.1-0.5-0.3-1.1-0.5-1.7c-0.5,0.3-0.9,0.4-1.3,0.7c-1.1,0.7-2.1,1.7-2.9,2.8
		c-2.3,2.9-3.8,6.2-5,9.7c-1.3,3.6-2,7.4-2,11.2c0,2.2,0.3,4.3,0.8,6.5c0.3,1.3-0.1,1.8-1.4,1.8c-0.4,0-0.7,0-1.1-0.1
		c-0.6-0.1-0.9-0.5-1-1.1c0-0.8-0.2-1.5-0.1-2.3c0.3-2.9,0.5-5.9,1-8.8c1.2-6.6,3.5-12.7,7.7-18c0.8-1,1.7-2,2.7-2.8
		c3.4-2.7,8.8-1.3,10.6,2.6c0.4,0.9,0.6,1.9,0.6,2.9c0,2.5,0.1,5.1,0,7.6c-0.1,4.1-0.4,8.1-0.5,12.1C36,61,36,63.2,35.9,65.5
		c0,2-0.1,4-0.1,6c0,1.8,0.2,3.7,0.4,5.5c0.1,1.1,0.4,1.5,1,2.1c0.5-0.1,0.9-0.5,1.2-0.9c0.9-1.2,1.7-2.4,2.3-3.8
		c2-4.8,3.6-9.8,4.9-14.9c0.2-0.8,0.1-1.7,0.1-2.6c-0.1-2.2-0.3-4.3-0.5-6.5c-0.1-1.6,0-3.2,0.3-4.8c0.2-1,0.8-1.6,1.8-1.7
		c0.6-0.1,1.2-0.1,1.8,0c0.9,0.1,1.5,0.6,1.7,1.5c0.3,1.5,0.6,2.9,0.9,4.4c0.5,3.4,0.9,6.9,1.3,10.4c0.3,2.8,0.5,5.6,0.7,8.4
		c0.1,1.1,0.1,2.2,0.2,3.5c0.3-0.2,0.4-0.3,0.5-0.5c2.3-2.4,4.6-4.9,7-7.3c0.5-0.5,0.7-1,0.7-1.7c0.1-1.4,0.3-2.9,0.5-4.3
		c0.1-0.4,0-0.7-0.2-1c-2.2-2.5-2.7-5.5-2-8.7c1.3-6,7.3-9.9,12.2-9.7c3.1,0.1,5.6,1.4,7.6,3.7c1.7,2,2.6,4.3,3.3,6.8
		c0.1,0.3,0.2,0.6,0.3,1.1c0.3-0.3,0.5-0.5,0.7-0.7c1.7-1.9,3.5-3.7,5.2-5.6c0.6-0.7,1.4-0.9,2.2-1c3.9-0.5,5.5,2.2,5.9,4.9
		c0.3,2,0.2,4.1-0.1,6.1c-0.6,4.3-1.3,8.6-2,12.9c-0.3,2.2-0.6,4.4-0.8,6.6c-0.1,1,0,2,0.4,2.9c0.6,0.1,1-0.2,1.3-0.6
		c0.8-0.8,1.6-1.6,2.2-2.6c1.1-1.9,2.1-3.9,3-5.9c0.2-0.4,0.2-0.9,0.2-1.4c0-4.3,0.4-8.6,1.1-12.8c0.2-1.3,0.6-2.6,1-3.9
		c0.2-0.6,0.5-1.2,0.8-1.7c0.7-1.2,1.8-1.4,3.3-1.1c0.5,0.1,0.9,0.5,1.1,1c0.2,0.5,0.3,1.1,0.3,1.7c-0.1,2.2-0.3,4.3-0.5,6.5
		c-0.1,1.9-0.4,3.7-0.5,5.6c-0.2,2.7-0.4,5.3-0.5,8c-0.1,2.1-0.1,4.3,0.4,6.4c0.1,0.4,0.3,0.8,0.5,1.4c0.6-0.4,1.2-0.7,1.6-1
		c2.1-1.7,4-3.6,5.5-5.8c0.5-0.7,1-1.5,1.5-2.2c0.5-0.7,1.1-0.8,2-0.2c-0.1,0.3-0.2,0.5-0.3,0.8c-1.7,3.4-4.1,6.1-7,8.4
		c-1.8,1.5-3.8,1.6-6,0.9c-1.2-0.4-2-1.3-2.6-2.4c-0.7-1.3-1-2.6-1.3-4c-0.1-0.3-0.1-0.6-0.2-1.1c-0.6,1.1-1,2.1-1.6,3
		c-0.5,0.9-1.1,1.8-1.8,2.6c-2.4,2.8-7.1,2.2-8.8-1.1c-0.6-1.2-0.8-2.5-1-3.9c-0.3-2-0.1-4.1,0-6.1c0.4-4,1.2-7.9,1.8-11.8
		c0.3-2.2,0.6-4.3,0.5-6.5c0-0.4-0.1-0.8-0.1-1.3c-0.6,0.1-0.9,0.4-1.1,0.7c-1.9,2-3.8,4-5.7,6.1c-0.3,0.3-0.3,0.6-0.3,1
		c0.5,5.8-0.8,11.4-2.8,16.8c-0.9,2.4-2.1,4.7-3.6,6.8c-1,1.3-2.1,2.5-3.5,3.4c-2.4,1.5-4.9,1.3-7-0.7c-2.2-2.1-3.4-4.7-4.1-7.6
		c-0.3-1.3-0.5-2.6-0.7-4C62.4,68.2,62.4,67.8,62.3,67.3z M47.3,83.8c-0.1-0.1-0.2-0.1-0.3-0.2c-0.1,0.2-0.1,0.3-0.2,0.4
		c-3.8,4.5-7.4,9.1-10.5,14.1c-2.4,3.9-4.6,8-6,12.5c-0.6,1.9-1,3.8-0.8,5.7c0.4,4.5,4.2,6,7.2,5.4c2.2-0.4,3.9-1.7,5.4-3.3
		c1.8-2.1,3-4.5,3.8-7.1c1.3-4.4,1.7-9,2-13.6c0.2-4.5-0.3-8.9-0.4-13.3C47.4,84.2,47.3,84,47.3,83.8z M69.5,59.5
		c1.9,0.2,3.5-0.2,5-0.9c2.8-1.2,5.1-3.1,7.1-5.3c0.2-0.2,0.3-0.5,0.3-0.8c-0.4-3-1.1-5.8-2.9-8.4c-0.9-1.3-2.1-2.4-3.6-3.2
		c-1.8-0.9-3.6-1.1-5.4-0.3c-4.1,1.6-6.6,4.6-7.4,8.9c-0.3,1.8-0.1,3.5,0.5,5.1c0.1,0.2,0.2,0.4,0.4,0.7c0.3-0.7,0.5-1.3,0.7-1.8
		c0.5-1.3,1.2-2.5,2.1-3.5c1-1.1,2.3-1.6,3.8-1.2c0.9,0.2,1.3,0.7,1.3,1.6c0,0.7-0.1,1.5-0.3,2.2c-0.4,1.8-1,3.6-1.4,5.3
		C69.7,58.4,69.6,58.9,69.5,59.5z M69.2,60.6c-0.2,1-0.4,1.8-0.5,2.7c-0.7,3.5-0.9,7-0.5,10.6c0.2,1.5,0.6,3,1.2,4.4
		c0.3,0.5,0.6,1.1,1,1.5c0.6,0.8,1,0.8,1.8,0.4c0.7-0.3,1.3-0.8,1.9-1.3c1.3-1,2.3-2.4,3.1-3.8c3.3-6,4.9-12.4,5-19.2
		c0-0.2-0.1-0.3-0.1-0.6C78.3,58.6,74.4,61,69.2,60.6z"/>
	<path class="st0" d="M107,97.3c0.6-0.9,1.2-1.8,1.8-2.6c1.6-2.4,3.2-4.7,4.7-7.1c0.4-0.6,0.9-1,1.7-0.9c0.1,0,0.1,0,0.2,0
		c1.8,0,2.1,0.3,2.3,2.1c0.2,2.3,0.4,4.7,0.6,7c0.7,7.7,0.6,15.4,0.6,23.1c0,1.9-0.3,2.5-2.6,2.5c-0.3,0-0.6-0.1-0.9-0.1
		c-0.7-0.1-1.1-0.6-1.2-1.3c-0.1-0.5-0.1-1-0.2-1.5c-0.1-3.5-0.1-7-0.1-10.5c-0.1-3.6-0.1-7.1-0.2-10.7c0-1.9-0.2-3.8-0.3-5.8
		c-0.2,0.2-0.4,0.4-0.5,0.5c-1.3,2.1-2.6,4.1-4,6.2c-0.9,1.4-2.2,1.6-3.4,0.4c-2.3-2.2-4.6-4.5-6.9-6.8c-0.3-0.2-0.5-0.5-1-0.9
		c0,0.9,0,1.6,0,2.4c0,1.5,0.1,3.1,0.1,4.6c0,5.5,0,10.9,0,16.4c0,1.4-0.1,2.7-0.1,4.1c0,1-0.5,1.5-1.5,1.7c-0.6,0.1-1.2,0.1-1.8,0
		c-1.1-0.2-1.5-0.8-1.5-1.8c0-4.9,0-9.7,0-14.6c0-3.8,0.1-7.6,0.2-11.5c0-1.5,0.2-3,0.3-4.5c0-0.7,0.4-1.1,1.1-1.3
		c0.6-0.1,1.1-0.2,1.7-0.1c1,0.1,1.2,0.4,1.4,1.4c0.1,0.3,0.2,0.6,0.4,0.7c3,2.5,5.8,5.3,8.5,8.1C106.5,96.9,106.7,97,107,97.3z"/>
	<path class="st0" d="M132.5,89.3c0.3,4.6,0.6,9.2,0.9,14c0.9-0.1,1.8-0.2,2.6-0.3c1.8-0.3,3.5-0.6,5.3-0.8c0.4-0.1,0.9-0.1,1.3,0
		c0.2,0,0.5,0.3,0.6,0.5c0.1,0.4-0.3,0.5-0.6,0.5c-1.3,0.3-2.7,0.7-4,0.9c-1.7,0.3-3.4,0.5-5.1,0.7c0,4-0.1,8.1-0.1,12.1
		c0.1,0,0.2,0.1,0.3,0c2.7-0.3,5.4-0.4,8-1.2c0.5-0.1,1-0.1,1.5,0c0.2,0,0.4,0.3,0.4,0.5c0,0.2-0.1,0.4-0.3,0.6
		c-0.2,0.2-0.5,0.3-0.7,0.3c-1.8,0.3-3.7,0.7-5.5,1c-1.8,0.3-3.6,0.4-5.4,0.6c-0.5,0-1,0-1.5,0.1c-1.4,0-2.3-1.1-2.4-2.3
		c-0.1-1.3-0.2-2.7-0.2-4c0-4,0-7.9,0.1-11.9c0-3.1,0.2-6.3,0.3-9.4c0-0.6,0.1-1.1,0.2-1.7c0.2-1,0.5-1.4,1.6-1.5
		c0.9-0.1,1.7-0.1,2.6-0.1c2.5-0.2,4.9-0.5,7.4-0.7c0.8-0.1,1.5,0,2.3,0c0.4,0,0.8,0.1,0.9,0.7c0,0.4-0.3,0.9-0.8,0.9
		c-0.4,0.1-0.9,0-1.3,0c-0.3,0-0.7-0.2-1-0.2c-2.3,0.2-4.7,0.4-7,0.6C132.7,89.2,132.6,89.3,132.5,89.3z"/>
	<path class="st0" d="M181.8,99.3c0,0.6,0,1.2,0,1.8c-0.8,0.1-1.5,0.2-2.3,0.2c-4.9,0.4-9.9,0.7-14.8,1.1c-2.9,0.2-5.7,0.5-8.6,0.7
		c-0.4,0-0.7,0.2-1.1,0.2c-0.2,0-0.4,0.1-0.6,0.1c-0.7,0.1-1.2-0.2-1.3-0.7c-0.1-0.4,0.2-0.9,0.9-1.1c1-0.3,2-0.5,2.9-0.6
		c2.9-0.3,5.8-0.5,8.7-0.7c4.5-0.4,9.1-0.7,13.6-1.1C180.1,99.4,180.9,99.4,181.8,99.3z"/>
	<path class="st0" d="M61.2,109.5c-0.8,0-1.3,0.1-1.8,0c-0.3-0.1-0.7-0.3-0.8-0.6c-0.2-0.4,0.3-0.6,0.7-0.7c1.1-0.3,2.3-0.5,3.4-0.7
		c4.9-0.7,9.8-1.4,14.7-2.1c0.8-0.1,1.5-0.1,2.3,0c0.7,0.1,1,0.5,1,0.9c0,0.4-0.4,0.7-1,0.8c-0.4,0.1-0.8,0.1-1.1,0
		c-0.7-0.2-1.3,0-2,0.1C71.4,108.7,66.2,109.2,61.2,109.5z"/>
</g>
</svg>
